<svg width="24" height="20" viewBox="0 0 24 20" fill="none" xmlns="http://www.w3.org/2000/svg">
<path d="M2.4 19.2C1.74 19.2 1.175 18.965 0.705 18.495C0.235 18.025 0 17.46 0 16.8V2.4C0 1.74 0.235 1.175 0.705 0.705C1.175 0.235 1.74 0 2.4 0H21.6C22.26 0 22.825 0.235 23.295 0.705C23.765 1.175 24 1.74 24 2.4V16.8C24 17.46 23.765 18.025 23.295 18.495C22.825 18.965 22.26 19.2 21.6 19.2H2.4ZM12 10.59C12.1 10.59 12.205 10.575 12.315 10.545C12.425 10.515 12.53 10.47 12.63 10.41L21.12 5.1C21.28 5 21.4 4.875 21.48 4.725C21.56 4.575 21.6 4.41 21.6 4.23C21.6 3.83 21.43 3.53 21.09 3.33C20.75 3.13 20.4 3.14 20.04 3.36L12 8.4L3.96 3.36C3.6 3.14 3.25 3.135 2.91 3.345C2.57 3.555 2.4 3.85 2.4 4.23C2.4 4.43 2.44 4.605 2.52 4.755C2.6 4.905 2.72 5.02 2.88 5.1L11.37 10.41C11.47 10.47 11.575 10.515 11.685 10.545C11.795 10.575 11.9 10.59 12 10.59Z" fill="#F8F9FA"/>
</svg>
