<svg width="36" height="36" viewBox="0 0 36 36" fill="none" xmlns="http://www.w3.org/2000/svg">
<path d="M26.25 35.8795C25.8936 35.8795 25.5869 35.7486 25.33 35.487C25.0731 35.2253 24.9446 34.9163 24.9446 34.5599C24.9446 34.1941 25.0685 33.885 25.3162 33.6328C25.5637 33.3806 25.875 33.2545 26.25 33.2545C28.2083 33.2545 29.8693 32.5727 31.2329 31.2091C32.5962 29.8457 33.2779 28.1849 33.2779 26.2266C33.2779 25.8607 33.404 25.5528 33.6562 25.3028C33.9087 25.0528 34.2225 24.9278 34.5975 24.9278C34.9447 24.9278 35.249 25.0575 35.5104 25.317C35.7721 25.5761 35.9029 25.8793 35.9029 26.2266C35.9029 28.9118 34.9585 31.192 33.0696 33.067C31.1807 34.942 28.9075 35.8795 26.25 35.8795ZM1.44458 11.0878C1.08819 11.0878 0.779167 10.9593 0.5175 10.7024C0.255833 10.4455 0.125 10.1386 0.125 9.78198C0.125 7.10615 1.06722 4.82378 2.95167 2.9349C4.83583 1.04601 7.11125 0.101562 9.77792 0.101562C10.1438 0.101562 10.4563 0.233507 10.7154 0.497396C10.9746 0.761285 11.1042 1.07142 11.1042 1.42781C11.1042 1.80281 10.9792 2.11309 10.7292 2.35865C10.4792 2.60392 10.1714 2.72656 9.80583 2.72656C7.8475 2.72656 6.18194 3.41059 4.80917 4.77865C3.43639 6.1467 2.75 7.80531 2.75 9.75448C2.75 10.1295 2.62389 10.4455 2.37167 10.7024C2.11944 10.9593 1.81042 11.0878 1.44458 11.0878ZM6.36125 29.5391C3.86125 27.0482 2.60431 24.0598 2.59042 20.5736C2.57653 17.0875 3.815 14.1038 6.30583 11.6224L9.25708 8.66406C9.62292 8.29823 9.98639 8.1917 10.3475 8.34448C10.7086 8.49726 11.0372 8.7149 11.3333 8.9974C11.9353 9.59934 12.2408 10.3239 12.25 11.1711C12.2594 12.0184 11.9539 12.7521 11.3333 13.3724L9.47917 15.2128C9.22 15.472 9.09042 15.7832 9.09042 16.1466C9.09042 16.5102 9.22 16.8216 9.47917 17.0807L9.95167 17.5878C10.6692 18.3053 11.0279 19.1745 11.0279 20.1953C11.0279 21.2161 10.6692 22.0853 9.95167 22.8028C9.7525 23.002 9.65292 23.2405 9.65292 23.5182C9.65292 23.796 9.7525 24.0345 9.95167 24.2336C10.1506 24.4325 10.3889 24.532 10.6667 24.532C10.9444 24.532 11.1829 24.4325 11.3821 24.2336C12.4932 23.1225 13.0499 21.7788 13.0521 20.2024C13.0546 18.626 12.5025 17.2845 11.3958 16.1778L12.7292 14.817C13.3358 14.2103 13.7618 13.5228 14.0071 12.7545C14.2524 11.9859 14.3079 11.2266 14.1737 10.4766L20.6321 4.01823C20.8913 3.76823 21.2038 3.64323 21.5696 3.64323C21.9354 3.64323 22.2479 3.76823 22.5071 4.01823C22.7663 4.2774 22.8958 4.59337 22.8958 4.96615C22.8958 5.33892 22.7663 5.6549 22.5071 5.91406L14.125 14.317L16.4933 16.6849L27.2571 5.95573C27.5163 5.69656 27.8264 5.56698 28.1875 5.56698C28.5486 5.56698 28.8589 5.69656 29.1183 5.95573C29.3775 6.2149 29.5071 6.52392 29.5071 6.88281C29.5071 7.2417 29.3775 7.54615 29.1183 7.79615L18.3892 18.5528L20.75 20.9486L30.3404 11.3653C30.5996 11.1153 30.9121 10.9916 31.2779 10.9941C31.6437 10.9963 31.9562 11.127 32.2154 11.3861C32.4746 11.6456 32.6042 11.9535 32.6042 12.3099C32.6042 12.6663 32.4746 12.9742 32.2154 13.2336L22.6321 22.817L25.0208 25.2336L31.9375 18.317C32.1969 18.0575 32.5094 17.9278 32.875 17.9278C33.2408 17.9278 33.5533 18.0575 33.8125 18.317C34.0719 18.5761 34.2017 18.8839 34.2017 19.2403C34.2017 19.597 34.0719 19.9049 33.8125 20.1641L24.3333 29.6503C21.8428 32.1317 18.8497 33.3609 15.3542 33.3378C11.8589 33.3145 8.86125 32.0482 6.36125 29.5391Z" fill="#F8F9FA"/>
</svg>
