<svg xmlns="http://www.w3.org/2000/svg" width="435" height="210" viewBox="0 0 435 210" version="1.1">
	<path d="M 130.500 2.910 L 123.500 3.500 132.904 4.250 C 138.076 4.663, 146.851 5.003, 152.404 5.008 C 172.723 5.023, 182.925 7.879, 191.347 15.911 C 199.721 23.897, 202.210 28.596, 202.782 37.497 C 203.854 54.208, 198.634 65.613, 183.384 79.881 C 176.747 86.090, 172.483 89.053, 163.905 93.415 C 152.373 99.280, 148.545 100.190, 147.775 97.250 C 147.460 96.047, 137.421 91.211, 115.652 81.778 C 83.244 67.733, 74.506 62.813, 71.440 56.884 C 69.268 52.684, 69.649 51.099, 73.750 47.259 C 78.892 42.445, 88.546 38.200, 97.528 36.803 C 106.161 35.461, 123.041 36.936, 127.919 39.458 C 131.389 41.252, 135.396 45.895, 138.173 51.339 C 140.252 55.414, 140.346 61.259, 138.481 70.500 C 137.795 73.899, 139.449 76.689, 142.440 77.181 C 143.887 77.419, 144.623 76.675, 145.333 74.256 C 145.857 72.472, 149.199 67.522, 152.759 63.256 C 156.319 58.990, 160.137 53.655, 161.243 51.400 C 163.028 47.759, 163.099 46.985, 161.876 44.490 C 159.875 40.403, 156.400 38.216, 146.773 34.980 C 132.196 30.082, 122.387 28.710, 106 29.279 C 82.960 30.079, 71.850 34.257, 60.010 46.574 C 53.262 53.594, 51.454 58.392, 52.550 66.366 C 53.547 73.609, 55.473 78.514, 59.450 83.932 C 65.215 91.786, 72.487 95.999, 94.773 104.397 L 115.046 112.037 120.369 109.518 C 125.600 107.044, 130.369 106.087, 128.450 107.896 C 127.927 108.389, 118.725 112.610, 108 117.278 C 84.524 127.494, 61.825 138.158, 62.378 138.712 C 63.132 139.465, 81.481 131.919, 87.322 128.454 C 90.524 126.554, 93.350 125, 93.603 125 C 93.856 125, 99.786 122.800, 106.781 120.111 C 120.329 114.902, 126.668 113.110, 125.636 114.780 C 125.298 115.327, 128.350 118.279, 132.418 121.341 C 146.633 132.040, 149.609 136.638, 148.781 146.622 C 148.157 154.146, 144.658 158.125, 132.929 164.646 C 125.151 168.970, 122.143 170.072, 115.750 170.934 C 97.232 173.433, 78.956 167.008, 65.796 153.374 C 59.876 147.240, 58.603 144.127, 56.489 130.610 C 55.055 121.434, 54.980 118.804, 56.019 113.909 C 56.697 110.714, 56.985 107.402, 56.657 106.550 C 55.606 103.810, 49.016 104.638, 42.956 108.270 C 37.525 111.526, 37.501 111.561, 37.808 116.020 C 39.238 136.812, 56.178 159.824, 77.570 170.033 C 97.685 179.634, 126.936 180.541, 149.281 172.259 C 155.194 170.067, 157.687 168.375, 163.587 162.552 C 171.849 154.398, 174.518 149.723, 175.935 140.923 C 176.743 135.907, 176.634 133.376, 175.407 128.639 C 172.449 117.225, 164.670 104.612, 158.508 101.240 C 157.413 100.641, 156.738 99.966, 157.008 99.741 C 157.279 99.516, 164.128 95.168, 172.229 90.080 C 187.789 80.305, 194.039 74.594, 201.112 63.687 C 206.462 55.436, 208.479 48.908, 208.430 40 C 208.374 29.841, 206.799 25.864, 200.146 19.086 C 192.880 11.684, 182.647 6.599, 171 4.605 C 161.140 2.916, 140.611 2.057, 130.500 2.910 M 36.500 3.626 C 34.850 3.862, 30.190 5.231, 26.145 6.667 C 13.089 11.304, 8.633 17.995, 5.407 37.808 C 4.172 45.392, 3.799 56.417, 3.696 88.500 C 3.558 131.023, 4.118 138.860, 8.442 154.899 C 10.264 161.659, 11.209 162.681, 14.324 161.262 C 16.670 160.193, 16.712 159.919, 17.418 140.839 C 18.876 101.475, 22.391 84.429, 34.342 58.750 C 36.326 54.487, 37.776 51, 37.564 51 C 36.893 51, 29.390 63.285, 26.194 69.615 C 18.945 83.975, 16.048 100.035, 15.937 126.462 C 15.871 142.148, 14.768 157.565, 13.630 158.703 C 12.116 160.217, 10.730 156.662, 9.208 147.361 C 6.744 132.299, 6.756 50.836, 9.224 39.768 C 12.128 26.744, 18.023 17.392, 26.387 12.536 C 36.279 6.793, 51.915 5.518, 69.216 9.044 C 78.739 10.985, 81.526 11.008, 79.433 9.129 C 77.045 6.984, 43.275 2.656, 36.500 3.626 M 98.548 6.656 C 83.083 9.454, 68.050 17.243, 56.474 28.457 C 53.188 31.640, 52.318 32.701, 54.539 30.815 C 66.764 20.438, 81.826 13.033, 102 7.484 C 111.602 4.843, 110.299 4.531, 98.548 6.656 M 245.037 6.174 C 240.160 7.573, 236.707 10.269, 232.567 15.909 C 227.648 22.610, 225.872 28.166, 225.825 37 C 225.775 46.405, 228.057 55.285, 233.097 65.298 L 237.022 73.097 234.001 81.656 C 225.266 106.405, 221.849 132.695, 223.984 158.725 C 225.317 174.976, 227.857 184.629, 232.062 189.418 C 237.078 195.131, 247.862 198.941, 263.936 200.680 C 295.589 204.104, 315.015 199.420, 323.044 186.429 L 325.289 182.796 327.889 186.148 C 331.984 191.429, 335.785 194.572, 341.347 197.277 C 350.271 201.617, 356.730 202.477, 380.500 202.489 C 405.673 202.502, 407.850 201.976, 415.831 193.955 C 421.432 188.326, 423.354 184.352, 425.356 174.252 C 430.316 149.230, 427.621 118.126, 418.059 90.058 L 414.148 78.577 417.964 70.538 C 422.454 61.081, 426.420 45.663, 426.264 38.265 C 426.110 30.920, 420.513 19.501, 414.450 14.165 C 407.409 7.967, 402.997 6.814, 384.162 6.250 C 369.351 5.807, 367.126 5.968, 360.353 7.979 C 345.533 12.378, 334.649 12.293, 295.373 7.471 C 274.317 4.886, 251.569 4.300, 245.037 6.174 M 246.293 9.576 C 240.910 11.575, 236.783 16.307, 234.002 23.668 C 232.096 28.715, 231.861 30.913, 232.252 40 C 232.619 48.527, 233.248 51.878, 235.600 57.831 C 237.972 63.838, 238.676 64.852, 239.497 63.441 C 240.049 62.495, 242.433 59.196, 244.796 56.110 C 247.160 53.025, 250.457 48.368, 252.125 45.762 C 255.143 41.046, 259.712 37, 262.021 37 C 262.687 37, 261.692 38.705, 259.810 40.789 C 254.645 46.506, 250.743 52.538, 245.674 62.644 L 241.087 71.788 244.029 76.231 C 248.067 82.326, 266.973 102.135, 268.093 101.443 C 269.386 100.643, 269.235 74.461, 267.824 54.738 C 266.875 41.473, 266.883 37.717, 267.860 36.738 C 268.650 35.946, 273.139 35.381, 280.320 35.170 C 294.334 34.757, 295.351 35.453, 294.982 45.200 C 294.850 48.665, 294.688 53.525, 294.621 56 L 294.500 60.500 303 61.151 C 307.675 61.509, 321.799 61.846, 334.386 61.901 L 357.272 62 356.666 57.580 C 356.333 55.148, 355.761 49.578, 355.396 45.201 L 354.733 37.243 358.616 35.914 C 364.276 33.977, 373.666 34.197, 379.406 36.401 L 384.312 38.285 383.621 71.736 L 382.930 105.186 385.791 103.148 C 389.597 100.439, 400.791 88.515, 405.972 81.653 L 410.127 76.150 407.641 72.325 C 406.274 70.221, 403.714 65.026, 401.951 60.780 C 400.133 56.397, 397.060 51.231, 394.843 48.830 C 390.959 44.623, 389.414 41.259, 390.234 38.797 C 390.995 36.515, 396.578 43.784, 404.703 57.635 C 408.991 64.947, 412.783 70.945, 413.128 70.964 C 413.945 71.011, 417.682 60.776, 418.957 55 C 421.290 44.439, 419.555 28.100, 415.429 21.770 C 412.610 17.445, 408.462 15.136, 397.964 12.051 L 390.428 9.836 378.464 12.341 C 347.369 18.852, 311.388 18.188, 278 10.488 C 267.896 8.158, 251.393 7.683, 246.293 9.576 M 175.166 58.368 C 177 61.045, 179.981 64.870, 181.792 66.868 L 185.083 70.500 183.565 67.346 C 182.731 65.611, 179.749 61.786, 176.940 58.846 L 171.832 53.500 175.166 58.368 M 295.101 98.935 C 295.283 117.693, 295.027 125.263, 294.175 126.289 C 293.219 127.442, 295.126 130.095, 304.316 140.402 C 316.521 154.089, 321.369 161.199, 324.002 169.276 C 325.650 174.332, 325.691 174.369, 326.415 171.459 C 326.820 169.832, 328.841 164.900, 330.906 160.500 C 334.986 151.806, 348.725 134.457, 353.995 131.344 L 357 129.569 357 101.284 L 357 73 325.924 73 L 294.848 73 295.101 98.935 M 235.701 86.250 C 229.755 99.019, 227.659 110.023, 227.655 128.500 C 227.649 150.593, 232.400 173.019, 238.916 181.657 C 248.252 194.034, 267.634 198.903, 296.390 196.095 C 309.369 194.828, 311.808 193.932, 317 188.527 C 320.457 184.929, 320.500 184.777, 320.478 176.192 C 320.460 169.132, 320.034 166.701, 318.205 163.244 C 315.792 158.683, 307.261 148.884, 300.107 142.456 L 295.714 138.509 296.410 151.004 C 296.793 157.877, 297.345 164.898, 297.637 166.608 C 298.130 169.486, 297.866 169.836, 294.064 171.358 C 288.878 173.433, 282.674 173.443, 274.500 171.390 L 268.089 169.779 267.295 165.140 C 266.096 158.140, 266.861 115.873, 268.216 114.240 C 269.097 113.178, 267.835 111.341, 262.348 105.694 C 258.503 101.737, 251.846 94.563, 247.556 89.750 C 243.265 84.938, 239.392 81, 238.950 81 C 238.507 81, 237.045 83.362, 235.701 86.250 M 400.985 93.818 C 395.176 99.832, 389.846 104.386, 387.232 105.568 L 382.964 107.500 383.588 129.500 C 383.932 141.600, 384.518 155.934, 384.891 161.353 C 385.326 167.669, 385.198 171.668, 384.535 172.493 C 382.898 174.528, 365.415 175.395, 360.500 173.685 L 356.500 172.292 356.853 152.896 L 357.207 133.500 351.537 139 C 338.633 151.517, 328.604 171.746, 330.443 181.548 C 331.311 186.177, 336.162 191.542, 342.284 194.644 C 356.223 201.707, 383.565 201.959, 401.062 195.185 C 407.933 192.524, 417.903 177.376, 421.642 163.915 C 424.124 154.976, 424.156 130.807, 421.701 119 C 419.713 109.442, 411.983 84, 411.066 84 C 410.739 84, 406.202 88.418, 400.985 93.818 M 196.114 94.500 C 196.133 95.050, 197.014 97.300, 198.072 99.500 C 199.130 101.700, 199.715 102.375, 199.373 101 C 198.668 98.169, 196.062 92.970, 196.114 94.500 M 142 101 C 141.175 101.533, 140.950 101.969, 141.500 101.969 C 142.050 101.969, 143.175 101.533, 144 101 C 144.825 100.467, 145.050 100.031, 144.500 100.031 C 143.950 100.031, 142.825 100.467, 142 101 M 203 142.174 C 203 156.028, 202.594 163.033, 201.598 166.341 C 200.827 168.903, 200.428 171, 200.713 171 C 200.997 171, 200.438 172.209, 199.470 173.687 C 198.501 175.165, 197.662 177.138, 197.605 178.073 C 197.547 179.008, 194.952 182.529, 191.837 185.898 C 181.018 197.601, 167.330 201.260, 142.228 199.161 C 134.678 198.530, 122.842 197.554, 115.926 196.994 C 109.011 196.434, 98.436 194.860, 92.426 193.497 C 79.592 190.585, 76.031 190.400, 84.500 193.084 C 105.043 199.594, 142.140 203.292, 165.219 201.130 C 182.686 199.494, 187.680 198.329, 192.740 194.709 C 202.819 187.498, 207.383 175.981, 207.288 158 C 207.235 148.049, 204.596 124.296, 203.408 123.083 C 203.184 122.854, 203 131.445, 203 142.174 M 34.994 152.717 C 17.476 161.462, 7.478 174.273, 9.869 184.914 C 11.046 190.151, 14.489 195.256, 18.454 197.645 C 20.844 199.084, 24.091 199.556, 33.533 199.836 C 46.571 200.224, 52.140 199.251, 56.495 195.825 C 59.098 193.778, 59.150 193.583, 57.435 192.329 C 54.810 190.410, 53.831 190.688, 54.187 193.250 C 54.500 195.499, 54.493 195.500, 41.500 195.157 C 24.092 194.698, 19.310 193.150, 16.291 187 C 13.773 181.870, 13.588 180.023, 15.060 174.723 C 16.640 169.033, 21.333 164.422, 33.750 156.360 C 43.344 150.130, 46.139 148, 44.722 148 C 44.569 148, 40.192 150.123, 34.994 152.717 M 48.095 181.875 C 46.772 182.244, 45.197 183.349, 44.595 184.331 C 43.724 185.751, 43.898 186.413, 45.441 187.559 C 48.378 189.740, 50.317 189.460, 49.022 187.042 C 48.170 185.450, 48.370 184.872, 50.093 183.950 C 52.598 182.610, 57.292 183.339, 63.623 186.053 C 66.122 187.124, 68.691 187.984, 69.333 187.964 C 71.393 187.901, 57.629 182.328, 54 181.756 C 52.075 181.453, 49.418 181.506, 48.095 181.875" stroke="none" fill="#3355ff" fill-rule="evenodd"/>
</svg>