<svg width="34" height="40" viewBox="0 0 34 40" fill="none" xmlns="http://www.w3.org/2000/svg">
<path d="M26.155 4.57099C22.7917 0.461573 16.5144 -1.14017 11.6036 0.854619C10.1893 1.42901 8.86894 2.2215 7.82591 3.3559C6.8283 4.43997 6.11516 5.71658 5.63946 7.10742C4.71197 9.8188 4.86735 12.8394 5.63229 15.5675C6.47691 18.5809 7.96854 21.365 9.40838 24.1243C10.9407 27.0593 12.4865 29.9872 14.0275 32.9175C14.4092 33.6445 14.7972 34.3675 15.1853 35.0912C15.6506 35.9596 16.9223 36.3031 17.7534 35.7663C17.8323 35.7152 17.9064 35.66 17.9757 35.6009C18.155 35.6752 18.3654 35.6736 18.5638 35.549C20.9319 34.0663 22.7183 31.6713 24.206 29.3401C25.716 26.9739 26.8363 24.3128 27.6474 21.6294C28.4801 18.8733 29.0203 15.9302 29.01 13.0447C28.9988 9.95461 28.1231 6.97561 26.1558 4.57179L26.155 4.57099ZM25.551 15.7161C25.5239 16.0285 25.492 16.34 25.4554 16.6516C25.445 16.7387 25.4331 16.8249 25.4235 16.912C25.4044 17.083 25.4307 16.8737 25.4371 16.817C25.4195 16.9863 25.3893 17.1565 25.363 17.3242C25.2634 17.9745 25.143 18.6208 25.0036 19.2631C24.7295 20.5253 24.3789 21.77 23.9566 22.9899C23.7446 23.6026 23.5104 24.2066 23.2658 24.8065C23.2355 24.876 23.206 24.9455 23.1757 25.0142C23.1144 25.1548 23.0522 25.2954 22.9885 25.4352C22.853 25.7348 22.7128 26.032 22.5677 26.3276C21.4259 28.6587 20.1191 30.9091 18.602 33.0174C18.5494 33.0909 18.4992 33.1651 18.4482 33.2394C18.4403 33.2235 18.4323 33.2067 18.4235 33.1907C16.947 30.4386 15.4363 27.704 13.9359 24.9647C12.5112 22.362 10.9693 19.7928 9.76615 17.0758C9.73986 17.0167 9.63149 16.7586 9.63149 16.7626C9.58607 16.6508 9.53986 16.5389 9.49603 16.4263C9.36536 16.0932 9.24583 15.7553 9.13508 15.4149C8.91436 14.7343 8.7287 14.0417 8.59085 13.3387C8.56057 13.1845 8.53269 13.0303 8.50719 12.8753C8.49763 12.8146 8.48806 12.7539 8.4785 12.694C8.4283 12.376 8.47532 12.7475 8.48966 12.7818C8.38607 12.5374 8.42432 12.1252 8.41157 11.8599C8.3805 11.2432 8.39324 10.6233 8.4538 10.0081C8.46018 9.94662 8.46655 9.88591 8.47292 9.8244C8.50559 9.50485 8.45619 9.87393 8.45938 9.91147C8.44583 9.78206 8.50559 9.61749 8.5295 9.48727C8.58528 9.18689 8.65301 8.88891 8.73428 8.59413C8.81476 8.30174 8.90878 8.01255 9.01555 7.72895C9.0283 7.69539 9.07691 7.61151 9.08089 7.56917C9.13826 7.44455 9.19643 7.32072 9.25938 7.19849C9.38767 6.94924 9.52791 6.70559 9.6801 6.46992C9.75659 6.35168 9.84185 6.23984 9.91834 6.12241C9.91834 6.12241 9.91834 6.12241 9.91834 6.12161C9.96615 6.06329 10.014 6.00417 10.0634 5.94665C10.253 5.72696 10.4554 5.51766 10.6689 5.32113C10.7789 5.22048 10.896 5.12781 11.006 5.02795C11.0514 4.98641 11.0602 4.97762 11.049 4.98481C11.0952 4.95605 11.1422 4.92889 11.1701 4.90971C11.4148 4.73955 11.6673 4.58217 11.9279 4.43838C12.0586 4.36648 12.1909 4.29698 12.3247 4.23147C12.4012 4.19392 12.4793 4.15957 12.5558 4.12202C12.5638 4.11803 12.5685 4.11563 12.5749 4.11244C13.1566 3.89754 13.7375 3.7082 14.3462 3.58278C14.4936 3.55242 14.6411 3.52526 14.7893 3.5013C14.8283 3.4949 14.8578 3.49011 14.8817 3.48612C14.8905 3.48532 14.9 3.48452 14.9104 3.48292C15.2243 3.45176 15.5367 3.4262 15.8522 3.41741C16.3885 3.40383 16.9191 3.43739 17.4514 3.49251C17.492 3.4989 17.5327 3.50529 17.5733 3.51168C17.7247 3.53724 17.8753 3.56521 18.0251 3.59636C18.3064 3.65468 18.5861 3.72418 18.8626 3.80327C19.1207 3.87677 19.3757 3.95905 19.6283 4.05012C19.7391 4.09007 19.849 4.13321 19.959 4.17555C20.0132 4.20111 20.0721 4.22188 20.1255 4.24665C20.6466 4.48391 21.1502 4.75952 21.6299 5.07189C21.849 5.21409 22.0562 5.40582 22.2841 5.53044C22.2132 5.49129 22.1685 5.46653 22.1415 5.45135C22.1917 5.48011 22.2897 5.54003 22.3399 5.58157C22.4713 5.69101 22.5996 5.80286 22.7255 5.91789C23.1144 6.27419 23.4666 6.66165 23.8012 7.06907C23.8291 7.10822 23.8578 7.14656 23.8857 7.18571C23.9622 7.29436 24.0363 7.4038 24.1088 7.51565C24.2745 7.77129 24.4275 8.03412 24.5677 8.30494C24.6331 8.43116 24.696 8.55898 24.7558 8.6876C24.7757 8.73153 24.7972 8.77547 24.8171 8.82021C24.8203 8.8298 24.8235 8.84098 24.8291 8.85616C24.9399 9.1861 25.0658 9.50804 25.1606 9.84357C25.249 10.1551 25.3247 10.4707 25.3885 10.7886C25.4251 10.9708 25.4554 11.1537 25.4865 11.3375C25.4952 11.3902 25.4889 11.5899 25.496 11.3862C25.5048 11.1385 25.5112 11.5188 25.5168 11.5747C25.665 12.9552 25.6658 14.3356 25.5478 15.7185L25.551 15.7161Z" fill="#F8F9FA"/>
<path d="M22.1472 5.45069C22.1018 5.42519 22.113 5.43077 22.1472 5.45069V5.45069Z" fill="#F8F9FA"/>
<path d="M18.429 8.09367C18.2306 8.08169 18.0409 8.13601 17.8752 8.23428C17.8369 8.18794 17.7883 8.1488 17.7294 8.11764C17.0274 7.75175 16.3103 7.58878 15.5254 7.75894C14.7828 7.92032 14.0409 8.33014 13.5501 8.91652C12.4521 10.2283 12.2664 12.1272 13.0848 13.6315C13.8545 15.0471 15.5445 15.993 17.1565 15.8508C18.9676 15.691 20.5286 14.5023 21.1429 12.7839C21.8561 10.7883 20.6895 8.23028 18.4298 8.09367H18.429ZM18.817 11.9347C18.8186 11.9299 18.7963 11.9962 18.7844 12.0353C18.7684 12.0721 18.7413 12.136 18.7429 12.132C18.6736 12.2694 18.5955 12.3996 18.5095 12.5266C18.5095 12.5266 18.5095 12.5274 18.5087 12.5282C18.4752 12.5674 18.4409 12.6065 18.4059 12.6441C18.3254 12.7303 18.2393 12.811 18.1501 12.8885C18.1501 12.8837 18.0091 12.9892 17.9708 13.0132C17.8593 13.0827 17.7429 13.1458 17.6242 13.2017C17.57 13.2201 17.5158 13.2392 17.4616 13.256C17.3493 13.2904 17.2362 13.3167 17.1222 13.3407C17.1788 13.3255 16.9246 13.3623 16.8617 13.3639C16.7485 13.3671 16.6369 13.3631 16.5246 13.3551C16.4792 13.3463 16.433 13.3367 16.3875 13.3263C16.276 13.2999 16.1676 13.2664 16.0593 13.2288C16.1118 13.2432 15.8736 13.1426 15.8258 13.1154C15.727 13.0603 15.6322 12.9988 15.5389 12.9341C15.4983 12.9005 15.4585 12.867 15.4194 12.8318C15.3302 12.7511 15.2473 12.6648 15.1676 12.5746C15.1987 12.6033 15.0489 12.4076 15.0218 12.3629C14.9923 12.3133 14.9652 12.263 14.9373 12.2127C14.9381 12.2143 14.9158 12.1647 14.8999 12.1328C14.8879 12.0992 14.868 12.0449 14.8688 12.0465C14.8521 11.989 14.8346 11.9331 14.8194 11.8756C14.8043 11.818 14.7915 11.7605 14.7788 11.7022C14.766 11.6447 14.7605 11.6239 14.7589 11.6175C14.7605 11.6231 14.766 11.6351 14.7636 11.584C14.7573 11.4649 14.7541 11.3467 14.7589 11.2269C14.7613 11.1781 14.7636 11.1286 14.7684 11.0799C14.77 11.0703 14.7732 11.0575 14.7764 11.0407C14.7995 10.9241 14.8282 10.8091 14.8632 10.6956C14.915 10.5302 14.9079 10.5502 14.9899 10.4C15.2059 10.007 15.5525 9.66506 15.9963 9.45975C16.3891 9.27841 16.8553 9.1418 17.2983 9.141C17.2521 9.71699 17.5915 10.1508 18.1246 10.3537C17.9557 10.2898 18.2011 10.3968 18.2513 10.4224C18.3015 10.448 18.3517 10.4727 18.4003 10.5015C18.4146 10.5095 18.4784 10.5534 18.5158 10.5774C18.5366 10.5958 18.5589 10.6149 18.5613 10.6173C18.5995 10.6589 18.6401 10.6988 18.6792 10.7411C18.68 10.7419 18.6808 10.7427 18.6816 10.7435C18.7174 10.7995 18.7501 10.857 18.786 10.9129C18.8083 10.9489 18.8218 10.9656 18.8298 10.9728C18.8306 10.9848 18.8338 11.0056 18.8417 11.0399C18.8585 11.1134 18.8808 11.1829 18.8959 11.2572C18.8959 11.2644 18.8967 11.2716 18.8975 11.2804C18.9015 11.3467 18.9007 11.4122 18.9023 11.4785C18.9023 11.4761 18.8999 11.5384 18.8991 11.5784C18.8935 11.6167 18.8856 11.6758 18.8856 11.6758C18.8664 11.7629 18.8425 11.8476 18.8186 11.9331L18.817 11.9347Z" fill="#F8F9FA"/>
<path d="M33.3726 33.0412C33.1559 32.0458 32.3973 31.2573 31.567 30.7236C30.724 30.1812 29.7065 29.8489 28.7248 29.6723C27.6124 29.4726 26.3455 29.336 25.2706 29.7498C24.214 30.1572 24.3662 31.6511 25.5383 31.7358C26.2953 31.7909 27.1519 31.7095 27.8459 31.8069C28.5606 31.9068 29.3686 32.1345 29.9128 32.4053C30.069 32.4828 30.222 32.5683 30.3694 32.6617C30.4347 32.7033 30.4993 32.7464 30.5622 32.7911C30.5232 32.764 30.43 32.6721 30.6053 32.8247C30.72 32.9245 30.826 33.0292 30.9304 33.1402C31.0857 33.3064 30.9853 33.2129 30.9583 33.1714C31.0116 33.2513 31.0594 33.332 31.1041 33.4167C31.077 33.3751 31.1383 33.5485 31.1694 33.6467C31.1519 33.6451 31.1551 33.9327 31.175 33.8608C31.1248 34.1396 30.9845 34.4001 30.8602 34.5487C30.4626 35.0232 29.7877 35.3699 29.2586 35.5856C28.465 35.9084 27.6475 36.1728 26.8204 36.3933C25.2156 36.8199 23.6005 37.0723 21.9798 37.2425C18.4053 37.6179 14.8037 37.7074 11.2132 37.566C9.66343 37.5053 8.29052 37.4142 6.83713 37.0571C5.49769 36.728 4.12 36.2231 3.15745 35.2876C2.69211 34.8347 2.25944 34.2778 2.37578 33.6028C2.46821 33.066 2.93674 32.5475 3.41323 32.2327C4.10088 31.779 4.89291 31.5129 5.6953 31.3484C6.62678 31.1574 7.57578 31.2341 8.50646 31.0648C8.86263 31.0001 8.91203 30.4568 8.60686 30.2947C7.74869 29.8393 6.74789 29.8433 5.79889 29.9567C4.87458 30.067 3.97419 30.2923 3.12797 30.6853C1.56462 31.4115 0.299285 32.8511 0.598887 34.6717C0.888927 36.4332 2.5208 37.6867 4.0196 38.4312C5.6706 39.2516 7.51522 39.5664 9.33355 39.7422C13.3272 40.1272 17.4069 39.9962 21.3941 39.6095C23.3503 39.4194 25.3112 39.1574 27.218 38.6661C28.1614 38.4224 29.0905 38.1212 29.9917 37.7482C30.881 37.3791 31.779 36.9469 32.4347 36.2159C33.2164 35.3451 33.6284 34.2075 33.3742 33.0412H33.3726Z" fill="#F8F9FA"/>
</svg>
