<?xml version="1.0" standalone="no"?>
<!DOCTYPE svg PUBLIC "-//W3C//DTD SVG 20010904//EN"
 "http://www.w3.org/TR/2001/REC-SVG-20010904/DTD/svg10.dtd">
<svg version="1.0" xmlns="http://www.w3.org/2000/svg"
 width="693.000000pt" height="259.000000pt" viewBox="0 0 693.000000 259.000000"
 preserveAspectRatio="xMidYMid meet">

<g transform="translate(0.000000,259.000000) scale(0.100000,-0.100000)"
fill="#000000" stroke="none">
<path d="M2170 2481 c-5 -11 -10 -34 -10 -51 0 -47 -22 -170 -30 -170 -4 0
-13 7 -20 15 -16 19 -73 19 -109 0 -94 -48 -169 -230 -125 -303 34 -59 95 -65
153 -16 22 18 31 21 31 11 0 -7 9 -22 20 -32 18 -16 22 -17 34 -4 29 29 112
347 123 470 5 48 2 60 -16 78 -26 26 -37 26 -51 2z m-75 -305 c8 -34 6 -45
-16 -84 -28 -51 -100 -108 -123 -99 -24 9 -20 64 9 124 49 107 111 135 130 59z"/>
<path d="M274 2436 c-11 -8 -43 -73 -74 -150 -52 -127 -57 -136 -92 -152 -43
-19 -48 -35 -17 -56 l22 -14 -22 -42 c-24 -47 -21 -76 10 -93 26 -13 34 -3 73
91 l28 70 62 18 61 18 7 -40 c3 -23 7 -60 7 -82 1 -26 8 -51 21 -65 20 -24 20
-24 35 -5 11 15 15 46 15 116 l0 96 30 11 c36 13 41 43 8 43 -38 0 -43 11 -60
108 -9 51 -24 104 -32 118 -18 27 -51 31 -82 10z m44 -241 c-2 -2 -22 -7 -45
-11 l-41 -6 37 93 36 93 9 -82 c4 -46 6 -85 4 -87z"/>
<path d="M1053 2429 c-39 -11 -79 -58 -93 -107 -35 -131 -81 -338 -78 -360 4
-37 33 -52 52 -27 20 27 51 128 81 264 14 63 32 125 40 137 23 35 53 40 81 13
43 -40 28 -78 -50 -132 -14 -10 -26 -23 -26 -29 0 -6 23 -32 50 -59 56 -54 63
-86 28 -119 -16 -14 -35 -20 -69 -20 -53 0 -65 -10 -50 -39 25 -46 132 -32
188 24 27 27 33 41 33 75 0 35 -7 48 -44 88 l-44 46 44 41 c51 48 58 88 24
143 -37 61 -94 82 -167 61z"/>
<path d="M3558 2429 c-26 -15 -22 -54 8 -78 31 -24 47 -26 63 -7 13 16 2 54
-24 79 -19 20 -24 20 -47 6z"/>
<path d="M5936 2424 c-22 -22 -20 -41 9 -69 26 -26 41 -30 64 -16 18 11 8 54
-19 81 -24 24 -34 25 -54 4z"/>
<path d="M4114 2338 l-9 -62 -47 -14 c-27 -7 -48 -19 -48 -26 0 -20 22 -36 51
-36 l27 0 -29 -90 c-40 -124 -38 -150 12 -175 38 -20 65 -19 117 6 41 20 73
61 59 76 -4 3 -34 -2 -67 -12 -33 -10 -63 -16 -66 -12 -3 3 9 55 26 115 l32
109 53 12 c51 11 85 34 68 44 -4 2 -29 8 -56 11 l-47 7 6 38 c5 33 3 41 -17
55 -44 30 -55 22 -65 -46z"/>
<path d="M587 2272 c-36 -40 -87 -185 -87 -251 0 -25 9 -42 35 -68 30 -30 40
-35 67 -29 18 4 47 21 65 38 l33 32 0 -32 c0 -37 24 -53 45 -31 17 17 95 271
95 308 0 32 -16 51 -45 51 -17 0 -25 -14 -45 -72 -38 -112 -131 -241 -160
-223 -19 12 -7 71 35 173 30 75 35 95 25 107 -17 20 -43 19 -63 -3z"/>
<path d="M1425 2278 c-77 -42 -135 -138 -135 -224 0 -50 3 -59 33 -89 40 -40
92 -53 147 -36 45 13 90 47 90 67 0 18 -15 18 -86 -1 -76 -20 -108 -6 -112 48
l-3 37 75 0 c116 0 166 29 166 96 0 29 -8 44 -39 75 -32 32 -46 39 -77 39 -22
0 -48 -6 -59 -12z m102 -112 c-6 -19 -50 -36 -94 -36 -24 0 -43 4 -43 9 0 16
52 72 74 81 16 7 26 3 44 -17 13 -14 21 -30 19 -37z"/>
<path d="M1670 2228 c0 -35 -7 -94 -16 -133 -25 -108 -27 -123 -20 -150 8 -30
41 -34 56 -5 6 10 24 58 40 106 36 108 67 156 120 185 55 31 55 59 -1 59 -35
0 -47 -6 -75 -36 -28 -29 -34 -32 -34 -16 0 23 -30 52 -53 52 -14 0 -17 -11
-17 -62z"/>
<path d="M2365 2278 c-77 -42 -135 -138 -135 -224 0 -50 3 -59 33 -89 40 -40
92 -53 147 -36 45 13 90 47 90 67 0 18 -15 18 -86 -1 -76 -20 -108 -6 -112 48
l-3 37 75 0 c116 0 166 29 166 96 0 29 -8 44 -39 75 -32 32 -46 39 -77 39 -22
0 -48 -6 -59 -12z m102 -112 c-6 -19 -50 -36 -94 -36 -24 0 -43 4 -43 9 0 16
52 72 74 81 16 7 26 3 44 -17 13 -14 21 -30 19 -37z"/>
<path d="M2616 2258 c-3 -18 -8 -57 -11 -86 -3 -29 -15 -81 -25 -115 -25 -79
-25 -99 1 -123 30 -27 43 -14 134 129 95 149 102 158 115 137 12 -19 3 -76
-25 -168 -22 -68 -22 -74 -6 -93 24 -30 44 -16 82 54 42 80 111 189 131 205
33 27 30 -44 -6 -163 -31 -98 -14 -144 33 -94 42 45 84 227 67 292 -21 85
-108 74 -164 -22 l-27 -46 -6 38 c-8 49 -44 87 -82 87 -37 0 -78 -42 -125
-126 -19 -32 -31 -50 -27 -39 4 11 9 46 12 77 6 65 -5 88 -43 88 -18 0 -24 -7
-28 -32z"/>
<path d="M3523 2278 c-5 -7 -27 -84 -47 -172 -35 -146 -37 -159 -22 -174 36
-36 65 19 116 221 18 70 20 93 12 113 -12 26 -43 32 -59 12z"/>
<path d="M3677 2283 c-3 -5 -8 -39 -12 -78 -4 -38 -18 -107 -31 -153 -25 -87
-23 -113 12 -126 24 -9 43 12 115 126 68 109 105 158 120 158 17 0 9 -74 -16
-155 -35 -114 -32 -150 13 -126 35 19 92 177 92 258 0 76 -63 124 -121 92 -11
-6 -43 -44 -70 -86 -27 -42 -49 -71 -49 -66 0 5 5 35 11 66 11 51 10 60 -6 77
-18 20 -50 27 -58 13z"/>
<path d="M4415 2271 c-103 -62 -160 -224 -103 -296 24 -31 74 -55 115 -55 37
0 128 43 136 64 10 26 -16 30 -83 12 -72 -18 -106 -9 -116 29 -12 48 -1 55 83
55 131 0 184 51 142 137 -34 70 -110 94 -174 54z m111 -83 c10 -31 -27 -58
-80 -58 -53 0 -59 6 -38 38 39 60 101 71 118 20z"/>
<path d="M4670 2217 c0 -41 -9 -108 -20 -152 -24 -94 -25 -118 -4 -136 27 -22
45 1 81 105 42 120 68 161 128 198 50 31 54 51 11 56 -38 5 -82 -15 -102 -46
l-17 -26 -11 35 c-9 26 -17 35 -38 37 l-28 3 0 -74z"/>
<path d="M4968 2257 c-54 -42 -108 -141 -108 -200 0 -75 60 -137 132 -137 69
0 166 56 141 81 -9 9 -25 8 -72 -3 -33 -9 -72 -13 -86 -10 -29 5 -47 38 -38
71 5 19 12 21 82 21 58 0 84 5 108 20 64 39 67 96 7 156 -48 47 -104 48 -166
1z m130 -79 c2 -18 -4 -27 -23 -36 -32 -15 -105 -16 -105 -2 0 20 33 61 59 75
33 17 64 0 69 -37z"/>
<path d="M5345 2269 c-59 -31 -95 -69 -95 -99 0 -27 23 -53 93 -104 27 -20 37
-34 35 -49 -3 -19 -11 -22 -51 -25 -33 -2 -57 2 -73 13 -28 18 -65 17 -71 -2
-7 -19 46 -62 90 -74 61 -16 123 -3 164 35 31 28 35 37 29 61 -7 27 -22 43
-105 113 l-34 29 21 21 c29 29 68 37 97 22 24 -13 55 -8 55 9 0 5 -12 23 -26
40 -31 38 -71 41 -129 10z"/>
<path d="M5640 2258 c-102 -61 -103 -106 -5 -178 43 -32 55 -47 53 -63 -3 -19
-10 -22 -51 -25 -32 -2 -57 2 -73 12 -51 34 -90 3 -46 -37 48 -44 127 -58 186
-33 101 42 99 116 -6 182 -49 31 -56 50 -30 77 22 21 63 26 115 12 23 -6 27
-4 27 12 0 11 -11 32 -25 47 -33 36 -77 34 -145 -6z"/>
<path d="M5905 2280 c-4 -6 -24 -82 -45 -168 -38 -158 -39 -192 -5 -192 21 0
40 35 68 125 39 124 53 203 41 223 -13 20 -49 28 -59 12z"/>
<path d="M6110 2265 c-50 -36 -98 -112 -112 -176 -10 -50 -9 -60 8 -94 28 -53
76 -78 137 -71 52 6 103 30 121 58 17 28 -1 32 -71 15 -87 -21 -117 -10 -121
46 l-3 37 76 0 c158 0 215 82 120 177 -43 43 -102 46 -155 8z m109 -61 c23
-30 18 -52 -16 -65 -34 -13 -103 -11 -103 2 0 14 74 89 88 89 6 0 20 -12 31
-26z"/>
<path d="M6380 2228 c0 -35 -7 -94 -16 -133 -25 -108 -27 -123 -20 -150 8 -30
41 -34 56 -5 6 10 24 58 40 106 36 108 67 156 120 185 55 31 55 59 -1 59 -35
0 -47 -6 -75 -36 -28 -29 -34 -32 -34 -16 0 23 -30 52 -53 52 -14 0 -17 -11
-17 -62z"/>
<path d="M6695 2271 c-103 -62 -160 -224 -103 -296 24 -31 74 -55 115 -55 37
0 128 43 136 64 10 26 -16 30 -83 12 -72 -18 -106 -9 -116 29 -12 48 -1 55 83
55 131 0 184 51 142 137 -34 70 -110 94 -174 54z m111 -83 c10 -31 -27 -58
-80 -58 -53 0 -59 6 -38 38 39 60 101 71 118 20z"/>
<path d="M710 681 c-5 -11 -10 -35 -10 -53 0 -48 -27 -194 -61 -335 -24 -102
-27 -126 -17 -143 14 -23 35 -33 50 -24 5 4 39 52 75 108 63 98 118 166 135
166 15 0 8 -66 -17 -143 -14 -43 -25 -89 -25 -103 0 -32 25 -41 50 -19 37 33
96 231 84 280 -9 36 -49 75 -79 75 -35 0 -104 -66 -144 -137 -18 -32 -30 -49
-27 -38 3 11 12 49 22 85 26 102 43 232 33 256 -7 20 -37 44 -53 44 -3 0 -10
-9 -16 -19z"/>
<path d="M2486 688 c-2 -7 -11 -65 -20 -128 -9 -63 -28 -164 -42 -225 -38
-158 -39 -173 -19 -195 10 -11 24 -20 31 -20 7 0 51 57 97 128 92 140 111 162
129 144 13 -13 7 -43 -33 -174 -17 -57 -20 -81 -12 -89 33 -33 84 41 117 167
22 87 20 121 -10 161 -49 65 -115 33 -188 -91 -21 -36 -39 -66 -40 -66 -1 0
11 50 26 112 16 61 31 141 34 177 5 58 3 69 -15 89 -24 24 -50 29 -55 10z"/>
<path d="M3262 674 c-32 -22 -59 -81 -73 -159 -7 -37 -18 -69 -23 -70 -6 -2
-22 -6 -36 -9 -48 -11 -57 -22 -35 -46 13 -14 28 -20 42 -17 13 2 23 4 23 3 0
0 -13 -49 -29 -108 -26 -95 -27 -109 -14 -127 35 -50 53 -22 98 147 25 93 30
103 54 108 69 15 92 26 89 42 -2 12 -16 18 -43 20 -22 2 -43 6 -47 10 -11 11
21 125 42 146 18 19 19 18 37 -20 21 -45 57 -58 66 -24 8 31 -11 87 -36 105
-28 19 -86 19 -115 -1z"/>
<path d="M158 507 c-15 -72 -37 -178 -49 -234 -22 -100 -22 -103 -4 -123 25
-27 44 -25 56 7 5 15 31 114 56 221 44 188 45 195 30 228 -12 24 -23 34 -39
34 -21 0 -25 -9 -50 -133z"/>
<path d="M1996 618 c-17 -23 -11 -41 22 -71 48 -43 83 14 42 66 -26 33 -44 34
-64 5z"/>
<path d="M3480 610 c-9 -17 -6 -25 19 -50 34 -34 43 -36 61 -15 11 13 10 22
-3 50 -20 41 -59 48 -77 15z"/>
<path d="M3590 609 c-9 -17 -8 -25 7 -41 31 -34 53 -42 71 -24 14 14 14 19 -1
51 -20 41 -59 49 -77 14z"/>
<path d="M435 472 c-103 -63 -171 -217 -127 -288 20 -32 75 -64 110 -64 52 0
152 56 152 86 0 18 -28 18 -73 -1 -124 -52 -161 35 -67 154 41 52 82 73 103
52 6 -6 21 -11 34 -11 31 0 30 29 -2 64 -29 32 -85 35 -130 8z"/>
<path d="M1356 458 c-3 -18 -8 -57 -11 -86 -3 -29 -15 -81 -25 -115 -25 -79
-25 -99 1 -123 30 -27 43 -14 134 129 95 149 102 158 115 137 12 -19 3 -76
-25 -168 -22 -68 -22 -74 -6 -93 24 -30 44 -16 82 54 42 80 111 189 131 205
33 27 30 -44 -6 -163 -31 -98 -14 -144 33 -94 42 45 84 227 67 292 -21 85
-108 74 -164 -22 l-27 -46 -6 38 c-8 49 -44 87 -82 87 -37 0 -78 -42 -125
-126 -19 -32 -31 -50 -27 -39 4 11 9 46 12 77 6 65 -5 88 -43 88 -18 0 -24 -7
-28 -32z"/>
<path d="M1961 453 c-31 -112 -71 -278 -71 -293 0 -10 6 -23 14 -29 36 -30 61
19 111 212 27 104 27 108 10 127 -29 32 -53 25 -64 -17z"/>
<path d="M2212 473 c-68 -33 -141 -152 -142 -229 0 -75 68 -132 144 -120 47 8
121 48 129 70 10 26 -13 29 -73 11 -70 -21 -107 -15 -116 20 -10 38 14 91 66
148 47 51 48 52 82 39 49 -17 58 -15 58 12 0 32 -44 66 -84 66 -17 0 -46 -8
-64 -17z"/>
<path d="M3417 448 c-38 -64 -67 -161 -67 -218 0 -44 5 -56 29 -81 16 -16 39
-29 51 -29 30 0 75 25 100 57 l22 28 -7 -25 c-7 -31 16 -66 38 -57 10 4 31 55
56 135 55 174 57 188 36 212 -33 36 -52 25 -75 -44 -35 -106 -122 -236 -158
-236 -22 0 -10 83 23 160 15 36 28 81 29 100 1 31 -2 35 -26 38 -22 3 -31 -4
-51 -40z"/>
<path d="M3756 482 c-2 -4 -5 -43 -5 -85 0 -48 -8 -105 -21 -153 -23 -80 -18
-124 13 -124 24 0 43 33 78 135 34 100 63 142 132 188 41 27 35 47 -14 47 -33
0 -47 -6 -73 -32 l-32 -33 -15 30 c-14 29 -51 46 -63 27z"/>
</g>
</svg>
