<?xml version="1.0" encoding="UTF-8" standalone="no"?>
<svg
   viewBox="0 0 140 140"
   version="1.1"
   id="svg1"
   sodipodi:docname="Prometheus.svg"
   width="140"
   height="140"
   inkscape:version="1.4 (86a8ad7, 2024-10-11)"
   xmlns:inkscape="http://www.inkscape.org/namespaces/inkscape"
   xmlns:sodipodi="http://sodipodi.sourceforge.net/DTD/sodipodi-0.dtd"
   xmlns="http://www.w3.org/2000/svg"
   xmlns:svg="http://www.w3.org/2000/svg">
  <defs
     id="defs1" />
  <sodipodi:namedview
     id="namedview1"
     pagecolor="#ffffff"
     bordercolor="#000000"
     borderopacity="0.25"
     inkscape:showpageshadow="2"
     inkscape:pageopacity="0.0"
     inkscape:pagecheckerboard="0"
     inkscape:deskcolor="#d1d1d1"
     inkscape:zoom="7.1594562"
     inkscape:cx="57.685946"
     inkscape:cy="66.415659"
     inkscape:window-width="2560"
     inkscape:window-height="1377"
     inkscape:window-x="1432"
     inkscape:window-y="457"
     inkscape:window-maximized="1"
     inkscape:current-layer="svg1" />
  <ellipse
     style="display:inline;fill:#ffffff;fill-opacity:1;stroke-width:15.7427;paint-order:stroke fill markers"
     id="path1"
     cx="69.777412"
     cy="70.326569"
     rx="68.660004"
     ry="68.650467" />
  <path
     d="m 70.23731,9.1740346 c 33.477,0.007 60.957,27.2959984 60.914,60.4999984 -0.043,33.703007 -27.41,60.617007 -61.613,60.593007 C 36.097307,130.24404 9.0613068,102.92404 9.0853068,69.181033 9.1073068,36.185033 36.643307,9.1670346 70.23731,9.1740346 Z M 51.733311,30.424033 c 0.766,3.777 0.024,7.3 -1.113,10.765 -0.785,2.399 -1.871,4.711 -2.52,7.145 -1.07,4.008 -2.280004,8.039 -2.726004,12.136 -0.64,5.895 1.676004,11.086 5.640004,16.25 l -18.222004,-3.835 c 0.031,0.574 0,0.792 0.062,0.976 1.727,5.074 4.766,9.348 8.172,13.379 0.36,0.426 1.18,0.644 1.79,0.644 18.167003,0.036 36.335004,0.032 54.503007,0.008 0.563,0 1.317,-0.105 1.66,-0.468 3.894996,-4.094 6.870996,-8.758 8.734996,-14.63 l -19.289999,3.778 c 1.274,-2.496 2.723,-4.688 3.56,-7.098 2.855,-8.242 1.671,-16.21 -2.427,-23.726 -3.289,-6.031 -6.324,-12.035 -4.683,-19.305 -3.473,3.434 -4.809,7.8 -5.656,12.3 -0.832,4.434 -1.325,8.93 -1.97,13.43 -0.093,-0.136 -0.21,-0.238 -0.23,-0.355 a 13.317,13.317 0 0 1 -0.168,-1.422 c -0.394,-7.367 -1.832001,-14.465 -4.870001,-21.246 -1.786,-3.988 -3.758,-8.07 -1.915,-12.831999 -1.246,0.66 -2.375,1.313 -3.183,2.245999 -2.41,2.785 -3.407,6.13 -3.664,9.793 -0.22,3.13 -0.52,6.274 -1.102,9.352 -0.61,3.234 -1.574,6.402 -3.75,9.375 -0.875,-6.348 -0.973,-12.63 -6.632999,-16.66 z m 46.844003,63.023 H 41.593307 v 9.898007 H 98.577314 Z M 52.893311,108.46304 c -0.046,8.242 8.347999,14.382 18.722999,13.937 8.602001,-0.371 16.211001,-7.137 15.559001,-13.937 z m 0,0"
     fill="#e75225"
     id="path1-8" />
</svg>
