<?xml version="1.0" standalone="no"?>
<!DOCTYPE svg PUBLIC "-//W3C//DTD SVG 20010904//EN"
 "http://www.w3.org/TR/2001/REC-SVG-20010904/DTD/svg10.dtd">
<svg version="1.0" xmlns="http://www.w3.org/2000/svg"
 width="75.000000pt" height="60.000000pt" viewBox="0 0 75.000000 60.000000"
 preserveAspectRatio="xMidYMid meet">

<g transform="translate(0.000000,375.000000) scale(0.100000,-0.100000)"
fill="#000000" stroke="none">
<path d="M0 1875 l0 -1875 1500 0 1500 0 0 1875 0 1875 -1500 0 -1500 0 0
-1875z m995 1810 c33 -3 69 -10 80 -15 11 -5 41 -11 67 -13 33 -3 59 -14 86
-36 22 -17 52 -31 66 -31 18 0 46 -20 99 -72 41 -40 82 -84 91 -98 l16 -24 16
24 c9 14 50 58 91 98 52 51 81 72 99 72 14 0 42 14 63 31 39 31 53 34 226 61
111 17 285 18 324 2 18 -8 48 -14 65 -14 17 0 40 -6 51 -14 11 -7 46 -16 78
-20 39 -5 67 -15 86 -32 19 -16 41 -24 66 -24 33 0 46 -8 90 -52 l52 -53 7
-114 c5 -76 4 -117 -3 -124 -6 -6 -11 -30 -11 -53 0 -27 -8 -53 -25 -78 -14
-21 -25 -51 -25 -71 0 -20 -9 -44 -23 -62 -13 -15 -29 -43 -35 -62 -17 -48
-170 -221 -236 -265 l-28 -18 80 -82 c116 -119 171 -244 172 -389 l0 -58 85
-89 c139 -147 180 -250 173 -439 -5 -129 -23 -189 -80 -275 -18 -27 -38 -58
-45 -70 -13 -23 -72 -214 -98 -315 -9 -36 -28 -87 -42 -115 -58 -117 -207
-267 -323 -326 -30 -15 -98 -57 -151 -92 -53 -36 -128 -78 -165 -93 -38 -16
-98 -53 -133 -81 -131 -108 -232 -144 -401 -144 -169 0 -270 36 -401 144 -35
28 -95 65 -133 81 -37 15 -112 57 -165 93 -53 35 -121 77 -151 92 -30 15 -86
55 -125 87 -127 107 -207 225 -240 354 -26 101 -85 292 -98 315 -7 12 -27 43
-45 70 -57 86 -75 146 -80 275 -7 189 34 292 173 439 l85 89 0 58 c1 145 56
270 172 389 l80 82 -28 18 c-66 44 -219 217 -236 265 -6 19 -22 47 -35 62 -14
18 -23 42 -23 62 0 20 -11 50 -25 71 -17 25 -25 51 -25 78 0 23 -5 47 -11 53
-7 7 -9 47 -4 124 l8 114 52 53 c44 44 57 52 90 52 25 0 47 8 66 24 19 17 47
27 86 32 32 4 67 13 78 20 11 8 34 14 51 14 17 0 46 6 64 14 33 13 181 14 315
1z"/>
<path d="M701 3545 c-18 -8 -48 -15 -66 -15 -18 0 -44 -9 -59 -21 -14 -11 -34
-18 -43 -15 -28 8 -93 -10 -117 -33 -13 -13 -36 -21 -55 -21 l-34 0 7 -49 c4
-30 2 -52 -4 -56 -15 -9 -12 -67 5 -90 10 -12 13 -30 9 -50 -4 -22 1 -40 20
-68 15 -22 26 -52 26 -72 0 -21 9 -44 24 -62 14 -16 28 -41 31 -55 4 -14 26
-45 51 -69 24 -24 44 -49 44 -55 0 -7 10 -16 23 -19 12 -4 40 -24 62 -45 22
-21 59 -55 83 -76 23 -20 42 -42 42 -49 0 -14 -64 -72 -139 -128 -81 -59 -151
-225 -151 -357 0 -67 -14 -92 -98 -171 -117 -110 -167 -235 -160 -398 5 -107
27 -176 80 -255 18 -27 38 -58 45 -70 13 -23 72 -214 98 -315 37 -143 125
-260 241 -319 32 -16 102 -59 155 -94 53 -36 128 -78 165 -93 38 -16 98 -53
133 -81 125 -103 234 -144 381 -144 147 0 256 41 381 144 35 28 95 65 133 81
37 15 112 57 165 93 53 35 123 78 155 94 116 59 204 176 241 319 26 101 85
292 98 315 7 12 27 43 45 70 53 79 75 148 80 255 7 163 -43 288 -160 398 -84
79 -98 104 -98 171 0 132 -70 298 -151 357 -75 56 -139 114 -139 128 0 7 19
29 43 49 23 21 60 55 82 76 22 21 50 41 63 45 12 3 22 12 22 19 0 6 20 31 44
55 25 24 47 55 51 69 3 14 17 39 31 55 15 18 24 41 24 62 0 20 11 50 26 72 19
28 24 46 20 68 -4 20 0 39 10 53 11 16 14 33 9 55 -4 18 -6 56 -6 85 l1 52
-32 0 c-18 0 -41 9 -54 21 -24 23 -89 41 -117 33 -9 -3 -29 4 -43 15 -15 12
-41 21 -59 21 -18 0 -48 7 -67 15 -27 11 -44 12 -73 4 -28 -8 -44 -8 -61 2
-15 7 -36 9 -61 4 -21 -4 -65 -10 -99 -14 -34 -3 -67 -11 -75 -18 -8 -6 -33
-10 -56 -10 -33 1 -50 -5 -82 -31 -22 -17 -51 -32 -64 -32 -33 0 -81 -56 -123
-143 -36 -76 -78 -127 -104 -127 -26 0 -68 51 -104 127 -46 95 -89 143 -129
143 -21 0 -41 10 -64 32 -27 26 -41 31 -81 32 -27 1 -55 6 -63 13 -8 6 -41 13
-74 16 -33 3 -77 9 -98 12 -24 5 -43 3 -52 -5 -13 -11 -29 -10 -85 5 -8 2 -30
-2 -49 -10z m166 -60 c20 -14 27 -15 34 -4 4 7 3 21 -2 31 -10 18 -8 18 29 -1
21 -11 44 -27 51 -35 19 -23 38 -20 48 9 l8 25 43 -41 c43 -42 57 -43 64 -5 2
17 11 11 52 -32 27 -29 53 -52 57 -52 4 0 11 10 15 22 6 20 8 19 40 -18 18
-21 50 -72 70 -112 42 -81 55 -164 35 -225 -13 -38 -71 -97 -96 -97 -8 0 -41
20 -73 44 -127 97 -329 206 -509 275 -117 44 -122 38 -16 -19 211 -113 417
-254 501 -343 l34 -35 -18 -38 c-49 -104 -191 -174 -352 -174 -39 0 -43 2 -31
16 17 21 -2 34 -51 34 -19 0 -53 5 -74 11 -33 9 -37 13 -23 21 27 14 20 24
-25 38 -24 6 -59 21 -78 31 -33 17 -34 18 -9 19 48 0 39 13 -38 59 -57 33 -73
46 -58 49 46 8 47 12 9 42 -22 16 -50 38 -64 49 l-25 21 26 0 c43 0 41 11 -14
64 l-52 50 33 4 c17 2 32 8 32 13 0 5 -21 30 -47 56 l-48 47 38 6 38 5 -28 57
c-29 56 -29 57 -9 62 12 3 45 6 74 6 48 0 66 10 42 25 -19 12 -10 25 18 25 15
0 51 -6 81 -14 45 -11 53 -11 58 0 3 8 0 21 -7 29 -15 19 -9 19 60 0 30 -8 58
-15 63 -15 13 0 8 23 -10 42 -15 17 -14 17 31 4 26 -8 59 -22 73 -31z m1238
25 c-11 -34 3 -41 43 -21 20 10 54 24 76 29 36 10 37 10 22 -7 -17 -18 -21
-41 -8 -41 4 0 29 7 56 15 68 21 79 20 64 -5 -7 -10 -9 -22 -6 -25 3 -4 40 -1
82 6 82 14 99 9 72 -20 -16 -18 -15 -19 53 -23 38 -2 73 -6 76 -10 3 -3 -3
-21 -14 -39 -10 -19 -22 -44 -26 -56 -6 -20 -3 -23 24 -23 17 0 31 -4 31 -10
0 -5 -20 -29 -44 -52 -25 -23 -43 -45 -40 -50 3 -4 19 -8 37 -8 l31 0 -52 -53
c-52 -53 -56 -67 -19 -67 19 0 19 -1 -4 -26 -13 -14 -38 -34 -56 -45 -37 -23
-35 -39 4 -39 l26 0 -24 -19 c-13 -10 -48 -30 -77 -45 -52 -26 -61 -46 -21
-46 36 0 10 -18 -59 -41 -81 -26 -82 -27 -59 -44 25 -18 8 -26 -69 -33 -68 -5
-83 -14 -64 -37 29 -35 -177 -8 -259 34 -58 30 -95 65 -122 116 l-24 47 75 70
c84 80 251 193 423 287 64 36 115 67 113 69 -8 7 -240 -89 -336 -140 -87 -46
-248 -148 -311 -197 l-26 -20 -36 30 c-52 42 -70 82 -69 150 1 67 21 122 77
209 47 74 75 102 75 77 0 -36 25 -27 76 29 50 56 53 57 54 32 0 -42 14 -41 61
4 42 40 44 41 49 18 8 -35 20 -34 74 5 58 41 59 41 51 15z"/>
</g>
</svg>
