<svg width="44" height="62" viewBox="0 0 44 62" fill="none" xmlns="http://www.w3.org/2000/svg">
<path d="M21.9934 23.0562C23.9615 23.0562 25.557 21.46 25.557 19.491C25.557 17.522 23.9615 15.9258 21.9934 15.9258C20.0252 15.9258 18.4297 17.522 18.4297 19.491C18.4297 21.46 20.0252 23.0562 21.9934 23.0562Z" fill="#F8F9FA"/>
<path d="M41.9826 19.4915C41.9826 16.6915 38.6971 14.2567 33.5863 12.7959C34.8727 7.63065 34.4207 3.56109 31.987 2.16978C29.5532 0.761088 25.8157 2.41326 21.9913 6.10022C18.1669 2.39587 14.4294 0.761088 11.9957 2.16978C9.97914 3.335 9.23164 6.29152 9.9096 10.5002C10.0313 11.248 10.2051 12.0133 10.3963 12.8133C5.28553 14.2741 2 16.7089 2 19.5089C2 22.3089 5.28553 24.7263 10.3963 26.2046C10.2051 26.9872 10.0313 27.7698 9.9096 28.5176C9.23164 32.7263 9.97914 35.6828 11.9957 36.848C12.5867 37.1959 13.2647 37.3698 14.0122 37.3698C15.7853 37.3698 17.9235 36.3959 20.2529 34.5002C20.8266 34.0307 21.4176 33.4915 21.9913 32.935C22.565 33.4915 23.156 34.0307 23.7297 34.5002C26.0591 36.3959 28.1973 37.3698 29.9704 37.3698C30.7179 37.3698 31.3959 37.1959 31.987 36.848C34.0035 35.6828 34.751 32.7263 34.0904 28.5176C33.9687 27.7698 33.7949 27.0046 33.6037 26.2046C38.7145 24.7437 42 22.3089 42 19.5089L41.9826 19.4915ZM31.1178 3.66544C32.6823 4.56978 33.03 7.87413 31.9 12.3611C30.266 11.9785 28.4754 11.7002 26.5806 11.5263C25.4854 9.97848 24.3381 8.56978 23.2082 7.335C25.8505 4.77848 28.3016 3.38718 29.9878 3.38718C30.4224 3.38718 30.8049 3.47413 31.1352 3.66544H31.1178ZM27.5715 22.7089C26.9457 23.7698 26.3025 24.8133 25.6419 25.7872C24.4772 25.8741 23.2603 25.9263 22.0087 25.9263C20.7571 25.9263 19.5402 25.8741 18.3755 25.7872C17.7149 24.8133 17.0543 23.7698 16.4459 22.7089C15.8201 21.6307 15.2638 20.5698 14.7423 19.4915C15.2638 18.4133 15.8201 17.3524 16.4459 16.2741C17.0717 15.1785 17.7323 14.1524 18.3755 13.1959C19.5402 13.1089 20.7571 13.0567 22.0087 13.0567C23.2603 13.0567 24.4772 13.1089 25.6419 13.1959C26.3025 14.1524 26.9457 15.1785 27.5715 16.2741C28.1799 17.335 28.7536 18.4133 29.2751 19.4915C28.771 20.5524 28.2147 21.6133 27.5715 22.7089ZM30.1791 21.5263C30.6658 22.6915 31.083 23.822 31.4307 24.935C30.3181 25.1785 29.1186 25.4046 27.8496 25.5611C28.2668 24.9176 28.6667 24.2567 29.0665 23.5785C29.4663 22.9002 29.8314 22.2046 30.1791 21.5263ZM21.9913 30.3959C21.209 29.5437 20.4268 28.6046 19.6619 27.5959C20.4268 27.6307 21.1917 27.648 21.9913 27.648C22.791 27.648 23.5558 27.6307 24.3207 27.5959C23.5558 28.6046 22.7736 29.5263 21.9913 30.3959ZM16.133 25.5611C14.864 25.4046 13.6645 25.1959 12.5519 24.935C12.8996 23.822 13.3168 22.6915 13.8036 21.5263C14.1512 22.2046 14.5163 22.9002 14.9161 23.5785C15.3159 24.2567 15.7158 24.9176 16.133 25.5611ZM13.8036 17.4393C13.3168 16.2741 12.8996 15.1437 12.5519 14.0307C13.6645 13.7872 14.864 13.5611 16.133 13.4046C15.7158 14.048 15.3159 14.7089 14.9161 15.3872C14.5163 16.0654 14.1512 16.7437 13.8036 17.4393ZM21.9913 8.56978C22.7562 9.40457 23.5385 10.3437 24.3207 11.3698C23.5558 11.335 22.791 11.3176 21.9913 11.3176C21.1917 11.3176 20.4268 11.335 19.6619 11.3698C20.4442 10.3437 21.209 9.40457 21.9913 8.56978ZM29.0665 15.4046C28.6667 14.7263 28.2668 14.0654 27.8496 13.422C29.1186 13.5785 30.3181 13.7872 31.4307 14.048C31.1004 15.1437 30.6832 16.2741 30.1791 17.4567C29.8314 16.7785 29.4489 16.0828 29.0665 15.4046ZM11.6132 10.222C11.0743 6.83065 11.5263 4.44805 12.8648 3.68283C13.1951 3.49152 13.5776 3.40457 14.0122 3.40457C15.6984 3.40457 18.1495 4.79587 20.7918 7.35239C19.6445 8.58718 18.5146 9.99587 17.4194 11.5437C15.5246 11.7176 13.734 11.9959 12.1 12.3785C11.9087 11.648 11.7523 10.9176 11.648 10.2393L11.6132 10.222ZM3.73837 19.4915C3.73837 17.6828 6.41547 15.735 10.8657 14.4654C11.3698 16.0828 12.0304 17.7698 12.8127 19.4915C12.0304 21.1959 11.3698 22.8828 10.8657 24.5176C6.43286 23.248 3.73837 21.3176 3.73837 19.4915ZM19.1578 33.1089C16.498 35.2654 14.2034 36.0654 12.8648 35.3002C11.5263 34.535 11.0743 32.135 11.6132 28.7611C11.7175 28.0654 11.8914 27.3524 12.0652 26.622C13.6993 27.0046 15.4898 27.2828 17.3846 27.4567C18.4798 28.9872 19.6097 30.4133 20.7571 31.6654C20.2182 32.1872 19.6793 32.6915 19.1404 33.1263L19.1578 33.1089ZM32.3694 28.7611C32.9083 32.1524 32.4563 34.535 31.1178 35.3002C29.7792 36.0654 27.4846 35.2654 24.8249 33.1089C24.286 32.6741 23.7471 32.1698 23.2082 31.648C24.3729 30.3959 25.5028 28.9872 26.5806 27.4567C28.4754 27.2828 30.266 27.0046 31.9 26.622C32.0913 27.3524 32.2477 28.0828 32.352 28.7611H32.3694ZM33.1169 24.5002C32.6128 22.8828 31.9522 21.1959 31.1699 19.4741C31.9696 17.735 32.6128 16.048 33.1169 14.448C37.5671 15.7176 40.2442 17.648 40.2442 19.4741C40.2442 21.3002 37.5671 23.2307 33.1169 24.5002Z" fill="#F8F9FA"/>
<path d="M1.84475 59V48.44H5.52475C6.05808 48.44 6.54342 48.4827 6.98075 48.568C7.42875 48.6533 7.82342 48.7813 8.16475 48.952C8.51675 49.1227 8.81008 49.3307 9.04475 49.576C9.29008 49.8213 9.47142 50.1093 9.58875 50.44C9.71675 50.76 9.78075 51.1173 9.78075 51.512C9.78075 51.8853 9.72208 52.2267 9.60475 52.536C9.49808 52.8453 9.33275 53.1173 9.10875 53.352C8.88475 53.5867 8.60742 53.7787 8.27675 53.928C7.94608 54.0667 7.56208 54.1627 7.12475 54.216V54.424C7.50875 54.4667 7.84475 54.568 8.13275 54.728C8.42075 54.888 8.66608 55.1227 8.86875 55.432C9.07142 55.7307 9.24742 56.1307 9.39675 56.632L10.0688 59H8.48475L7.94075 56.84C7.84475 56.4027 7.67942 56.0507 7.44475 55.784C7.22075 55.5173 6.93808 55.32 6.59675 55.192C6.25542 55.064 5.85542 55 5.39675 55H3.31675V59H1.84475ZM3.31675 53.8H5.39675C6.34608 53.8 7.06075 53.6293 7.54075 53.288C8.03142 52.9467 8.27675 52.424 8.27675 51.72C8.27675 51.016 8.04208 50.4987 7.57275 50.168C7.11408 49.8267 6.39942 49.656 5.42875 49.656H3.31675V53.8ZM15.6441 59.208C14.9935 59.208 14.4175 59.112 13.9161 58.92C13.4255 58.7173 13.0095 58.4293 12.6681 58.056C12.3268 57.6827 12.0708 57.24 11.9001 56.728C11.7295 56.216 11.6441 55.64 11.6441 55C11.6441 54.3493 11.7295 53.752 11.9001 53.208C12.0708 52.664 12.3215 52.1893 12.6521 51.784C12.9828 51.3787 13.3881 51.0693 13.8681 50.856C14.3481 50.632 14.8975 50.52 15.5161 50.52C16.0601 50.52 16.5561 50.6107 17.0041 50.792C17.4521 50.9733 17.8308 51.256 18.1401 51.64C18.4601 52.0133 18.7001 52.488 18.8601 53.064C19.0201 53.6293 19.0841 54.296 19.0521 55.064L12.5561 55.112V54.12L18.1721 54.072L17.6761 54.744C17.7295 54.072 17.6655 53.5173 17.4841 53.08C17.3028 52.6427 17.0415 52.312 16.7001 52.088C16.3695 51.864 15.9748 51.752 15.5161 51.752C15.0255 51.752 14.5935 51.88 14.2201 52.136C13.8468 52.392 13.5588 52.76 13.3561 53.24C13.1641 53.72 13.0681 54.3013 13.0681 54.984C13.0681 55.9653 13.2868 56.7173 13.7241 57.24C14.1615 57.752 14.8121 58.008 15.6761 58.008C16.0068 58.008 16.2948 57.9707 16.5401 57.896C16.7961 57.8107 17.0095 57.6987 17.1801 57.56C17.3615 57.4107 17.5055 57.24 17.6121 57.048C17.7295 56.856 17.8201 56.648 17.8841 56.424L19.1641 56.728C19.0681 57.112 18.9188 57.4587 18.7161 57.768C18.5241 58.0667 18.2788 58.3227 17.9801 58.536C17.6921 58.7493 17.3561 58.9147 16.9721 59.032C16.5881 59.1493 16.1455 59.208 15.6441 59.208ZM23.0743 59.208C22.6263 59.208 22.2209 59.1227 21.8583 58.952C21.4956 58.7707 21.2076 58.5093 20.9943 58.168C20.7809 57.816 20.6743 57.3733 20.6743 56.84C20.6743 56.4453 20.7436 56.0987 20.8823 55.8C21.0316 55.5013 21.2556 55.2453 21.5543 55.032C21.8636 54.8187 22.2582 54.6427 22.7383 54.504C23.2183 54.3653 23.8049 54.248 24.4983 54.152C24.8929 54.0987 25.2129 54.0453 25.4583 53.992C25.7143 53.9387 25.9009 53.8533 26.0183 53.736C26.1356 53.608 26.1943 53.4213 26.1943 53.176C26.1943 52.7707 26.0556 52.4293 25.7783 52.152C25.5009 51.8747 25.0636 51.736 24.4663 51.736C24.1569 51.736 23.8423 51.7893 23.5223 51.896C23.2023 52.0027 22.9196 52.184 22.6743 52.44C22.4396 52.6853 22.2903 53.032 22.2263 53.48L20.8823 53.032C20.9676 52.648 21.1063 52.3013 21.2983 51.992C21.5009 51.6827 21.7569 51.4213 22.0663 51.208C22.3756 50.984 22.7329 50.8133 23.1383 50.696C23.5543 50.5787 24.0129 50.52 24.5143 50.52C25.2076 50.52 25.7836 50.6373 26.2423 50.872C26.7116 51.1067 27.0583 51.4693 27.2823 51.96C27.5169 52.44 27.6343 53.0587 27.6343 53.816V55.656C27.6343 55.9867 27.6396 56.3493 27.6503 56.744C27.6716 57.128 27.6983 57.5173 27.7303 57.912C27.7623 58.296 27.7943 58.6587 27.8263 59H26.4823C26.4503 58.6587 26.4183 58.3173 26.3863 57.976C26.3649 57.6347 26.3489 57.2933 26.3383 56.952H26.1303C25.9703 57.3467 25.7569 57.7147 25.4903 58.056C25.2236 58.3973 24.8876 58.6747 24.4823 58.888C24.0876 59.1013 23.6183 59.208 23.0743 59.208ZM23.5063 58.024C23.7409 58.024 23.9756 57.9867 24.2103 57.912C24.4556 57.8373 24.6956 57.7147 24.9303 57.544C25.1756 57.3733 25.4049 57.1547 25.6183 56.888C25.8423 56.6213 26.0396 56.3013 26.2103 55.928V54.328L26.6263 54.408C26.4556 54.5787 26.2263 54.7067 25.9383 54.792C25.6609 54.8773 25.3516 54.9467 25.0103 55C24.6689 55.0533 24.3276 55.112 23.9863 55.176C23.6449 55.2293 23.3303 55.3147 23.0423 55.432C22.7649 55.5387 22.5409 55.6933 22.3703 55.896C22.1996 56.0987 22.1143 56.376 22.1143 56.728C22.1143 57.1547 22.2423 57.48 22.4983 57.704C22.7543 57.9173 23.0903 58.024 23.5063 58.024ZM33.6285 59.208C32.9032 59.208 32.2845 59.0907 31.7725 58.856C31.2712 58.6213 30.8605 58.3067 30.5405 57.912C30.2312 57.5173 30.0018 57.064 29.8525 56.552C29.7138 56.04 29.6445 55.5067 29.6445 54.952C29.6445 54.344 29.7245 53.7733 29.8845 53.24C30.0445 52.7067 30.2845 52.2373 30.6045 51.832C30.9352 51.416 31.3405 51.096 31.8205 50.872C32.3112 50.6373 32.8818 50.52 33.5325 50.52C34.1618 50.52 34.7165 50.632 35.1965 50.856C35.6765 51.0693 36.0658 51.3733 36.3645 51.768C36.6738 52.1627 36.8712 52.632 36.9565 53.176L35.5645 53.56C35.5432 53.2613 35.4525 52.9733 35.2925 52.696C35.1432 52.4187 34.9192 52.1947 34.6205 52.024C34.3218 51.8427 33.9538 51.752 33.5165 51.752C33.1005 51.752 32.7432 51.832 32.4445 51.992C32.1565 52.152 31.9112 52.376 31.7085 52.664C31.5165 52.952 31.3672 53.288 31.2605 53.672C31.1645 54.056 31.1165 54.472 31.1165 54.92C31.1165 55.5387 31.2018 56.0773 31.3725 56.536C31.5538 56.9947 31.8312 57.352 32.2045 57.608C32.5778 57.864 33.0578 57.992 33.6445 57.992C34.0818 57.992 34.4552 57.9173 34.7645 57.768C35.0738 57.608 35.3192 57.3893 35.5005 57.112C35.6818 56.824 35.7992 56.488 35.8525 56.104L37.1965 56.408C37.1218 56.8667 36.9832 57.272 36.7805 57.624C36.5778 57.976 36.3218 58.2693 36.0125 58.504C35.7032 58.728 35.3458 58.8987 34.9405 59.016C34.5458 59.144 34.1085 59.208 33.6285 59.208ZM41.4338 59.16C40.6658 59.16 40.0951 58.952 39.7218 58.536C39.3484 58.12 39.1618 57.4853 39.1618 56.632V51.944H37.9138L37.9298 50.728H38.7138C38.9804 50.728 39.1724 50.68 39.2898 50.584C39.4178 50.488 39.4924 50.328 39.5138 50.104L39.6738 48.856H40.5698V50.728H42.9538V51.96H40.5698V56.6C40.5698 57.0267 40.6658 57.336 40.8578 57.528C41.0604 57.7093 41.3484 57.8 41.7218 57.8C41.9244 57.8 42.1324 57.7733 42.3458 57.72C42.5698 57.6667 42.7884 57.56 43.0018 57.4V58.856C42.6924 58.9733 42.4044 59.0533 42.1378 59.096C41.8818 59.1387 41.6471 59.16 41.4338 59.16Z" fill="#F8F9FA"/>
</svg>
