<svg width="72" height="68" viewBox="0 0 72 68" fill="none" xmlns="http://www.w3.org/2000/svg">
<path fill-rule="evenodd" clip-rule="evenodd" d="M60.5373 32.2128C59.1126 32.2128 57.6954 31.5378 56.8706 30.3378L51.3294 22.5452C50.3546 21.1952 50.2046 19.4027 50.9544 17.9027C51.2544 17.3026 51.6293 16.8526 52.1542 16.4776C50.9544 14.9776 49.1623 14.0776 47.1378 14.0776C45.1133 14.0776 41.8215 15.9526 40.9967 18.6452C40.6218 19.8452 39.8719 20.8202 38.8222 21.3452C38.1473 21.7202 37.4725 21.8702 36.7226 21.8702C35.9728 21.8702 35.8228 21.8702 35.373 21.6452C34.0982 21.2702 32.7485 20.9702 31.4063 20.8202C30.0566 20.6702 28.8569 19.9952 28.1146 18.9452C27.3723 17.8952 27.1398 16.4701 27.4397 15.2026C27.6647 14.2276 28.0396 13.3276 28.4145 12.4351C29.4643 10.0351 30.889 7.86757 32.756 5.99255C34.6306 4.11753 36.8726 2.62502 39.2721 1.65001C41.7465 0.600005 44.4384 0 47.2128 0C49.9872 0 52.6791 0.525004 55.1535 1.57501C57.6279 2.62502 59.795 4.05003 61.6695 5.91755C63.5441 7.78507 65.0363 9.96008 66.011 12.3601C66.4609 13.3351 66.7609 14.3851 67.0608 15.4276C68.4105 15.6526 69.5353 16.5526 70.2026 17.7526C70.9524 19.2527 70.8775 21.0452 69.8277 22.3952L64.2864 30.1878C63.4616 31.3878 62.1119 32.0628 60.6198 32.0628L60.5448 32.2128H60.5373Z" fill="#F8F9FA"/>
<path fill-rule="evenodd" clip-rule="evenodd" d="M58.2843 67.7931C57.6095 67.7931 56.8597 67.6431 56.2598 67.2681C55.135 66.6681 54.3102 65.6181 53.9353 64.4256H39.0362C36.9367 64.4256 35.1446 63.0006 34.6947 60.9831C34.2448 58.9581 35.2195 56.8656 37.0941 55.9656C37.2441 55.9656 37.3191 55.8156 37.469 55.8156H37.619C39.3436 54.9905 40.8358 53.9405 42.2604 52.673C42.4104 52.523 42.6354 52.373 42.7853 52.148L43.3102 51.623C43.5352 51.398 43.7601 51.173 43.9101 50.948C44.7349 49.823 46.0846 49.223 47.4268 49.223H54.0178C54.3177 48.023 55.1425 46.973 56.3423 46.3805C57.0171 46.0805 57.692 45.8555 58.3668 45.8555C59.0417 45.8555 60.2414 46.1555 60.9912 46.6805L70.1242 53.198C71.3239 54.023 71.9987 55.373 71.9987 56.8656C71.9987 58.3581 71.3239 59.7081 70.1242 60.5331L60.9912 67.0506C60.2414 67.5756 59.2666 67.8756 58.3668 67.8756L58.2918 67.8006L58.2843 67.7931Z" fill="#F8F9FA"/>
<path fill-rule="evenodd" clip-rule="evenodd" d="M66.066 19.8503L60.5248 27.6428L54.9835 19.8503H58.0503C57.8254 14.0827 53.034 9.4402 47.1928 9.4402C41.3516 9.4402 38.0598 12.7327 36.7851 17.2328C35.2105 16.7078 33.4934 16.4078 31.8438 16.2578C32.0687 15.5077 32.2936 14.8327 32.5936 14.0827C33.4184 12.2077 34.5431 10.4902 36.0353 8.99019C37.46 7.56518 39.1771 6.36517 41.1267 5.62267C43.0762 4.79766 45.1682 4.34766 47.3428 4.34766C49.5173 4.34766 51.6093 4.79766 53.5589 5.62267C55.4334 6.44767 57.1505 7.57268 58.6502 8.99019C60.0749 10.4152 61.2746 12.1327 62.0919 14.0827C62.8418 15.8828 63.2917 17.8253 63.3666 19.8503H66.4335H66.0585H66.066Z" fill="#FF7F69"/>
<path fill-rule="evenodd" clip-rule="evenodd" d="M58.2797 63.294V59.9265H39.0391C39.189 59.9265 39.339 59.7765 39.414 59.7015C41.5135 58.7265 43.4556 57.3765 45.1052 55.809C45.3301 55.5839 45.5551 55.3589 45.78 55.2089C46.005 54.9839 46.2299 54.7589 46.4549 54.4589C46.7548 54.1589 46.9798 53.8589 47.2797 53.5589H58.2122V50.1914L67.3452 56.709L58.2122 63.2265L58.2872 63.3015L58.2797 63.294Z" fill="#7D65F5"/>
<path fill-rule="evenodd" clip-rule="evenodd" d="M4.5158 64.4915C2.04136 64.4915 0.0243163 62.4665 0.0243163 59.999V53.6314C0.0243163 51.1564 2.04886 49.1389 4.5158 49.1389H6.16543L0.84913 41.7213C-0.12565 40.3713 -0.275616 38.5788 0.474215 37.0788C1.14906 35.7288 2.49876 34.8288 3.99092 34.6788C4.29085 32.7288 4.89072 30.8612 5.64055 29.0612C6.99025 25.9187 8.85732 23.1437 11.1818 20.7512C13.5813 18.3511 16.3481 16.4836 19.4899 15.2086C22.7067 13.8586 26.0809 13.1836 29.5977 13.1836C33.1144 13.1836 30.8724 13.1836 31.6222 13.2586C33.7217 13.4086 35.7388 13.8586 37.6883 14.4586C38.5131 14.6836 39.113 14.9836 39.7879 15.2836C42.8547 16.5586 45.629 18.4261 48.021 20.8262C50.413 23.2262 52.2875 25.9937 53.5622 29.1362C54.9119 32.3538 55.5868 35.7288 55.5868 39.2463C55.5868 42.7638 54.9119 46.1389 53.5622 49.3564C52.4375 52.1239 50.7954 54.5989 48.7708 56.774C48.7708 56.774 48.021 57.599 47.946 57.599C47.796 57.749 47.2712 58.274 47.1962 58.349C45.2466 60.149 43.1546 61.5665 40.7551 62.6915C40.4552 62.8415 40.1553 62.9915 39.7804 63.1415H39.6304C37.4559 64.0415 35.1389 64.5665 32.6645 64.5665H4.5158V64.4915ZM30.8049 49.1389C36.2711 49.1389 40.8376 44.7214 40.9126 39.2538V39.1038C40.9126 32.8863 35.8962 27.8687 29.6801 27.8687C23.464 27.8687 20.9221 30.7862 19.1975 34.9113C20.1723 35.2863 21.0721 36.0363 21.522 37.0113C22.2718 38.5113 22.1968 40.3038 21.1471 41.6538L15.8308 49.0714H30.7299L30.8049 49.1464V49.1389Z" fill="#F8F9FA"/>
<path fill-rule="evenodd" clip-rule="evenodd" d="M51.1779 39.1014C51.1779 42.019 50.5781 44.794 49.4533 47.4865C48.4785 49.7365 47.1288 51.829 45.4867 53.629C45.2618 53.854 45.0368 54.0791 44.8119 54.3041L44.212 54.9041C42.6373 56.4041 40.7703 57.6041 38.8207 58.5716C38.5208 58.7216 38.2958 58.7966 37.9959 58.9466C36.3463 59.6216 34.6292 59.9966 32.8296 59.9966H4.52344V53.629H30.805C38.7457 53.629 45.2543 47.2615 45.4042 39.3264V39.1014C45.4042 30.4164 38.3633 23.3738 29.6803 23.3738C20.9972 23.3738 13.9563 30.4164 13.9563 39.1014H17.623L11.107 48.2365L4.59092 39.1014H8.2576C8.2576 36.1839 8.85746 33.4089 9.98221 30.7164C11.107 28.1663 12.6066 25.8488 14.6237 23.8988C16.5732 21.9488 18.8902 20.3813 21.4396 19.2563C24.064 18.1313 26.9059 17.5312 29.8227 17.5312C32.7396 17.5312 30.9475 17.5312 31.5473 17.5312C33.272 17.6813 34.9141 17.9813 36.4887 18.5063C37.0886 18.7313 37.6135 18.8813 38.2133 19.1813C40.7628 20.3063 43.0797 21.8063 45.0293 23.8238C46.9789 25.7738 48.546 28.0913 49.6708 30.6414C50.7955 33.2664 51.3954 36.1089 51.3954 39.0264L51.1704 39.1014H51.1779Z" fill="#F565CB"/>
</svg>
