<svg width="72" height="72" viewBox="0 0 72 72" fill="none" xmlns="http://www.w3.org/2000/svg">
<path d="M17.1 0H54.9C64.335 0 72 7.665 72 17.1V54.9C72 64.335 64.335 72 54.9 72H17.1C7.665 72 0 64.335 0 54.9V17.1C0 7.665 7.665 0 17.1 0Z" fill="white"/>
<path fill-rule="evenodd" clip-rule="evenodd" d="M54.9 4.5H17.1C10.14 4.5 4.5 10.14 4.5 17.1V54.9C4.5 61.86 10.14 67.5 17.1 67.5H54.9C61.86 67.5 67.5 61.86 67.5 54.9V17.1C67.5 10.14 61.86 4.5 54.9 4.5ZM17.1525 17.1V20.6475L25.125 24.8625L17.1 29.22V32.8425L28.125 26.6175V23.415L17.16 17.085L17.1525 17.1ZM30.96 32.85H43.56V36.63H30.96V32.85Z" fill="#1D1D1D"/>
</svg>
