<?xml version="1.0" encoding="UTF-8" standalone="no"?>
<svg
   width="132"
   height="80"
   viewBox="0 0 387.2 234.026"
   version="1.1"
   id="svg1"
   sodipodi:docname="sticker_text_closed_de.svg"
   inkscape:version="1.4 (86a8ad7, 2024-10-11)"
   xmlns:inkscape="http://www.inkscape.org/namespaces/inkscape"
   xmlns:sodipodi="http://sodipodi.sourceforge.net/DTD/sodipodi-0.dtd"
   xmlns="http://www.w3.org/2000/svg"
   xmlns:svg="http://www.w3.org/2000/svg">
  <defs
     id="defs1" />
  <sodipodi:namedview
     id="namedview1"
     pagecolor="#ffffff"
     bordercolor="#000000"
     borderopacity="0.25"
     inkscape:showpageshadow="2"
     inkscape:pageopacity="0.0"
     inkscape:pagecheckerboard="0"
     inkscape:deskcolor="#d1d1d1"
     inkscape:zoom="11.781818"
     inkscape:cx="55"
     inkscape:cy="38.491512"
     inkscape:window-width="2560"
     inkscape:window-height="1377"
     inkscape:window-x="1432"
     inkscape:window-y="457"
     inkscape:window-maximized="1"
     inkscape:current-layer="svg1" />
  <path
     d="m 134.26553,5.6591624 c -0.948,5.8869996 -4.386,22.3769996 -5.491,26.3409996 -0.633,2.272 -1.918,4.009 -3.498,4.728 -2.829,1.29 -3.147,2.806 -1.067,5.103 1.242,1.373 1.181,2.626 -0.466,9.579 -1.043,4.399 -1.911,9.027 -1.93,10.284 -0.042,2.83 2.725,7.215 4.553,7.215 1.349,0 2.127,-2.255 6.449,-18.699 l 2.156,-8.199 5.154,-1.024 c 10.205,-2.027 18.772,-3.294 19.223,-2.842 0.254,0.253 -0.671,5.25 -2.054,11.104 -3.047,12.897 -3.126,15.797 -0.491,18.181 3.294,2.982 3.464,2.603 10.048,-22.371 1.96,-7.437 2.514,-8.458 5.064,-9.347 3.301,-1.151 3.798,-3.746 0.864,-4.513 -2.414,-0.631 -2.414,-0.081 0,-9.29 2.493,-9.511 2.487,-12.6889996 -0.03,-16.8179996 -3.135,-5.14099999 -5.32,-3.959 -6.158,3.331 -0.379,3.2929996 -1.521,9.5869996 -2.538,13.9869996 l -1.849,8 -7.433,0.745 c -4.088,0.409 -9.584,1.136 -12.213,1.613 -5.58,1.015 -5.41,1.617 -2.779,-9.858 2.468,-10.765 2.47,-13.7169996 0.011,-17.7499996 -2.672,-4.38299999 -4.768,-4.19299999 -5.525,0.5 m 62.202,-0.958 c -2.473,2.732 -2.079,5.041 1.418,8.3069996 3.487,3.257 5.082,3.585 6.884,1.413 0.999,-1.204 0.785,-2.393 -1.128,-6.2499996 -2.623,-5.288 -4.644,-6.266 -7.174,-3.47 m -3.389,18.4579996 c -1.512,1.999 -10.536,40.019 -10.15,42.762 0.227,1.61 1.084,2.593 2.428,2.785 2.457,0.351 4.052,-2.866 7.83,-15.797 6.263,-21.434 6.894,-25.905 4.09,-29.003 -2.102,-2.323 -2.898,-2.465 -4.198,-0.747 m 27.444,1.698 c -12.166,7.715 -19.506,27.368 -13.748,36.811 3.068,5.032 7.5,7.237 14.505,7.215 6.56,-0.02 12.762,-2.3 15.926,-5.856 1.465,-1.646 1.648,-2.444 0.764,-3.328 -0.885,-0.885 -2.447,-0.759 -6.515,0.523 -11.425,3.602 -19.694,1.473 -19.661,-5.063 0.033,-6.777 0.229,-6.902 10.083,-6.431 18.25,0.873 26.257,-6.715 19.412,-18.394 -5.018,-8.563 -12.704,-10.59 -20.766,-5.477 m 34.109,-2.198 c -0.081,0.412 -0.251,5.25 -0.379,10.75 -0.166,7.181 -1.005,12.871 -2.977,20.185 -2.787,10.337 -2.796,14.602 -0.034,15.662 2.516,0.966 4.101,-1.76 8.448,-14.526 5.009,-14.711 8.697,-20.556 15.782,-25.012 5.617,-3.532 7.165,-5.648 5.092,-6.964 -3.819,-2.423 -10.53,0.437 -15.428,6.576 -3.533,4.427 -4.356,4.484 -4.356,0.302 0,-3.691 -2.379,-7.723 -4.557,-7.723 -0.794,0 -1.509,0.338 -1.591,0.75 m -27.852,7.443 c -4.136,1.525 -11,9.174 -11,12.257 0,0.303 3.172,0.55 7.05,0.55 11.033,0 15.621,-3.363 12.288,-9.005 -2.153,-3.644 -5.11,-4.993 -8.338,-3.802 m 23.547,120.056998 c -0.215,0.688 -0.668,4.175 -1.008,7.75 -0.961,10.103 -4.327,28.143 -8.101,43.409 -1.891,7.65 -3.438,14.892 -3.438,16.095 0,2.674 3.391,5.944 5.375,5.182 0.797,-0.305 6.213,-7.774 12.035,-16.597 10.956,-16.6 14.473,-20.307 17.441,-18.381 2.369,1.538 1.852,7.27 -1.711,18.957 -4.142,13.586 -4.331,16.335 -1.125,16.335 2.749,0 5.418,-4.652 8.943,-15.587 3.284,-10.184 4.599,-18.058 3.649,-21.841 -0.995,-3.964 -6.438,-9.572 -9.291,-9.572 -3.605,0 -12.643,9.644 -19.697,21.018 -3.235,5.215 -5.628,8.737 -5.318,7.827 1.876,-5.509 7.667,-30.706 8.725,-37.963 1.38,-9.463 0.934,-12.922 -2.051,-15.907 -2.265,-2.265 -3.865,-2.527 -4.428,-0.725 m -133.947,2.797 c -4.032,3.539 -6.258,8.81 -8.537,20.208 l -1.634,8.174 -5.183,1.536 c -7.143996,2.116 -8.439996,3.61 -5.331996,6.149 1.723,1.407 3.227,1.794 5.249996,1.35 1.968,-0.432 2.836,-0.229 2.836,0.664 0,0.708 -1.625,7.271 -3.612,14.584 -3.424996,12.608 -3.526996,13.426 -1.976996,15.792 0.899,1.373 2.062996,2.496 2.585996,2.496 1.774,0 3.999,-5.871 7.85,-20.708 l 3.839,-14.792 6.511,-1.601 c 7.537,-1.853 8.803,-2.491 8.803,-4.439 0,-1.806 -3.832,-2.781 -8.99,-2.29 -4.797,0.458 -4.805,0.413 -1.872,-10.456 2.343,-8.685 5.505,-13.449 8.231,-12.403 0.926,0.356 2.556,2.681 3.622,5.168 1.391,3.246 2.512,4.521 3.973,4.521 1.782,0 2.036,-0.637 2.036,-5.1 0,-4.467 -0.422,-5.522 -3.4,-8.5 -4.626,-4.626 -9.99,-4.753 -15,-0.353 m 69.971,5.524 c -2.377,2.377 -1.898,5.256 1.426,8.58 3.96,3.96 6.535,3.463 6.407,-1.235 -0.107,-3.886 -2.898,-8.916 -4.948,-8.916 -0.722,0 -2.02,0.707 -2.885,1.571 m -164.688996,19.429 c -8.82,4.662 -20.88200005,23.569 -20.88200005,32.733 0,3.897 0.52200005,5.025 3.88200005,8.385 3.268,3.267 4.543,3.882 8.05,3.882 4.926,0 8.485,-1.683 12.505,-5.911 3.575,-3.76 4.563,-3.873 4.563,-0.523 0,5.845 4.373,8.843 5.375,3.684 1.021,-5.259 3.376,-21.766 3.459,-24.25 0.047,-1.375 0.375,-4.17 0.73,-6.212 1.119,-6.429 -5.25,-13.869 -11.764,-13.744 -1.265,0.025 -3.928,0.905 -5.918,1.956 m 35.691,0.25 c -5.419,8.276 -10.573,24.172 -10.573,32.61 0,4.245 0.505,5.645 3.104,8.605 2.451,2.792 3.845,3.535 6.632,3.535 4.56,0 9.476,-3.088 13.679,-8.593 l 3.353,-4.391 -0.521,6.492 c -0.487,6.074 -0.387,6.492 1.557,6.492 1.143,0 2.375,-0.481 2.738,-1.069 1.45,-2.346 11.458,-36.364 11.458,-38.946 0,-3.368 -3.149,-7.526 -5.125,-6.767 -0.79,0.303 -2.255,3.191 -3.255,6.417 -4.689,15.125 -17.577,33.932 -22.751,33.2 -4.782,-0.676 -3.598,-9.792 3.331,-25.643 3.459,-7.914 3.902,-9.673 2.956,-11.75 -1.402,-3.075 -4.633,-3.17 -6.583,-0.192 m 81.926996,-1.816 c -0.55,0.215 -2.238,0.664 -3.75,0.998 -2.859,0.63 -3.54,2.774 -1.769,5.568 0.75,1.184 3.256,1.5 11.897,1.5 6.02,0 11.307,0.359 11.749,0.798 1.437,1.429 -1.141,4.072 -11.721,12.015 -18.875,14.172 -21.177,17.757 -14.829,23.098 2.731,2.299 3.937,2.587 10.75,2.568 9.153,-0.025 18.889,-1.907 22.667,-4.383 2.406,-1.576 2.559,-1.971 1.27,-3.26 -1.254,-1.255 -3.23,-1.305 -13.625,-0.349 -17.418,1.603 -18.304,0.314 -5.889,-8.567 16.546,-11.837 21.156,-17.612 18.73,-23.467 -1.866,-4.507 -6.127,-6.27 -15.98,-6.614 -4.675,-0.163 -8.95,-0.121 -9.5,0.095 m 42.639,2.816 c -3.055,9.775 -10.073,40.757 -9.544,42.136 0.896,2.336 4.127,1.98 5.783,-0.636 2.604,-4.112 10.622,-33.185 10.622,-38.512 0,-2.862 -2.571,-6.238 -4.751,-6.238 -0.602,0 -1.551,1.463 -2.11,3.25 m 29.788,-1.329 c -8.777,4.778 -17.015,18.553 -17.252,28.845 -0.257,11.195 6.081,16.756 18.31,16.065 7.694,-0.435 15.015,-4.26 15.015,-7.845 0,-2.379 -1.367,-2.474 -7,-0.486 -2.338,0.825 -6.825,1.5 -9.971,1.5 -6.787,0 -9.029,-1.799 -9.029,-7.247 0,-6.339 0.083,-6.386 10.471,-5.931 8.198,0.358 10.007,0.125 13.999,-1.808 8.725,-4.223 9.527,-11.511 2.163,-19.643 -3.517,-3.882 -4.804,-4.624 -8.633,-4.979 -3.187,-0.295 -5.542,0.151 -8.073,1.529 m 95.406,-0.465 c -12.508,5.441 -22.466,28.689 -16.406,38.303 4.821,7.648 15.837,9.655 25.787,4.696 8.729,-4.35 8.175,-8.687 -0.771,-6.031 -5.975,1.775 -14.159,2.066 -16.894,0.602 -2.271,-1.215 -3.307,-5.132 -2.499,-9.442 l 0.619,-3.296 9.234,0.483 c 7.804,0.408 9.948,0.167 13.832,-1.551 2.528,-1.118 5.367,-3.21 6.309,-4.648 4.758,-7.261 -3.887,-20.664 -13.244,-20.533 -1.54,0.022 -4.225,0.659 -5.967,1.417 m 33.243,-0.206 c -0.199,0.688 -0.824,5.606 -1.389,10.93 -0.566,5.325 -2.262,14.027 -3.77,19.339 -2.926,10.312 -2.673,14.616 0.902,15.304 2.722,0.524 3.886,-0.878 13.827,-16.656 5.083,-8.067 10.755,-16.2 12.605,-18.074 3.146,-3.187 3.471,-3.299 5.039,-1.732 2.481,2.482 1.946,7.641 -2.156,20.779 -4.2,13.452 -4.458,15.86 -1.702,15.86 4.816,0 13.073,-20.854 13.064,-32.997 -0.006,-8.964 -5.213,-15.169 -11.423,-13.611 -3.025,0.76 -9.521,8.655 -16.748,20.358 -2.803,4.538 -5.215,8.25 -5.36,8.25 -0.146,0 0.569,-3.244 1.589,-7.21 3.2,-12.442 3.426,-16.937 0.982,-19.54 -2.326,-2.475 -4.898,-2.946 -5.46,-1 m -123.292,6.514 c -2.466,0.408 -11.284,9.663 -11.284,11.844 0,1.921 11.897,1.88 16.532,-0.057 2.818,-1.177 3.468,-1.988 3.468,-4.326 0,-4.222 -4.582,-8.145 -8.716,-7.461 m 92.602,1.059 c -3.226,1.624 -9.886,9.275 -9.886,11.357 0,0.647 3.124,0.895 8.473,0.673 7.205,-0.3 8.812,-0.693 10.745,-2.626 l 2.273,-2.274 -1.996,-3.634 c -2.564,-4.672 -5.298,-5.666 -9.609,-3.496 m -285.885996,1.524 c -6.203,4.254 -14.968,18.794 -14.99,24.868 -0.013,3.651 3.135,5.382 6.931,3.81 4.235,-1.755 10.727,-8.966 13.076,-14.525 1.162,-2.75 2.602,-5.999 3.201,-7.22 1.524,-3.109 -0.173,-8.694 -2.751,-9.057 -1.082,-0.152 -3.542,0.804 -5.467,2.124"
     stroke="none"
     fill="#f8f9fa"
     fill-rule="evenodd"
     id="path1" />
</svg>
