<svg xmlns="http://www.w3.org/2000/svg" width="166" height="53" viewBox="0 0 650 209" version="1.1">
	<path d="M 213.669 21.664 C 213.301 22.032, 213.001 23.271, 213.002 24.417 C 213.003 25.563, 212.269 30.506, 211.370 35.401 C 209.807 43.919, 209.667 44.212, 208.118 42.212 C 207.228 41.062, 205.364 39.846, 203.975 39.509 C 198.361 38.147, 189.201 48.273, 186.951 58.328 C 185.934 62.873, 185.999 64.097, 187.399 66.805 C 189.752 71.354, 193.328 71.959, 199.036 68.772 C 203.608 66.219, 203.620 66.218, 204.559 68.292 C 206.406 72.373, 207.849 71.223, 210.017 63.942 C 212.986 53.973, 217.964 31.144, 217.984 27.405 C 218 24.349, 214.989 20.344, 213.669 21.664 M 49.297 26.200 C 47.743 26.950, 45.679 30.792, 42.297 39.226 C 38.112 49.662, 37.085 51.391, 34.250 52.779 C 30.746 54.495, 30.089 56.391, 32.525 57.754 C 33.882 58.513, 33.861 59.117, 32.338 63.226 C 30.916 67.062, 30.848 68.112, 31.936 69.422 C 32.656 70.290, 33.572 71, 33.972 71 C 34.373 71, 35.963 67.963, 37.506 64.250 C 39.049 60.538, 40.625 57.139, 41.007 56.699 C 41.943 55.621, 52.269 52.936, 52.932 53.599 C 53.221 53.887, 53.732 57.489, 54.068 61.602 C 54.710 69.440, 56.272 72.724, 58.059 69.992 C 58.595 69.171, 58.960 64.697, 58.870 60.049 C 58.707 51.699, 58.737 51.588, 61.403 50.699 C 64.680 49.607, 64.309 47.615, 60.751 47.191 C 58.541 46.928, 58.063 46.260, 57.532 42.691 C 55.940 32.006, 53.801 24.917, 52.215 25.068 C 51.822 25.105, 50.508 25.614, 49.297 26.200 M 112.193 29.820 C 110.533 31.371, 108.737 34.408, 108.203 36.570 C 103.150 57.023, 101.007 67.448, 101.522 69.070 C 103.488 75.263, 107.471 66.364, 111.508 46.762 C 113.671 36.261, 115.962 32, 119.446 32 C 122.073 32, 126 35.448, 126 37.754 C 126 40.273, 124.090 42.749, 120.526 44.852 C 118.587 45.996, 117 47.415, 117 48.004 C 117 48.593, 119.025 51.043, 121.500 53.448 C 123.975 55.854, 126 58.729, 126 59.838 C 126 62.874, 121.366 66, 116.865 66 C 112.337 66, 111.515 68.366, 115.423 70.147 C 118.962 71.759, 124.848 70.306, 128.150 67.003 C 132.842 62.312, 131.679 55.774, 125.239 50.640 L 122.905 48.780 126.953 45.044 C 132.333 40.077, 132.535 35.770, 127.632 30.571 C 124.734 27.498, 123.632 27, 119.738 27 C 116.153 27, 114.583 27.587, 112.193 29.820 M 333.309 28.636 C 332.129 31.713, 336.925 36.475, 339.058 34.342 C 339.874 33.526, 339.742 32.402, 338.559 30.115 C 336.811 26.734, 334.310 26.029, 333.309 28.636 M 540.638 28.500 C 539.854 30.544, 540.864 32.857, 543.052 34.028 C 547.017 36.150, 548.074 34.451, 545.839 29.547 C 544.564 26.747, 541.544 26.139, 540.638 28.500 M 382.986 33.250 C 382.961 39.323, 382.026 40.916, 377.823 42.048 C 373.089 43.322, 372.797 46.303, 377.355 46.826 C 379.458 47.067, 380.070 47.585, 379.716 48.826 C 379.453 49.747, 378.285 54.071, 377.120 58.436 L 375.001 66.372 377.175 68.686 C 379.891 71.577, 384.349 71.694, 388.784 68.991 C 391.852 67.120, 393.798 64.465, 392.819 63.486 C 392.584 63.251, 390.062 63.804, 387.214 64.714 C 384.367 65.625, 381.727 66.060, 381.348 65.681 C 380.969 65.302, 381.933 60.511, 383.490 55.034 L 386.322 45.075 391.717 43.955 C 398.076 42.635, 398.317 40.645, 392.172 40.193 C 388.074 39.890, 388 39.819, 388 36.143 C 388 32.310, 386.608 30, 384.300 30 C 383.503 30, 382.995 31.257, 382.986 33.250 M 47.085 40 C 45.275 44.675, 43.559 48.886, 43.272 49.357 C 42.802 50.128, 46.668 49.646, 51.223 48.367 C 52.998 47.868, 52.960 44.558, 51.069 35 C 50.384 31.538, 50.341 31.592, 47.085 40 M 75.632 40.854 C 72.569 44.239, 68.036 57.587, 68.012 63.295 C 67.997 66.815, 72.040 71, 75.455 71 C 77.101 71, 79.448 69.552, 82.102 66.898 C 86.164 62.836, 86.198 62.824, 85.604 65.648 C 84.885 69.063, 86.371 72.029, 87.990 70.410 C 89.318 69.082, 96.151 47.335, 96.208 44.253 C 96.248 42.088, 94.433 39, 93.119 39 C 92.769 39, 91.439 41.909, 90.164 45.465 C 85.652 58.044, 76.518 69.074, 73.994 64.990 C 72.804 63.064, 73.740 58.734, 77.124 50.519 C 78.706 46.679, 80 42.790, 80 41.876 C 80 39.458, 77.438 38.859, 75.632 40.854 M 150 39.701 C 143.214 42.345, 137.024 51.691, 137.009 59.316 C 136.998 65.160, 138.144 67.506, 141.980 69.490 C 145.972 71.554, 150.327 71.384, 155.040 68.980 C 159.374 66.769, 160.719 63.226, 156.750 64.475 C 155.512 64.864, 151.956 65.418, 148.846 65.705 C 143.840 66.167, 143.063 65.986, 142.072 64.134 C 141.456 62.983, 141.236 60.907, 141.584 59.521 C 142.189 57.111, 142.543 57, 149.593 57 C 156.277 57, 157.266 56.735, 160.135 54.170 C 162.731 51.851, 163.181 50.857, 162.630 48.663 C 161.207 42.993, 154.240 38.049, 150 39.701 M 170 45.340 C 170 48.827, 169.097 55.212, 167.993 59.529 C 166.889 63.846, 166.244 68.193, 166.560 69.189 C 167.547 72.299, 169.769 71.179, 171.398 66.750 C 172.257 64.412, 173.941 59.800, 175.140 56.500 C 177.197 50.837, 180.310 46.944, 186.108 42.784 C 188.142 41.325, 188.275 40.917, 187 40.057 C 184.822 38.589, 182.007 39.731, 177.750 43.812 L 174 47.406 174 44.403 C 174 41.531, 172.501 39, 170.800 39 C 170.360 39, 170 41.853, 170 45.340 M 230.500 40.389 C 224.224 43.226, 218.682 52.396, 218.570 60.128 C 218.482 66.193, 221.668 69.878, 227.700 70.687 C 232.597 71.343, 241 68.028, 241 65.440 C 241 64.175, 240.451 63.929, 238.750 64.430 C 237.512 64.795, 233.960 65.356, 230.854 65.676 C 225.736 66.204, 225.098 66.051, 224.019 64.036 C 223.365 62.814, 223.102 60.731, 223.434 59.407 C 224.004 57.138, 224.458 57, 231.384 57 C 237.302 57, 239.243 56.597, 241.365 54.927 C 245.010 52.060, 244.962 47.074, 241.250 43.051 C 237.909 39.431, 234.492 38.585, 230.500 40.389 M 252.552 40.250 C 252.340 40.938, 251.889 44.200, 251.548 47.500 C 251.208 50.800, 250.028 56.534, 248.925 60.241 C 247.369 65.473, 247.168 67.446, 248.028 69.052 C 248.637 70.190, 249.667 70.961, 250.318 70.765 C 250.968 70.569, 255.100 65.030, 259.500 58.456 C 268.640 44.802, 271 43.216, 271 50.733 C 271 53.416, 270.055 58.409, 268.901 61.827 C 267.747 65.245, 267.058 68.708, 267.370 69.521 C 268.600 72.726, 270.885 70.615, 275.588 61.930 C 286.509 41.764, 292.433 40.502, 287 59.500 C 284.793 67.219, 284.469 71, 286.015 71 C 288.815 71, 294 56.129, 294 48.100 C 294 44.410, 292.218 40.298, 290.301 39.562 C 287.766 38.589, 283.117 41.905, 279.514 47.255 L 276 52.473 276 48.383 C 276 44.229, 272.597 39, 269.893 39 C 267.749 39, 261.470 46.515, 257.963 53.278 C 256.082 56.907, 254.437 59.770, 254.308 59.641 C 254.179 59.512, 254.727 56.953, 255.525 53.953 C 257.296 47.298, 257.406 41.806, 255.800 40.200 C 254.255 38.655, 253.038 38.674, 252.552 40.250 M 331.663 39.737 C 330.418 41.750, 324.205 68.371, 324.687 69.626 C 325.704 72.276, 327.849 70.960, 329.377 66.750 C 331.128 61.927, 334.522 50.021, 335.454 45.439 C 335.921 43.139, 335.594 41.942, 334.137 40.624 C 333.071 39.659, 331.957 39.260, 331.663 39.737 M 344.553 40.250 C 344.341 40.938, 343.916 44.425, 343.608 48 C 343.300 51.575, 342.158 57.381, 341.070 60.901 C 339.057 67.416, 339.499 71, 342.316 71 C 343.001 71, 346.023 67.137, 349.031 62.415 C 357.985 48.360, 359.964 45.847, 361.802 46.197 C 364.426 46.697, 364.363 50.206, 361.567 59.374 C 358.631 68.999, 358.432 71, 360.411 71 C 363.228 71, 368.963 55.554, 368.988 47.896 C 369.001 44.079, 365.390 39, 362.664 39 C 360.822 39, 354.796 45.676, 350.849 52.091 C 349.154 54.846, 347.619 56.952, 347.439 56.772 C 347.258 56.592, 347.525 54.656, 348.031 52.472 C 349.318 46.922, 349.218 41.618, 347.800 40.200 C 346.255 38.655, 345.038 38.674, 344.553 40.250 M 410.481 40.394 C 403.938 43.245, 397.981 52.797, 398.022 60.372 C 398.071 69.348, 407.261 73.823, 416.016 69.133 C 420.191 66.897, 421.600 63.288, 417.851 64.431 C 416.558 64.826, 413.365 65.397, 410.755 65.701 C 404.969 66.375, 403 65.023, 403 60.378 L 403 57 410.050 57 C 418.300 57, 422.666 55.178, 423.632 51.331 C 424.489 47.916, 421.525 42.323, 417.851 40.423 C 414.554 38.718, 414.328 38.717, 410.481 40.394 M 431.735 39.598 C 431.331 40.002, 430.992 43.296, 430.983 46.917 C 430.973 50.538, 430.164 56.650, 429.184 60.500 C 427.180 68.371, 427.363 71.266, 429.834 70.800 C 430.941 70.591, 432.569 67.405, 434.682 61.312 C 438.523 50.238, 440.204 47.528, 445.182 44.385 C 449.307 41.781, 449.887 40.554, 447.437 39.614 C 445.359 38.817, 440.680 41.320, 438.088 44.615 C 436.199 47.016, 436 47.076, 436 45.246 C 436 42.822, 432.778 38.555, 431.735 39.598 M 460.481 40.394 C 453.938 43.245, 447.981 52.797, 448.022 60.372 C 448.071 69.348, 457.261 73.823, 466.016 69.133 C 470.191 66.897, 471.600 63.288, 467.851 64.431 C 466.558 64.826, 463.365 65.397, 460.755 65.701 C 454.969 66.375, 453 65.023, 453 60.378 L 453 57 460.050 57 C 468.300 57, 472.666 55.178, 473.632 51.331 C 474.489 47.916, 471.525 42.323, 467.851 40.423 C 464.554 38.718, 464.328 38.717, 460.481 40.394 M 491.007 40.593 C 487.228 42.232, 483.377 45.460, 481.873 48.250 C 480.516 50.768, 482.134 53.190, 487.976 57.387 C 493.079 61.054, 494.446 64.231, 491.418 65.393 C 488.530 66.501, 482.410 66.021, 480.441 64.532 C 477.726 62.478, 476 62.652, 476 64.980 C 476 67.410, 482.555 71, 486.992 71 C 491.290 71, 496.622 68.575, 498.005 65.992 C 499.899 62.452, 498.317 59.297, 492.486 54.990 C 489.469 52.761, 487 50.571, 487 50.123 C 487 47.155, 496.939 43.474, 498.432 45.890 C 499.499 47.616, 501 47.198, 501 45.174 C 501 43.286, 497.085 38.970, 495.436 39.039 C 494.921 39.061, 492.928 39.760, 491.007 40.593 M 518.500 40.389 C 513.094 42.750, 509 46.917, 509 50.057 C 509 52.389, 510.047 53.711, 514.500 57 C 520.037 61.090, 521.495 64.213, 518.418 65.393 C 515.599 66.475, 510.882 66.038, 507.365 64.369 C 501.509 61.590, 501.385 65.435, 507.216 68.991 C 511.682 71.713, 517.812 71.600, 522.102 68.716 C 527.966 64.774, 526.788 59.417, 518.975 54.484 C 514.080 51.394, 513.794 48.675, 518.128 46.434 C 521.131 44.881, 523.477 44.893, 527.250 46.478 C 529.870 47.580, 529.465 44.794, 526.548 41.646 C 523.794 38.675, 522.785 38.517, 518.500 40.389 M 538.104 42.750 C 532.510 64.296, 531.610 69.009, 532.854 70.236 C 534.830 72.186, 536.329 69.413, 539.883 57.227 C 543.264 45.634, 543.666 42.066, 541.800 40.200 C 539.867 38.267, 539.137 38.771, 538.104 42.750 M 558.500 40.389 C 552.224 43.226, 546.682 52.396, 546.570 60.128 C 546.482 66.193, 549.668 69.878, 555.700 70.687 C 560.597 71.343, 569 68.028, 569 65.440 C 569 64.175, 568.451 63.929, 566.750 64.430 C 565.513 64.795, 561.960 65.356, 558.854 65.676 C 553.736 66.204, 553.098 66.051, 552.019 64.036 C 551.365 62.814, 551.102 60.731, 551.434 59.407 C 552.004 57.138, 552.458 57, 559.384 57 C 565.302 57, 567.243 56.597, 569.365 54.927 C 573.010 52.060, 572.962 47.074, 569.250 43.051 C 565.909 39.431, 562.492 38.585, 558.500 40.389 M 580 45.340 C 580 48.827, 579.097 55.212, 577.993 59.529 C 576.889 63.846, 576.244 68.193, 576.560 69.189 C 577.547 72.299, 579.769 71.179, 581.398 66.750 C 582.257 64.412, 583.941 59.800, 585.140 56.500 C 587.197 50.837, 590.310 46.944, 596.108 42.784 C 598.142 41.325, 598.275 40.917, 597 40.057 C 594.822 38.589, 592.007 39.731, 587.750 43.812 L 584 47.406 584 44.403 C 584 41.531, 582.501 39, 580.800 39 C 580.360 39, 580 41.853, 580 45.340 M 608.500 40.389 C 602.224 43.226, 596.682 52.396, 596.570 60.128 C 596.482 66.193, 599.668 69.878, 605.700 70.687 C 610.597 71.343, 619 68.028, 619 65.440 C 619 64.175, 618.451 63.929, 616.750 64.430 C 615.513 64.795, 611.960 65.356, 608.854 65.676 C 603.736 66.204, 603.098 66.051, 602.019 64.036 C 601.365 62.814, 601.102 60.731, 601.434 59.407 C 602.004 57.138, 602.458 57, 609.384 57 C 615.302 57, 617.243 56.597, 619.365 54.927 C 623.010 52.060, 622.962 47.074, 619.250 43.051 C 615.909 39.431, 612.492 38.585, 608.500 40.389 M 147.632 48.184 L 143.500 52.369 146.500 53.249 C 150.277 54.357, 157.336 52.209, 157.798 49.811 C 158.144 48.013, 154.750 44, 152.882 44 C 152.268 44, 149.905 45.883, 147.632 48.184 M 232.374 44.985 C 230.524 45.732, 226 50.921, 226 52.296 C 226 53.517, 231.445 53.957, 234.935 53.018 C 239.676 51.741, 240.507 49.914, 237.872 46.564 C 235.674 43.771, 235.503 43.722, 232.374 44.985 M 408.632 48.134 L 404.500 52.269 407 53.197 C 411.554 54.887, 419 52.517, 419 49.378 C 419 47.725, 415.455 44, 413.882 44 C 413.268 44, 410.905 45.860, 408.632 48.134 M 458.632 48.134 L 454.500 52.269 457 53.197 C 461.554 54.887, 469 52.517, 469 49.378 C 469 47.725, 465.455 44, 463.882 44 C 463.268 44, 460.905 45.860, 458.632 48.134 M 560.374 44.985 C 558.524 45.732, 554 50.921, 554 52.296 C 554 53.517, 559.445 53.957, 562.935 53.018 C 567.676 51.741, 568.507 49.914, 565.872 46.564 C 563.674 43.771, 563.503 43.722, 560.374 44.985 M 610.374 44.985 C 608.524 45.732, 604 50.921, 604 52.296 C 604 53.517, 609.445 53.957, 612.935 53.018 C 617.676 51.741, 618.507 49.914, 615.872 46.564 C 613.674 43.771, 613.503 43.722, 610.374 44.985 M 198.287 47.250 C 193.302 52.691, 189.920 62.858, 192.408 64.923 C 196.539 68.352, 207 58.717, 207 51.484 C 207 45.204, 202.268 42.905, 198.287 47.250 M 81.631 123.702 C 81.284 124.049, 81 126.234, 81 128.556 C 81 133.636, 78.757 145.963, 75.411 159.273 C 73.512 166.823, 73.202 169.508, 74.045 171.083 C 74.645 172.204, 75.667 172.956, 76.318 172.755 C 76.968 172.553, 80.425 168.037, 84 162.719 C 91.707 151.256, 94.260 148.502, 96.417 149.330 C 98.592 150.164, 98.411 152.636, 95.513 161.712 C 92.635 170.724, 92.426 173, 94.480 173 C 97.432 173, 103 158.272, 103 150.465 C 103 147.422, 102.336 145.576, 100.548 143.646 C 99.199 142.191, 97.659 141, 97.124 141 C 94.991 141, 89.353 146.897, 84.695 154 C 81.990 158.125, 80.051 160.677, 80.387 159.671 C 83.737 149.637, 87.407 129.858, 86.468 126.898 C 85.803 124.804, 82.628 122.706, 81.631 123.702 M 236.626 124.114 C 236.397 124.876, 235.493 130.225, 234.616 136 C 233.739 141.775, 231.795 151.582, 230.294 157.794 C 227.549 169.159, 227.696 172.500, 230.938 172.500 C 231.609 172.500, 235.610 167.325, 239.829 161 C 245.311 152.782, 248.142 149.409, 249.750 149.180 C 252.995 148.720, 253.047 152.644, 249.918 161.740 C 247.827 167.815, 247.412 173, 249.015 173 C 251.637 173, 256.530 161.073, 257.671 151.902 C 258.179 147.815, 257.917 146.938, 255.315 144.026 L 252.386 140.749 249.114 142.441 C 247.027 143.520, 243.988 147.001, 240.729 152.042 C 237.917 156.392, 235.501 159.834, 235.358 159.692 C 235.216 159.550, 236.201 155.173, 237.547 149.967 C 238.893 144.760, 240.274 137.350, 240.616 133.500 C 241.175 127.216, 241.024 126.307, 239.140 124.614 C 237.484 123.125, 236.954 123.020, 236.626 124.114 M 302.553 126.537 C 301.240 127.954, 299.448 132.037, 298.495 135.787 C 297.556 139.479, 296.620 143.073, 296.416 143.773 C 296.212 144.473, 295.248 145.297, 294.273 145.604 C 288.644 147.378, 287.776 148.026, 289.021 149.525 C 289.694 150.336, 291.345 151, 292.690 151 C 294.542 151, 295.014 151.424, 294.635 152.750 C 290.436 167.458, 289.915 170.193, 291.052 171.563 C 291.708 172.353, 292.625 173, 293.090 173 C 293.867 173, 297.807 161.239, 299.772 153.053 C 300.509 149.982, 301.123 149.472, 305.385 148.385 C 308.016 147.713, 310.401 146.932, 310.685 146.649 C 311.971 145.363, 309.530 144, 305.941 144 C 303.773 144, 302 143.632, 302 143.182 C 302 141.414, 305.262 131.429, 306.224 130.250 C 308.024 128.046, 310.062 128.905, 311.564 132.500 C 313.269 136.580, 314.716 136.981, 315.562 133.608 C 316.259 130.833, 313.838 125.535, 311.455 124.621 C 308.158 123.356, 304.840 124.070, 302.553 126.537 M 38.638 130.500 C 37.854 132.544, 38.864 134.857, 41.052 136.028 C 45.017 138.150, 46.074 136.451, 43.839 131.547 C 42.564 128.747, 39.544 128.139, 38.638 130.500 M 193.309 130.636 C 192.129 133.713, 196.925 138.475, 199.058 136.342 C 199.874 135.526, 199.742 134.402, 198.559 132.115 C 196.811 128.734, 194.310 128.029, 193.309 130.636 M 323.688 129.646 C 322.223 131.110, 323.078 134.971, 325.107 136.057 C 328.328 137.781, 329.912 135.711, 327.985 132.295 C 326.408 129.497, 324.817 128.517, 323.688 129.646 M 333.200 130.200 C 332.540 130.860, 332 131.915, 332 132.545 C 332 133.985, 335.268 137, 336.829 137 C 338.278 137, 338.356 133.533, 336.965 130.934 C 335.767 128.697, 334.877 128.523, 333.200 130.200 M 36.104 144.750 C 30.510 166.296, 29.610 171.009, 30.854 172.236 C 32.830 174.186, 34.329 171.413, 37.883 159.227 C 41.264 147.634, 41.666 144.066, 39.800 142.200 C 37.867 140.267, 37.137 140.771, 36.104 144.750 M 57.975 143.295 C 50.658 147.164, 43.984 159.103, 45.581 165.465 C 46.508 169.159, 51.523 173, 55.419 173 C 59.552 173, 67.388 168.918, 67.851 166.524 C 68.124 165.115, 67.788 164.868, 66.351 165.422 C 53.251 170.471, 47.846 167.102, 52.961 157.076 C 56.819 149.513, 64.326 144.482, 66.500 148 C 67.413 149.477, 70 149.215, 70 147.646 C 70 145.817, 65.438 141, 63.705 141 C 62.940 141, 60.362 142.033, 57.975 143.295 M 138.552 142.250 C 138.340 142.938, 137.889 146.200, 137.548 149.500 C 137.208 152.800, 136.028 158.534, 134.925 162.241 C 133.369 167.473, 133.168 169.446, 134.028 171.052 C 134.637 172.190, 135.667 172.961, 136.318 172.765 C 136.968 172.569, 141.100 167.030, 145.500 160.456 C 154.640 146.802, 157 145.216, 157 152.733 C 157 155.416, 156.055 160.409, 154.901 163.827 C 153.747 167.245, 153.058 170.708, 153.370 171.521 C 154.600 174.726, 156.885 172.615, 161.588 163.930 C 172.509 143.764, 178.433 142.502, 173 161.500 C 170.793 169.219, 170.469 173, 172.015 173 C 174.815 173, 180 158.129, 180 150.100 C 180 146.410, 178.218 142.298, 176.301 141.562 C 173.766 140.589, 169.117 143.905, 165.514 149.255 L 162 154.473 162 150.383 C 162 146.229, 158.597 141, 155.893 141 C 153.749 141, 147.470 148.515, 143.963 155.278 C 142.082 158.907, 140.437 161.770, 140.308 161.641 C 140.179 161.512, 140.727 158.953, 141.525 155.953 C 143.296 149.298, 143.406 143.806, 141.800 142.200 C 140.255 140.655, 139.038 140.674, 138.552 142.250 M 191.663 141.737 C 190.418 143.750, 184.205 170.371, 184.687 171.626 C 185.704 174.276, 187.849 172.960, 189.377 168.750 C 191.128 163.927, 194.522 152.021, 195.454 147.439 C 195.921 145.139, 195.594 143.942, 194.137 142.624 C 193.071 141.659, 191.957 141.260, 191.663 141.737 M 213.481 142.394 C 204.724 146.209, 196.952 162.552, 201.282 168.046 C 203.485 170.842, 207.397 173, 210.262 173 C 215.044 173, 224.635 167.129, 222.256 165.658 C 221.793 165.372, 219.304 165.833, 216.724 166.682 C 211.336 168.456, 207.526 167.850, 205.987 164.976 C 204.615 162.412, 207.324 155.978, 212.036 150.612 C 215.407 146.772, 217.340 146.366, 222.250 148.466 C 225.110 149.689, 224.419 145.474, 221.365 143.073 C 218.317 140.675, 217.573 140.611, 213.481 142.394 M 318.177 143.795 C 315.798 147.192, 312.455 156.199, 311.547 161.659 C 311.060 164.586, 311.310 166.698, 312.390 168.788 C 315.311 174.437, 319.637 174.424, 325.277 168.750 L 329.501 164.500 329.150 168.750 C 328.877 172.055, 329.140 173, 330.332 173 C 331.175 173, 332.093 172.213, 332.370 171.250 C 332.648 170.287, 334.512 164.185, 336.512 157.689 C 339.956 146.507, 340.063 145.745, 338.531 143.407 C 336.546 140.378, 335.501 140.916, 333.952 145.764 C 331.985 151.917, 326.095 162.535, 323.008 165.492 C 316.648 171.586, 315.158 165.337, 320.031 153 C 321.660 148.875, 322.994 144.761, 322.996 143.857 C 323.003 140.964, 320.186 140.927, 318.177 143.795 M 347 147.340 C 347 150.827, 346.097 157.212, 344.993 161.529 C 343.889 165.846, 343.244 170.193, 343.560 171.189 C 344.547 174.299, 346.769 173.179, 348.398 168.750 C 349.257 166.412, 350.941 161.800, 352.140 158.500 C 354.197 152.837, 357.310 148.944, 363.108 144.784 C 365.142 143.325, 365.275 142.917, 364 142.057 C 361.822 140.589, 359.007 141.731, 354.750 145.812 L 351 149.406 351 146.403 C 351 143.531, 349.501 141, 347.800 141 C 347.360 141, 347 143.853, 347 147.340 M 371.160 142.240 C 368.459 144.941, 371.278 152, 375.057 152 C 377.359 152, 377.515 150.168, 375.602 145.590 C 373.931 141.590, 372.722 140.678, 371.160 142.240 M 366.160 164.240 C 363.459 166.941, 366.278 174, 370.057 174 C 372.359 174, 372.515 172.168, 370.602 167.590 C 368.931 163.590, 367.722 162.678, 366.160 164.240" stroke="none" fill="#F8F9FA" fill-rule="evenodd"/>
</svg>