<svg width="108" height="83" viewBox="0 0 108 83" fill="none" xmlns="http://www.w3.org/2000/svg">
<path d="M20.7428 10.38C20.7428 13.26 19.3561 15.7 16.5828 17.7C13.8361 19.7 10.1961 21.14 5.66281 22.02C3.71615 28.6067 2.55615 31.9 2.18281 31.9C1.80948 31.9 1.36948 31.6067 0.862813 31.02C0.356146 30.4067 0.102813 29.8067 0.102813 29.22C0.102813 28.6067 0.489479 27.0067 1.26281 24.42C3.66281 16.4467 4.91615 10.8867 5.02281 7.74C4.38281 7.15333 4.06281 6.62 4.06281 6.14C4.06281 5.47333 4.96948 4.83333 6.78281 4.22C8.59615 3.60667 10.3295 3.3 11.9828 3.3C14.5428 3.3 16.6361 3.95333 18.2628 5.26C19.9161 6.56667 20.7428 8.27333 20.7428 10.38ZM17.2228 10.62C17.2228 9.44667 16.7695 8.48667 15.8628 7.74C14.9828 6.96667 13.9161 6.58 12.6628 6.58C11.4095 6.58 9.88948 6.98 8.10281 7.78C8.36948 8.36667 8.50281 8.91333 8.50281 9.42C8.50281 10.9133 7.84948 14.0733 6.54281 18.9C9.74281 18.0467 12.3161 16.8733 14.2628 15.38C16.2361 13.86 17.2228 12.2733 17.2228 10.62ZM35.5016 13.18C35.6082 12.7533 35.7149 12.46 35.8216 12.3C35.9282 12.14 36.1549 12.06 36.5016 12.06C36.8749 12.06 37.3149 12.4067 37.8216 13.1C38.3549 13.7933 38.6216 14.46 38.6216 15.1C38.6216 15.4467 38.0349 17.5 36.8616 21.26C35.6882 25.02 34.7816 28.0067 34.1416 30.22C33.8216 31.34 33.3682 31.9 32.7816 31.9C32.4349 31.9 32.1416 31.7533 31.9016 31.46C31.6616 31.1667 31.5416 30.6333 31.5416 29.86C31.5416 29.0867 31.8482 27.6867 32.4616 25.66C31.3416 27.4733 30.1282 28.9667 28.8216 30.14C27.5149 31.3133 26.3149 31.9 25.2216 31.9C24.1549 31.9 23.1416 31.3933 22.1816 30.38C21.2216 29.3667 20.7416 28.3267 20.7416 27.26C20.7416 24.7267 21.4749 21.5667 22.9416 17.78C24.4349 13.9667 25.6749 12.06 26.6616 12.06C27.1416 12.06 27.5549 12.2867 27.9016 12.74C28.2749 13.1667 28.4616 13.66 28.4616 14.22C28.4616 14.46 28.1016 15.3267 27.3816 16.82C26.6616 18.2867 25.9416 20.02 25.2216 22.02C24.5016 23.9933 24.1416 25.7267 24.1416 27.22C24.1416 27.6467 24.2749 28.0067 24.5416 28.3C24.8082 28.5667 25.1282 28.7 25.5016 28.7C26.5149 28.7 27.7149 27.8067 29.1016 26.02C30.5149 24.2333 31.7949 22.1533 32.9416 19.78C34.0882 17.4067 34.9416 15.2067 35.5016 13.18ZM48.4794 4.22C48.4794 9.23333 47.4394 15.74 45.3594 23.74C44.026 29.18 43.0927 31.9 42.5594 31.9C42.186 31.9 41.746 31.6067 41.2394 31.02C40.7594 30.4333 40.5194 29.98 40.5194 29.66C40.5194 29.34 40.906 27.6867 41.6794 24.7C42.4527 21.7133 43.226 18.0467 43.9994 13.7C44.7727 9.32667 45.1594 5.39333 45.1594 1.9C45.1594 1.52666 45.2127 1.26 45.3194 1.1C45.426 0.939999 45.6527 0.86 45.9994 0.86C46.346 0.86 46.8394 1.24667 47.4794 2.02C48.146 2.76667 48.4794 3.5 48.4794 4.22ZM58.2841 4.22C58.2841 9.23333 57.2441 15.74 55.1641 23.74C53.8307 29.18 52.8974 31.9 52.3641 31.9C51.9907 31.9 51.5507 31.6067 51.0441 31.02C50.5641 30.4333 50.3241 29.98 50.3241 29.66C50.3241 29.34 50.7107 27.6867 51.4841 24.7C52.2574 21.7133 53.0307 18.0467 53.8041 13.7C54.5774 9.32667 54.9641 5.39333 54.9641 1.9C54.9641 1.52666 55.0174 1.26 55.1241 1.1C55.2307 0.939999 55.4574 0.86 55.8041 0.86C56.1507 0.86 56.6441 1.24667 57.2841 2.02C57.9507 2.76667 58.2841 3.5 58.2841 4.22ZM80.7434 27.9C80.7434 28.4067 81.0368 28.66 81.6234 28.66C82.6368 28.66 83.8634 28.38 85.3034 27.82C86.7701 27.2333 87.5834 26.94 87.7434 26.94C88.2234 26.94 88.4634 27.1933 88.4634 27.7C88.4634 28.4733 87.6634 29.3667 86.0634 30.38C84.4901 31.3933 83.0501 31.9 81.7434 31.9C80.4634 31.9 79.3968 31.5533 78.5434 30.86C77.6901 30.14 77.2634 29.4067 77.2634 28.66C77.2634 27.9133 77.4234 26.9667 77.7434 25.82C78.0634 24.6467 78.5168 23.1133 79.1034 21.22C79.7168 19.3 80.1968 17.7133 80.5434 16.46C79.2901 16.7533 78.4501 16.9 78.0234 16.9C77.5968 16.9 77.1701 16.6867 76.7434 16.26C76.3434 15.8067 76.1434 15.38 76.1434 14.98C76.1434 14.34 77.8768 13.7267 81.3434 13.14C81.8234 10.9267 82.0634 8.96667 82.0634 7.26C82.0634 6.46 82.3301 6.06 82.8634 6.06C83.3168 6.06 83.8768 6.35333 84.5434 6.94C85.2101 7.5 85.5434 8.14 85.5434 8.86C85.5434 9.58 85.3168 10.8467 84.8634 12.66C86.3834 12.5267 87.5968 12.46 88.5034 12.46C90.1034 12.46 90.9034 12.8067 90.9034 13.5C90.9034 13.9 90.4634 14.2333 89.5834 14.5C88.7301 14.7667 86.9168 15.18 84.1434 15.74C83.5834 17.8467 82.8768 20.26 82.0234 22.98C81.1701 25.6733 80.7434 27.3133 80.7434 27.9ZM103.812 18.86C103.812 17.9533 103.666 17.1 103.372 16.3C103.079 15.4733 102.652 14.8733 102.092 14.5C100.252 15.0067 98.6655 16.4333 97.3322 18.78C96.0255 21.1 95.3722 23.2867 95.3722 25.34C95.3722 27.3933 95.8789 28.6733 96.8922 29.18C98.8122 28.8067 100.439 27.5 101.772 25.26C103.132 22.9933 103.812 20.86 103.812 18.86ZM93.2922 19.22C94.2255 17.14 95.4389 15.4333 96.9322 14.1C98.4522 12.74 99.9989 12.06 101.572 12.06C103.172 12.06 104.506 12.74 105.572 14.1C106.639 15.4333 107.172 17.0733 107.172 19.02C107.172 20.94 106.706 22.9133 105.772 24.94C104.839 26.94 103.546 28.6067 101.892 29.94C100.266 31.2467 98.5322 31.9 96.6922 31.9C95.3322 31.9 94.1989 31.2733 93.2922 30.02C92.3855 28.7667 91.9322 27.18 91.9322 25.26C91.9322 23.3133 92.3855 21.3 93.2922 19.22ZM35.3591 51.94C36.5057 51.94 37.4924 52.6733 38.3191 54.14C39.1724 55.6067 39.5991 57.1267 39.5991 58.7C39.5991 60.2467 39.1457 61.8067 38.2391 63.38C37.3324 64.9267 36.2124 66.3133 34.8791 67.54C33.5457 68.7667 32.0657 69.7933 30.4391 70.62C28.8391 71.42 27.3591 71.82 25.9991 71.82C25.4657 71.82 24.9591 71.7533 24.4791 71.62C24.3724 72.0733 24.1857 72.8867 23.9191 74.06C23.6524 75.2333 23.4257 76.2067 23.2391 76.98C23.0524 77.7533 22.8391 78.58 22.5991 79.46C22.1191 81.2733 21.6924 82.18 21.3191 82.18C20.9457 82.18 20.5591 81.8867 20.1591 81.3C19.7324 80.74 19.5191 80.2333 19.5191 79.78C19.5191 79.3267 19.9457 77.38 20.7991 73.94C23.3591 63.5667 24.6391 56.58 24.6391 52.98C24.6391 52.18 24.9324 51.78 25.5191 51.78C25.9991 51.78 26.5724 52.14 27.2391 52.86C27.9324 53.5533 28.2791 54.3267 28.2791 55.18C28.2791 55.6067 28.2257 56.0733 28.1191 56.58C30.4924 53.4867 32.9057 51.94 35.3591 51.94ZM25.5991 68.7C27.0124 68.7 28.5324 68.22 30.1591 67.26C31.8124 66.3 33.2124 65.0333 34.3591 63.46C35.5324 61.86 36.1191 60.2733 36.1191 58.7C36.1191 56.4867 35.5991 55.38 34.5591 55.38C33.5191 55.38 32.1057 56.2733 30.3191 58.06C28.5591 59.8467 27.1591 62.1667 26.1191 65.02L25.1991 68.7H25.5991ZM57.3406 58.7C57.3406 60.1133 56.5673 61.2733 55.0206 62.18C53.5006 63.06 51.7673 63.5 49.8206 63.5C47.9006 63.5 46.154 63.2867 44.5806 62.86C44.2073 64.0333 44.0206 65.0867 44.0206 66.02C44.0206 66.9267 44.3006 67.6333 44.8606 68.14C45.4473 68.6467 46.394 68.9 47.7006 68.9C49.034 68.9 50.394 68.6733 51.7806 68.22C53.194 67.74 53.9673 67.5 54.1006 67.5C54.794 67.5 55.1406 67.7667 55.1406 68.3C55.1406 69.02 54.3273 69.8067 52.7006 70.66C51.074 71.4867 49.4873 71.9 47.9406 71.9C45.8606 71.9 44.1673 71.2867 42.8606 70.06C41.554 68.8067 40.9006 67.2333 40.9006 65.34C40.9006 63.4467 41.4073 61.4733 42.4206 59.42C43.434 57.34 44.7406 55.5933 46.3406 54.18C47.9406 52.7667 49.5273 52.06 51.1006 52.06C52.674 52.06 54.1006 52.8067 55.3806 54.3C56.6873 55.7933 57.3406 57.26 57.3406 58.7ZM51.3006 55.22C50.314 55.22 49.2873 55.74 48.2206 56.78C47.154 57.7933 46.2473 59.06 45.5006 60.58C46.5673 60.82 47.7806 60.94 49.1406 60.94C50.5006 60.94 51.6873 60.7267 52.7006 60.3C53.714 59.8467 54.2206 59.26 54.2206 58.54C54.2206 57.82 53.8873 57.0867 53.2206 56.34C52.5806 55.5933 51.9406 55.22 51.3006 55.22ZM75.3484 58.7C75.3484 60.1133 74.5751 61.2733 73.0284 62.18C71.5084 63.06 69.7751 63.5 67.8284 63.5C65.9084 63.5 64.1618 63.2867 62.5884 62.86C62.2151 64.0333 62.0284 65.0867 62.0284 66.02C62.0284 66.9267 62.3084 67.6333 62.8684 68.14C63.4551 68.6467 64.4018 68.9 65.7084 68.9C67.0418 68.9 68.4018 68.6733 69.7884 68.22C71.2018 67.74 71.9751 67.5 72.1084 67.5C72.8018 67.5 73.1484 67.7667 73.1484 68.3C73.1484 69.02 72.3351 69.8067 70.7084 70.66C69.0818 71.4867 67.4951 71.9 65.9484 71.9C63.8684 71.9 62.1751 71.2867 60.8684 70.06C59.5618 68.8067 58.9084 67.2333 58.9084 65.34C58.9084 63.4467 59.4151 61.4733 60.4284 59.42C61.4418 57.34 62.7484 55.5933 64.3484 54.18C65.9484 52.7667 67.5351 52.06 69.1084 52.06C70.6818 52.06 72.1084 52.8067 73.3884 54.3C74.6951 55.7933 75.3484 57.26 75.3484 58.7ZM69.3084 55.22C68.3218 55.22 67.2951 55.74 66.2284 56.78C65.1618 57.7933 64.2551 59.06 63.5084 60.58C64.5751 60.82 65.7884 60.94 67.1484 60.94C68.5084 60.94 69.6951 60.7267 70.7084 60.3C71.7218 59.8467 72.2284 59.26 72.2284 58.54C72.2284 57.82 71.8951 57.0867 71.2284 56.34C70.5884 55.5933 69.9484 55.22 69.3084 55.22ZM85.2763 44.22C85.2763 49.2333 84.2363 55.74 82.1563 63.74C80.8229 69.18 79.8896 71.9 79.3563 71.9C78.9829 71.9 78.5429 71.6067 78.0363 71.02C77.5563 70.4333 77.3163 69.98 77.3163 69.66C77.3163 69.34 77.7029 67.6867 78.4763 64.7C79.2496 61.7133 80.0229 58.0467 80.7963 53.7C81.5696 49.3267 81.9563 45.3933 81.9563 41.9C81.9563 41.5267 82.0096 41.26 82.1163 41.1C82.2229 40.94 82.4496 40.86 82.7963 40.86C83.1429 40.86 83.6363 41.2467 84.2763 42.02C84.9429 42.7667 85.2763 43.5 85.2763 44.22Z" fill="#F8F9FA"/>
</svg>
