<svg width="166" height="40" viewBox="0 0 166 40" fill="none" xmlns="http://www.w3.org/2000/svg">
<path d="M0.538844 14L4.60684 2.12H8.38684L12.4548 14H9.64684L6.64084 4.172H6.37084L3.34684 14H0.538844ZM2.82484 11.66V9.896H10.5468V11.66H2.82484ZM13.936 14V1.13H16.492V14H13.936ZM22.6555 14.252C22.0195 14.252 21.4435 14.192 20.9275 14.072C20.4115 13.952 19.9675 13.778 19.5955 13.55C19.2235 13.322 18.9235 13.052 18.6955 12.74C18.4675 12.416 18.3175 12.056 18.2455 11.66L20.2255 10.85C20.2735 11.114 20.4055 11.36 20.6215 11.588C20.8375 11.816 21.1255 12.002 21.4855 12.146C21.8575 12.278 22.3015 12.344 22.8175 12.344C23.3695 12.344 23.7955 12.266 24.0955 12.11C24.3955 11.942 24.5455 11.708 24.5455 11.408C24.5455 11.18 24.4615 11 24.2935 10.868C24.1255 10.736 23.8795 10.622 23.5555 10.526C23.2315 10.43 22.8415 10.34 22.3855 10.256C21.9415 10.148 21.4855 10.034 21.0175 9.914C20.5615 9.794 20.1355 9.626 19.7395 9.41C19.3555 9.194 19.0375 8.912 18.7855 8.564C18.5455 8.204 18.4255 7.748 18.4255 7.196C18.4255 6.62 18.5815 6.116 18.8935 5.684C19.2055 5.252 19.6615 4.916 20.2615 4.676C20.8615 4.424 21.5935 4.298 22.4575 4.298C23.2375 4.298 23.9215 4.406 24.5095 4.622C25.0975 4.826 25.5775 5.126 25.9495 5.522C26.3335 5.906 26.5915 6.368 26.7235 6.908L24.6175 7.61C24.5695 7.322 24.4495 7.07 24.2575 6.854C24.0775 6.638 23.8315 6.476 23.5195 6.368C23.2195 6.26 22.8655 6.206 22.4575 6.206C21.9415 6.206 21.5395 6.29 21.2515 6.458C20.9755 6.626 20.8375 6.848 20.8375 7.124C20.8375 7.352 20.9275 7.538 21.1075 7.682C21.2995 7.826 21.5635 7.946 21.8995 8.042C22.2355 8.126 22.6315 8.216 23.0875 8.312C23.5675 8.408 24.0355 8.522 24.4915 8.654C24.9475 8.774 25.3555 8.936 25.7155 9.14C26.0875 9.344 26.3815 9.614 26.5975 9.95C26.8135 10.286 26.9215 10.718 26.9215 11.246C26.9215 11.87 26.7535 12.41 26.4175 12.866C26.0815 13.31 25.5955 13.652 24.9595 13.892C24.3235 14.132 23.5555 14.252 22.6555 14.252ZM33.0736 14.252C32.1256 14.252 31.2916 14.066 30.5716 13.694C29.8516 13.31 29.2876 12.752 28.8796 12.02C28.4716 11.276 28.2676 10.352 28.2676 9.248C28.2676 8.144 28.4716 7.226 28.8796 6.494C29.2996 5.762 29.8696 5.216 30.5896 4.856C31.3216 4.484 32.1496 4.298 33.0736 4.298C34.0216 4.298 34.8556 4.484 35.5756 4.856C36.3076 5.228 36.8776 5.786 37.2856 6.53C37.7056 7.262 37.9156 8.18 37.9156 9.284C37.9156 10.4 37.6996 11.33 37.2676 12.074C36.8476 12.806 36.2716 13.352 35.5396 13.712C34.8196 14.072 33.9976 14.252 33.0736 14.252ZM33.1636 12.326C33.6316 12.326 34.0216 12.218 34.3336 12.002C34.6576 11.786 34.8976 11.462 35.0536 11.03C35.2216 10.586 35.3056 10.052 35.3056 9.428C35.3056 8.768 35.2156 8.21 35.0356 7.754C34.8676 7.286 34.6156 6.932 34.2796 6.692C33.9436 6.44 33.5176 6.314 33.0016 6.314C32.5576 6.314 32.1736 6.422 31.8496 6.638C31.5256 6.842 31.2796 7.166 31.1116 7.61C30.9436 8.042 30.8596 8.576 30.8596 9.212C30.8596 10.232 31.0636 11.006 31.4716 11.534C31.8796 12.062 32.4436 12.326 33.1636 12.326ZM38.5017 16.376C38.7177 15.824 38.8677 15.308 38.9517 14.828C39.0477 14.348 39.1017 13.868 39.1137 13.388C39.1377 12.896 39.1497 12.362 39.1497 11.786H41.5257C41.5257 12.602 41.4777 13.304 41.3817 13.892C41.2857 14.468 41.1537 14.954 40.9857 15.35C40.8297 15.758 40.6677 16.1 40.4997 16.376H38.5017ZM47.4253 14V2.12H50.0713V14H47.4253ZM52.1048 5.684L51.7988 1.13H54.1748L53.8508 5.684H52.1048ZM55.6138 14V7.952V4.55H57.6838V7.376H58.0258C58.1938 6.68 58.4158 6.11 58.6918 5.666C58.9678 5.21 59.2978 4.868 59.6818 4.64C60.0778 4.412 60.5398 4.298 61.0678 4.298C61.6318 4.298 62.0998 4.424 62.4718 4.676C62.8438 4.928 63.1318 5.282 63.3358 5.738C63.5398 6.182 63.6718 6.728 63.7318 7.376H64.0198C64.1998 6.668 64.4398 6.086 64.7398 5.63C65.0518 5.174 65.4178 4.838 65.8378 4.622C66.2698 4.406 66.7438 4.298 67.2598 4.298C67.7758 4.298 68.2258 4.4 68.6098 4.604C69.0058 4.808 69.3358 5.114 69.5998 5.522C69.8638 5.918 70.0618 6.422 70.1938 7.034C70.3258 7.634 70.3918 8.33 70.3918 9.122V14H67.7998V9.446C67.7998 8.798 67.7458 8.258 67.6378 7.826C67.5298 7.382 67.3618 7.052 67.1338 6.836C66.9058 6.62 66.6118 6.512 66.2518 6.512C65.8558 6.512 65.5138 6.65 65.2258 6.926C64.9378 7.19 64.7098 7.556 64.5418 8.024C64.3738 8.492 64.2838 9.026 64.2718 9.626V14H61.7338V9.518C61.7338 8.846 61.6738 8.294 61.5538 7.862C61.4338 7.418 61.2598 7.082 61.0318 6.854C60.8038 6.626 60.5158 6.512 60.1678 6.512C59.7598 6.512 59.4118 6.65 59.1238 6.926C58.8358 7.19 58.6138 7.562 58.4578 8.042C58.3018 8.522 58.2178 9.056 58.2058 9.644V14H55.6138ZM76.7954 14V4.55H79.3874V14H76.7954ZM78.1094 3.128C77.6054 3.128 77.2154 3.026 76.9394 2.822C76.6754 2.606 76.5434 2.294 76.5434 1.886C76.5434 1.466 76.6754 1.148 76.9394 0.932C77.2154 0.716 77.6054 0.608 78.1094 0.608C78.6254 0.608 79.0154 0.716 79.2794 0.932C79.5554 1.148 79.6934 1.466 79.6934 1.886C79.6934 2.282 79.5554 2.588 79.2794 2.804C79.0154 3.02 78.6254 3.128 78.1094 3.128ZM81.7876 14V8.276V4.55H83.9116L83.8936 7.376H84.2536C84.4096 6.692 84.6316 6.122 84.9196 5.666C85.2076 5.21 85.5676 4.868 85.9996 4.64C86.4436 4.412 86.9656 4.298 87.5656 4.298C88.6576 4.298 89.4856 4.682 90.0496 5.45C90.6256 6.218 90.9136 7.424 90.9136 9.068V14H88.3036V9.356C88.3036 8.348 88.1536 7.616 87.8536 7.16C87.5656 6.692 87.1396 6.458 86.5756 6.458C86.0956 6.458 85.6936 6.608 85.3696 6.908C85.0456 7.208 84.7996 7.604 84.6316 8.096C84.4756 8.576 84.3916 9.116 84.3796 9.716V14H81.7876ZM96.6179 14.216C95.5619 14.216 94.7819 13.94 94.2779 13.388C93.7859 12.824 93.5399 11.93 93.5399 10.706V6.584H92.1719L92.2079 4.55H93.1619C93.5339 4.55 93.8099 4.496 93.9899 4.388C94.1699 4.28 94.2779 4.082 94.3139 3.794L94.5479 2.444H96.0239V4.55H98.4179V6.656H96.0239V10.598C96.0239 11.03 96.1259 11.342 96.3299 11.534C96.5339 11.726 96.8459 11.822 97.2659 11.822C97.4939 11.822 97.7099 11.798 97.9139 11.75C98.1299 11.702 98.3159 11.624 98.4719 11.516V13.928C98.0999 14.048 97.7579 14.126 97.4459 14.162C97.1339 14.198 96.8579 14.216 96.6179 14.216ZM104.601 14.252C103.821 14.252 103.125 14.144 102.513 13.928C101.913 13.712 101.403 13.4 100.983 12.992C100.563 12.584 100.239 12.08 100.011 11.48C99.7955 10.88 99.6875 10.202 99.6875 9.446C99.6875 8.702 99.7895 8.018 99.9935 7.394C100.209 6.758 100.521 6.212 100.929 5.756C101.337 5.288 101.835 4.928 102.423 4.676C103.011 4.424 103.677 4.298 104.421 4.298C105.141 4.298 105.783 4.418 106.347 4.658C106.911 4.886 107.379 5.234 107.751 5.702C108.135 6.17 108.411 6.746 108.579 7.43C108.759 8.102 108.825 8.876 108.777 9.752L101.361 9.824V8.402L107.283 8.348L106.365 9.068C106.449 8.432 106.407 7.91 106.239 7.502C106.071 7.094 105.825 6.794 105.501 6.602C105.189 6.41 104.841 6.314 104.457 6.314C104.001 6.314 103.599 6.434 103.251 6.674C102.903 6.914 102.633 7.268 102.441 7.736C102.249 8.192 102.153 8.744 102.153 9.392C102.153 10.412 102.375 11.162 102.819 11.642C103.275 12.122 103.869 12.362 104.601 12.362C104.937 12.362 105.219 12.32 105.447 12.236C105.687 12.14 105.879 12.02 106.023 11.876C106.179 11.732 106.299 11.57 106.383 11.39C106.479 11.21 106.557 11.03 106.617 10.85L108.867 11.336C108.759 11.78 108.597 12.182 108.381 12.542C108.177 12.89 107.901 13.196 107.553 13.46C107.205 13.712 106.785 13.904 106.293 14.036C105.813 14.18 105.249 14.252 104.601 14.252ZM110.668 14V9.428V4.55H112.81L112.828 7.772H113.17C113.266 6.968 113.428 6.314 113.656 5.81C113.896 5.306 114.226 4.934 114.646 4.694C115.066 4.454 115.588 4.334 116.212 4.334C116.32 4.334 116.434 4.34 116.554 4.352C116.686 4.352 116.836 4.37 117.004 4.406L116.896 7.16C116.716 7.076 116.518 7.016 116.302 6.98C116.086 6.944 115.894 6.926 115.726 6.926C115.258 6.926 114.856 7.034 114.52 7.25C114.184 7.466 113.908 7.778 113.692 8.186C113.488 8.582 113.35 9.068 113.278 9.644V14H110.668ZM122.83 14.252C122.05 14.252 121.354 14.144 120.742 13.928C120.142 13.712 119.632 13.4 119.212 12.992C118.792 12.584 118.468 12.08 118.24 11.48C118.024 10.88 117.916 10.202 117.916 9.446C117.916 8.702 118.018 8.018 118.222 7.394C118.438 6.758 118.75 6.212 119.158 5.756C119.566 5.288 120.064 4.928 120.652 4.676C121.24 4.424 121.906 4.298 122.65 4.298C123.37 4.298 124.012 4.418 124.576 4.658C125.14 4.886 125.608 5.234 125.98 5.702C126.364 6.17 126.64 6.746 126.808 7.43C126.988 8.102 127.054 8.876 127.006 9.752L119.59 9.824V8.402L125.512 8.348L124.594 9.068C124.678 8.432 124.636 7.91 124.468 7.502C124.3 7.094 124.054 6.794 123.73 6.602C123.418 6.41 123.07 6.314 122.686 6.314C122.23 6.314 121.828 6.434 121.48 6.674C121.132 6.914 120.862 7.268 120.67 7.736C120.478 8.192 120.382 8.744 120.382 9.392C120.382 10.412 120.604 11.162 121.048 11.642C121.504 12.122 122.098 12.362 122.83 12.362C123.166 12.362 123.448 12.32 123.676 12.236C123.916 12.14 124.108 12.02 124.252 11.876C124.408 11.732 124.528 11.57 124.612 11.39C124.708 11.21 124.786 11.03 124.846 10.85L127.096 11.336C126.988 11.78 126.826 12.182 126.61 12.542C126.406 12.89 126.13 13.196 125.782 13.46C125.434 13.712 125.014 13.904 124.522 14.036C124.042 14.18 123.478 14.252 122.83 14.252ZM132.782 14.252C132.146 14.252 131.57 14.192 131.054 14.072C130.538 13.952 130.094 13.778 129.722 13.55C129.35 13.322 129.05 13.052 128.822 12.74C128.594 12.416 128.444 12.056 128.372 11.66L130.352 10.85C130.4 11.114 130.532 11.36 130.748 11.588C130.964 11.816 131.252 12.002 131.612 12.146C131.984 12.278 132.428 12.344 132.944 12.344C133.496 12.344 133.922 12.266 134.222 12.11C134.522 11.942 134.672 11.708 134.672 11.408C134.672 11.18 134.588 11 134.42 10.868C134.252 10.736 134.006 10.622 133.682 10.526C133.358 10.43 132.968 10.34 132.512 10.256C132.068 10.148 131.612 10.034 131.144 9.914C130.688 9.794 130.262 9.626 129.866 9.41C129.482 9.194 129.164 8.912 128.912 8.564C128.672 8.204 128.552 7.748 128.552 7.196C128.552 6.62 128.708 6.116 129.02 5.684C129.332 5.252 129.788 4.916 130.388 4.676C130.988 4.424 131.72 4.298 132.584 4.298C133.364 4.298 134.048 4.406 134.636 4.622C135.224 4.826 135.704 5.126 136.076 5.522C136.46 5.906 136.718 6.368 136.85 6.908L134.744 7.61C134.696 7.322 134.576 7.07 134.384 6.854C134.204 6.638 133.958 6.476 133.646 6.368C133.346 6.26 132.992 6.206 132.584 6.206C132.068 6.206 131.666 6.29 131.378 6.458C131.102 6.626 130.964 6.848 130.964 7.124C130.964 7.352 131.054 7.538 131.234 7.682C131.426 7.826 131.69 7.946 132.026 8.042C132.362 8.126 132.758 8.216 133.214 8.312C133.694 8.408 134.162 8.522 134.618 8.654C135.074 8.774 135.482 8.936 135.842 9.14C136.214 9.344 136.508 9.614 136.724 9.95C136.94 10.286 137.048 10.718 137.048 11.246C137.048 11.87 136.88 12.41 136.544 12.866C136.208 13.31 135.722 13.652 135.086 13.892C134.45 14.132 133.682 14.252 132.782 14.252ZM142.303 14.216C141.247 14.216 140.467 13.94 139.963 13.388C139.471 12.824 139.225 11.93 139.225 10.706V6.584H137.857L137.893 4.55H138.847C139.219 4.55 139.495 4.496 139.675 4.388C139.855 4.28 139.963 4.082 139.999 3.794L140.233 2.444H141.709V4.55H144.103V6.656H141.709V10.598C141.709 11.03 141.811 11.342 142.015 11.534C142.219 11.726 142.531 11.822 142.951 11.822C143.179 11.822 143.395 11.798 143.599 11.75C143.815 11.702 144.001 11.624 144.157 11.516V13.928C143.785 14.048 143.443 14.126 143.131 14.162C142.819 14.198 142.543 14.216 142.303 14.216ZM150.287 14.252C149.507 14.252 148.811 14.144 148.199 13.928C147.599 13.712 147.089 13.4 146.669 12.992C146.249 12.584 145.925 12.08 145.697 11.48C145.481 10.88 145.373 10.202 145.373 9.446C145.373 8.702 145.475 8.018 145.679 7.394C145.895 6.758 146.207 6.212 146.615 5.756C147.023 5.288 147.521 4.928 148.109 4.676C148.697 4.424 149.363 4.298 150.107 4.298C150.827 4.298 151.469 4.418 152.033 4.658C152.597 4.886 153.065 5.234 153.437 5.702C153.821 6.17 154.097 6.746 154.265 7.43C154.445 8.102 154.511 8.876 154.463 9.752L147.047 9.824V8.402L152.969 8.348L152.051 9.068C152.135 8.432 152.093 7.91 151.925 7.502C151.757 7.094 151.511 6.794 151.187 6.602C150.875 6.41 150.527 6.314 150.143 6.314C149.687 6.314 149.285 6.434 148.937 6.674C148.589 6.914 148.319 7.268 148.127 7.736C147.935 8.192 147.839 8.744 147.839 9.392C147.839 10.412 148.061 11.162 148.505 11.642C148.961 12.122 149.555 12.362 150.287 12.362C150.623 12.362 150.905 12.32 151.133 12.236C151.373 12.14 151.565 12.02 151.709 11.876C151.865 11.732 151.985 11.57 152.069 11.39C152.165 11.21 152.243 11.03 152.303 10.85L154.553 11.336C154.445 11.78 154.283 12.182 154.067 12.542C153.863 12.89 153.587 13.196 153.239 13.46C152.891 13.712 152.471 13.904 151.979 14.036C151.499 14.18 150.935 14.252 150.287 14.252ZM159.915 14.252C159.123 14.252 158.427 14.048 157.827 13.64C157.239 13.232 156.783 12.656 156.459 11.912C156.135 11.168 155.973 10.286 155.973 9.266C155.973 8.306 156.117 7.454 156.405 6.71C156.693 5.966 157.119 5.384 157.683 4.964C158.247 4.544 158.949 4.334 159.789 4.334C160.401 4.334 160.917 4.448 161.337 4.676C161.757 4.904 162.099 5.24 162.363 5.684C162.639 6.116 162.855 6.638 163.011 7.25H163.425C163.341 6.866 163.263 6.494 163.191 6.134C163.131 5.762 163.083 5.408 163.047 5.072C163.011 4.736 162.993 4.442 162.993 4.19V1.13H165.585V9.356V14H163.425V11.264H163.065C162.933 11.936 162.729 12.494 162.453 12.938C162.177 13.382 161.823 13.712 161.391 13.928C160.971 14.144 160.479 14.252 159.915 14.252ZM160.779 12.128C161.175 12.128 161.511 12.044 161.787 11.876C162.063 11.708 162.291 11.492 162.471 11.228C162.651 10.952 162.783 10.658 162.867 10.346C162.951 10.022 162.993 9.722 162.993 9.446V9.104C162.993 8.876 162.957 8.642 162.885 8.402C162.825 8.15 162.735 7.904 162.615 7.664C162.495 7.424 162.345 7.214 162.165 7.034C161.985 6.842 161.775 6.692 161.535 6.584C161.295 6.476 161.031 6.422 160.743 6.422C160.311 6.422 159.945 6.542 159.645 6.782C159.345 7.022 159.111 7.358 158.943 7.79C158.775 8.21 158.691 8.702 158.691 9.266C158.691 9.842 158.775 10.346 158.943 10.778C159.123 11.21 159.369 11.546 159.681 11.786C159.993 12.014 160.359 12.128 160.779 12.128ZM26.021 36V26.55H28.613V36H26.021ZM27.335 25.128C26.831 25.128 26.441 25.026 26.165 24.822C25.901 24.606 25.769 24.294 25.769 23.886C25.769 23.466 25.901 23.148 26.165 22.932C26.441 22.716 26.831 22.608 27.335 22.608C27.851 22.608 28.241 22.716 28.505 22.932C28.781 23.148 28.919 23.466 28.919 23.886C28.919 24.282 28.781 24.588 28.505 24.804C28.241 25.02 27.851 25.128 27.335 25.128ZM31.0132 36V30.276V26.55H33.1372L33.1192 29.376H33.4792C33.6352 28.692 33.8572 28.122 34.1452 27.666C34.4332 27.21 34.7932 26.868 35.2252 26.64C35.6692 26.412 36.1912 26.298 36.7912 26.298C37.8832 26.298 38.7112 26.682 39.2752 27.45C39.8512 28.218 40.1392 29.424 40.1392 31.068V36H37.5292V31.356C37.5292 30.348 37.3792 29.616 37.0792 29.16C36.7912 28.692 36.3652 28.458 35.8012 28.458C35.3212 28.458 34.9192 28.608 34.5952 28.908C34.2712 29.208 34.0252 29.604 33.8572 30.096C33.7012 30.576 33.6172 31.116 33.6052 31.716V36H31.0132ZM49.9551 36.252C49.1631 36.252 48.4671 36.048 47.8671 35.64C47.2791 35.232 46.8231 34.656 46.4991 33.912C46.1751 33.168 46.0131 32.286 46.0131 31.266C46.0131 30.306 46.1571 29.454 46.4451 28.71C46.7331 27.966 47.1591 27.384 47.7231 26.964C48.2871 26.544 48.9891 26.334 49.8291 26.334C50.4411 26.334 50.9571 26.448 51.3771 26.676C51.7971 26.904 52.1391 27.24 52.4031 27.684C52.6791 28.116 52.8951 28.638 53.0511 29.25H53.4651C53.3811 28.866 53.3031 28.494 53.2311 28.134C53.1711 27.762 53.1231 27.408 53.0871 27.072C53.0511 26.736 53.0331 26.442 53.0331 26.19V23.13H55.6251V31.356V36H53.4651V33.264H53.1051C52.9731 33.936 52.7691 34.494 52.4931 34.938C52.2171 35.382 51.8631 35.712 51.4311 35.928C51.0111 36.144 50.5191 36.252 49.9551 36.252ZM50.8191 34.128C51.2151 34.128 51.5511 34.044 51.8271 33.876C52.1031 33.708 52.3311 33.492 52.5111 33.228C52.6911 32.952 52.8231 32.658 52.9071 32.346C52.9911 32.022 53.0331 31.722 53.0331 31.446V31.104C53.0331 30.876 52.9971 30.642 52.9251 30.402C52.8651 30.15 52.7751 29.904 52.6551 29.664C52.5351 29.424 52.3851 29.214 52.2051 29.034C52.0251 28.842 51.8151 28.692 51.5751 28.584C51.3351 28.476 51.0711 28.422 50.7831 28.422C50.3511 28.422 49.9851 28.542 49.6851 28.782C49.3851 29.022 49.1511 29.358 48.9831 29.79C48.8151 30.21 48.7311 30.702 48.7311 31.266C48.7311 31.842 48.8151 32.346 48.9831 32.778C49.1631 33.21 49.4091 33.546 49.7211 33.786C50.0331 34.014 50.3991 34.128 50.8191 34.128ZM58.0132 36V26.55H60.6052V36H58.0132ZM59.3272 25.128C58.8232 25.128 58.4332 25.026 58.1572 24.822C57.8932 24.606 57.7612 24.294 57.7612 23.886C57.7612 23.466 57.8932 23.148 58.1572 22.932C58.4332 22.716 58.8232 22.608 59.3272 22.608C59.8432 22.608 60.2332 22.716 60.4972 22.932C60.7732 23.148 60.9112 23.466 60.9112 23.886C60.9112 24.282 60.7732 24.588 60.4972 24.804C60.2332 25.02 59.8432 25.128 59.3272 25.128ZM65.1654 36L62.0154 26.568H64.8774L66.8754 33.948H67.1634L69.1614 26.568H71.9154L68.7474 36H65.1654ZM73.3062 36V26.55H75.8982V36H73.3062ZM74.6202 25.128C74.1162 25.128 73.7262 25.026 73.4502 24.822C73.1862 24.606 73.0542 24.294 73.0542 23.886C73.0542 23.466 73.1862 23.148 73.4502 22.932C73.7262 22.716 74.1162 22.608 74.6202 22.608C75.1362 22.608 75.5262 22.716 75.7902 22.932C76.0662 23.148 76.2042 23.466 76.2042 23.886C76.2042 24.282 76.0662 24.588 75.7902 24.804C75.5262 25.02 75.1362 25.128 74.6202 25.128ZM78.2984 36V30.276V26.55H80.4224L80.4044 29.376H80.7644C80.9204 28.692 81.1424 28.122 81.4304 27.666C81.7184 27.21 82.0784 26.868 82.5104 26.64C82.9544 26.412 83.4764 26.298 84.0764 26.298C85.1684 26.298 85.9964 26.682 86.5604 27.45C87.1364 28.218 87.4244 29.424 87.4244 31.068V36H84.8144V31.356C84.8144 30.348 84.6644 29.616 84.3644 29.16C84.0764 28.692 83.6504 28.458 83.0864 28.458C82.6064 28.458 82.2044 28.608 81.8804 28.908C81.5564 29.208 81.3104 29.604 81.1424 30.096C80.9864 30.576 80.9024 31.116 80.8904 31.716V36H78.2984ZM93.3978 39.294C92.3658 39.294 91.5138 39.21 90.8418 39.042C90.1818 38.886 89.6958 38.652 89.3838 38.34C89.0718 38.028 88.9158 37.638 88.9158 37.17C88.9158 36.618 89.1318 36.168 89.5638 35.82C90.0078 35.472 90.6558 35.262 91.5078 35.19V34.83C90.8598 34.83 90.3618 34.764 90.0138 34.632C89.6658 34.488 89.4918 34.242 89.4918 33.894C89.4918 33.558 89.6598 33.258 89.9958 32.994C90.3438 32.73 90.9138 32.52 91.7058 32.364V32.004C90.9618 31.956 90.3798 31.716 89.9598 31.284C89.5398 30.852 89.3298 30.294 89.3298 29.61C89.3298 29.01 89.4978 28.476 89.8338 28.008C90.1698 27.528 90.6678 27.15 91.3278 26.874C91.9998 26.586 92.8218 26.442 93.7938 26.442H98.5818V28.422L95.6118 28.008V28.422C96.3798 28.53 96.9318 28.722 97.2678 28.998C97.6158 29.274 97.7898 29.658 97.7898 30.15C97.7898 30.642 97.6278 31.074 97.3038 31.446C96.9798 31.818 96.5178 32.112 95.9178 32.328C95.3298 32.532 94.6218 32.634 93.7938 32.634C93.6378 32.634 93.4698 32.628 93.2898 32.616C93.1098 32.604 92.8098 32.574 92.3898 32.526C92.1618 32.694 91.9818 32.844 91.8498 32.976C91.7298 33.096 91.6698 33.21 91.6698 33.318C91.6698 33.402 91.7118 33.474 91.7958 33.534C91.8918 33.594 92.0118 33.636 92.1558 33.66C92.3118 33.684 92.4678 33.696 92.6238 33.696H95.3238C95.5638 33.696 95.8758 33.714 96.2598 33.75C96.6438 33.774 97.0278 33.864 97.4118 34.02C97.7958 34.176 98.1198 34.428 98.3838 34.776C98.6478 35.112 98.7798 35.598 98.7798 36.234C98.7798 36.93 98.5818 37.506 98.1858 37.962C97.8018 38.418 97.2078 38.754 96.4038 38.97C95.6118 39.186 94.6098 39.294 93.3978 39.294ZM93.6858 37.224C94.4178 37.224 94.9878 37.182 95.3958 37.098C95.8038 37.026 96.0918 36.9 96.2598 36.72C96.4398 36.552 96.5298 36.336 96.5298 36.072C96.5298 35.832 96.4758 35.646 96.3678 35.514C96.2718 35.382 96.1398 35.292 95.9718 35.244C95.8158 35.184 95.6538 35.148 95.4858 35.136C95.3298 35.112 95.1918 35.1 95.0718 35.1H92.8038C92.2998 35.148 91.9338 35.286 91.7058 35.514C91.4898 35.73 91.3818 35.982 91.3818 36.27C91.3818 36.534 91.4658 36.732 91.6338 36.864C91.8018 36.996 92.0538 37.086 92.3898 37.134C92.7378 37.194 93.1698 37.224 93.6858 37.224ZM93.6498 31.284C94.2258 31.284 94.6578 31.146 94.9458 30.87C95.2338 30.582 95.3778 30.21 95.3778 29.754C95.3778 29.274 95.2278 28.878 94.9278 28.566C94.6398 28.254 94.2138 28.098 93.6498 28.098C93.0978 28.098 92.6658 28.254 92.3538 28.566C92.0418 28.866 91.8858 29.256 91.8858 29.736C91.8858 30.036 91.9518 30.306 92.0838 30.546C92.2278 30.774 92.4318 30.954 92.6958 31.086C92.9598 31.218 93.2778 31.284 93.6498 31.284ZM104.613 36V26.55H107.205V36H104.613ZM105.927 25.128C105.423 25.128 105.033 25.026 104.757 24.822C104.493 24.606 104.361 24.294 104.361 23.886C104.361 23.466 104.493 23.148 104.757 22.932C105.033 22.716 105.423 22.608 105.927 22.608C106.443 22.608 106.833 22.716 107.097 22.932C107.373 23.148 107.511 23.466 107.511 23.886C107.511 24.282 107.373 24.588 107.097 24.804C106.833 25.02 106.443 25.128 105.927 25.128ZM109.605 36V30.276V26.55H111.729L111.711 29.376H112.071C112.227 28.692 112.449 28.122 112.737 27.666C113.025 27.21 113.385 26.868 113.817 26.64C114.261 26.412 114.783 26.298 115.383 26.298C116.475 26.298 117.303 26.682 117.867 27.45C118.443 28.218 118.731 29.424 118.731 31.068V36H116.121V31.356C116.121 30.348 115.971 29.616 115.671 29.16C115.383 28.692 114.957 28.458 114.393 28.458C113.913 28.458 113.511 28.608 113.187 28.908C112.863 29.208 112.617 29.604 112.449 30.096C112.293 30.576 112.209 31.116 112.197 31.716V36H109.605ZM124.435 36.216C123.379 36.216 122.599 35.94 122.095 35.388C121.603 34.824 121.357 33.93 121.357 32.706V28.584H119.989L120.025 26.55H120.979C121.351 26.55 121.627 26.496 121.807 26.388C121.987 26.28 122.095 26.082 122.131 25.794L122.365 24.444H123.841V26.55H126.235V28.656H123.841V32.598C123.841 33.03 123.943 33.342 124.147 33.534C124.351 33.726 124.663 33.822 125.083 33.822C125.311 33.822 125.527 33.798 125.731 33.75C125.947 33.702 126.133 33.624 126.289 33.516V35.928C125.917 36.048 125.575 36.126 125.263 36.162C124.951 36.198 124.675 36.216 124.435 36.216ZM132.293 36.252C131.345 36.252 130.511 36.066 129.791 35.694C129.071 35.31 128.507 34.752 128.099 34.02C127.691 33.276 127.487 32.352 127.487 31.248C127.487 30.144 127.691 29.226 128.099 28.494C128.519 27.762 129.089 27.216 129.809 26.856C130.541 26.484 131.369 26.298 132.293 26.298C133.241 26.298 134.075 26.484 134.795 26.856C135.527 27.228 136.097 27.786 136.505 28.53C136.925 29.262 137.135 30.18 137.135 31.284C137.135 32.4 136.919 33.33 136.487 34.074C136.067 34.806 135.491 35.352 134.759 35.712C134.039 36.072 133.217 36.252 132.293 36.252ZM132.383 34.326C132.851 34.326 133.241 34.218 133.553 34.002C133.877 33.786 134.117 33.462 134.273 33.03C134.441 32.586 134.525 32.052 134.525 31.428C134.525 30.768 134.435 30.21 134.255 29.754C134.087 29.286 133.835 28.932 133.499 28.692C133.163 28.44 132.737 28.314 132.221 28.314C131.777 28.314 131.393 28.422 131.069 28.638C130.745 28.842 130.499 29.166 130.331 29.61C130.163 30.042 130.079 30.576 130.079 31.212C130.079 32.232 130.283 33.006 130.691 33.534C131.099 34.062 131.663 34.326 132.383 34.326ZM139.968 35.946C139.404 35.946 138.978 35.826 138.69 35.586C138.414 35.346 138.276 34.974 138.276 34.47C138.276 33.954 138.414 33.576 138.69 33.336C138.978 33.096 139.404 32.976 139.968 32.976C140.544 32.976 140.97 33.096 141.246 33.336C141.534 33.576 141.678 33.954 141.678 34.47C141.678 35.454 141.108 35.946 139.968 35.946ZM139.968 29.7C139.404 29.7 138.978 29.58 138.69 29.34C138.414 29.1 138.276 28.728 138.276 28.224C138.276 27.708 138.414 27.33 138.69 27.09C138.978 26.85 139.404 26.73 139.968 26.73C140.544 26.73 140.97 26.85 141.246 27.09C141.534 27.33 141.678 27.708 141.678 28.224C141.678 29.208 141.108 29.7 139.968 29.7Z" fill="#F8F9FA"/>
</svg>
