<svg xmlns="http://www.w3.org/2000/svg" width="128" height="46" viewBox="0 0 1282 462" version="1.1">
	<path d="M 195.455 135.455 C 193.672 137.237, 193 138.997, 193 141.882 C 193 147.449, 196.357 150, 203.680 150 C 211.882 150, 215.377 145.742, 213.359 138.210 C 211.919 132.835, 199.921 130.989, 195.455 135.455 M 759.570 135.339 C 755.935 138.974, 755.967 145.042, 759.635 147.927 C 763.685 151.113, 772.247 150.844, 775.667 147.424 C 777.847 145.244, 778.159 144.224, 777.698 140.786 C 776.943 135.156, 775.111 133.708, 768.100 133.201 C 762.734 132.813, 761.883 133.026, 759.570 135.339 M 636.183 135.902 C 629.380 138.251, 624.491 143.007, 622.397 149.311 C 619.163 159.047, 622.684 170.717, 629.996 174.498 C 635.823 177.511, 633.774 178.547, 623.251 177.906 C 617.888 177.580, 613.163 177.494, 612.750 177.715 C 612.337 177.937, 612 180.791, 612 184.059 L 612 190 619.500 190 L 627 190 627 219.500 L 627 249 634.500 249 L 642 249 642 219.500 L 642 190 653 190 L 664 190 664 183.500 L 664 177 653.687 177 C 643.739 177, 643.281 176.903, 640.751 174.250 C 637.378 170.714, 636 166.983, 636 161.385 C 636 149.188, 646.405 144.747, 658.902 151.611 C 661.323 152.941, 663.535 153.798, 663.817 153.516 C 664.100 153.234, 664.719 150.190, 665.194 146.751 C 665.986 141.021, 665.880 140.355, 663.930 138.759 C 658.279 134.138, 645.193 132.790, 636.183 135.902 M 893 192 L 893 249 900.408 249 L 907.816 249 908.243 225.250 C 908.632 203.663, 908.878 200.924, 910.953 195.174 C 916.654 179.371, 928.764 172.268, 940.124 178.063 C 943.289 179.678, 944.749 181.364, 946.834 185.813 C 949.500 191.500, 949.500 191.502, 949.819 220.250 L 950.137 249 958.069 249 L 966 249 965.983 226.250 C 965.973 213.738, 965.531 199.374, 964.999 194.332 C 962.673 172.254, 954.282 162.732, 937.162 162.741 C 922.479 162.749, 913.964 169.996, 908.954 186.750 C 908.255 189.088, 907.257 191, 906.737 191 C 906.192 191, 906.055 189.196, 906.413 186.750 C 906.756 184.412, 907.305 171.813, 907.633 158.750 L 908.229 135 900.615 135 L 893 135 893 192 M 84 195 L 84 249 91.500 249 L 99 249 99 225 L 99 201 127 201 L 155 201 155 225 L 155 249 162.500 249 L 170 249 170 195 L 170 141 162.500 141 L 155 141 155 164 L 155 187 127 187 L 99 187 99 164 L 99 141 91.500 141 L 84 141 84 195 M 263.050 163.047 C 248.124 166.123, 236.999 178.079, 233.440 194.869 C 228.331 218.974, 237.479 240.969, 255.551 248.032 C 260.492 249.964, 263.448 250.370, 273 250.429 C 283.645 250.495, 284.964 250.286, 290.747 247.615 C 299.654 243.501, 305.554 236.748, 308.396 227.413 C 308.963 225.550, 308.410 225.186, 303.266 224.035 C 300.095 223.326, 297.050 222.572, 296.499 222.361 C 295.949 222.150, 294.474 224.211, 293.222 226.940 C 289.726 234.562, 283.458 238.005, 273.101 237.994 C 265.261 237.987, 260.474 236.423, 256.049 232.425 C 250.097 227.048, 244.816 211.998, 248.141 209.892 C 248.889 209.418, 262.663 209.024, 278.750 209.015 L 308 209 308 204.065 C 308 197.064, 305.446 185.814, 302.567 180.132 C 299.373 173.829, 291.236 166.557, 285.220 164.627 C 279.025 162.641, 268.620 161.899, 263.050 163.047 M 365.500 162.442 C 364.950 162.653, 363.271 163.096, 361.768 163.427 C 358.134 164.228, 352.503 169.286, 349.455 174.487 C 348.097 176.804, 346.145 182.011, 345.117 186.058 C 342.071 198.052, 341.074 195.994, 341.725 179.059 L 342.304 164 335.652 164 L 329 164 329 206.500 L 329 249 336.500 249 L 344 249 344 228.538 C 344 209.601, 344.182 207.503, 346.445 200.376 C 351.964 182.998, 361.545 175.428, 373.635 178.895 C 376.753 179.790, 376.758 179.785, 377.378 175.256 C 378.234 169.017, 378.157 164.215, 377.193 163.619 C 376.060 162.919, 366.712 161.978, 365.500 162.442 M 459.764 163.084 C 448.283 164.766, 438.230 171.877, 433.922 181.363 C 431.031 187.731, 431.322 188.421, 437.750 190.446 C 440.913 191.442, 443.986 192.443, 444.579 192.670 C 445.173 192.897, 446.196 191.288, 446.854 189.094 C 450.901 175.584, 472.918 170.309, 482.014 180.669 C 484.272 183.241, 485 185.052, 485 188.101 C 485 196.004, 483.835 196.672, 464.423 199.894 C 448.082 202.606, 441.621 205.114, 435.909 210.963 C 430.927 216.064, 430 218.758, 430 228.136 C 430 242.873, 441.146 252.171, 457.081 250.726 C 468.359 249.704, 478.190 242.838, 483.230 232.463 C 484.423 230.008, 485.694 228, 486.055 228 C 486.750 228, 487.981 238.952, 487.993 245.250 L 488 249 495.608 249 L 503.217 249 502.503 246.250 C 502.110 244.738, 501.441 230.450, 501.017 214.500 C 500.187 183.282, 499.529 179.005, 494.550 172.477 C 491.025 167.855, 484.747 164.381, 477.566 163.077 C 470.915 161.870, 468.046 161.871, 459.764 163.084 M 827.050 163.047 C 812.124 166.123, 800.999 178.079, 797.440 194.869 C 792.331 218.974, 801.479 240.969, 819.551 248.032 C 824.492 249.964, 827.448 250.370, 837 250.429 C 847.645 250.495, 848.964 250.286, 854.747 247.615 C 863.654 243.501, 869.554 236.748, 872.396 227.413 C 872.963 225.550, 872.410 225.186, 867.266 224.035 C 864.095 223.326, 861.050 222.572, 860.499 222.361 C 859.949 222.150, 858.474 224.211, 857.222 226.940 C 853.726 234.562, 847.458 238.005, 837.101 237.994 C 834.020 237.991, 829.781 237.511, 827.679 236.928 C 819.410 234.632, 812.275 224.503, 811.749 214.311 L 811.500 209.500 841.750 209.235 L 872 208.971 872 204.051 C 872 197.063, 869.444 185.809, 866.567 180.132 C 863.373 173.829, 855.236 166.557, 849.220 164.627 C 843.025 162.641, 832.620 161.899, 827.050 163.047 M 1015.050 163.047 C 1000.124 166.123, 988.999 178.079, 985.440 194.869 C 980.331 218.974, 989.479 240.969, 1007.551 248.032 C 1012.492 249.964, 1015.448 250.370, 1025 250.429 C 1035.645 250.495, 1036.964 250.286, 1042.747 247.615 C 1051.654 243.501, 1057.554 236.748, 1060.396 227.413 C 1060.963 225.550, 1060.410 225.186, 1055.266 224.035 C 1052.095 223.326, 1049.050 222.572, 1048.499 222.361 C 1047.949 222.150, 1046.474 224.211, 1045.222 226.940 C 1041.726 234.562, 1035.458 238.005, 1025.101 237.994 C 1017.261 237.987, 1012.474 236.423, 1008.049 232.425 C 1002.097 227.048, 996.816 211.998, 1000.141 209.892 C 1000.889 209.418, 1014.663 209.024, 1030.750 209.015 L 1060 209 1059.983 203.750 C 1059.958 196.427, 1057.619 186.154, 1054.632 180.261 C 1051.380 173.842, 1043.281 166.571, 1037.220 164.627 C 1031.025 162.641, 1020.620 161.899, 1015.050 163.047 M 1118.903 163.013 C 1107.967 164.862, 1101.074 171.754, 1096.954 184.958 C 1093.959 194.559, 1093.023 192.437, 1093.695 177.570 L 1094.308 164 1087.654 164 L 1081 164 1081 206.500 L 1081 249 1088.408 249 L 1095.816 249 1096.238 225.250 C 1096.714 198.404, 1097.571 194.214, 1104.420 185.233 C 1108.979 179.255, 1112.485 177.085, 1118.791 176.338 C 1126.161 175.465, 1131.044 178.353, 1134.665 185.727 L 1137.500 191.500 1137.819 220.250 L 1138.137 249 1146.069 249 L 1154 249 1153.983 226.250 C 1153.956 191.024, 1151.909 178.522, 1144.854 170.486 C 1139.369 164.240, 1129.115 161.287, 1118.903 163.013 M 196 206.500 L 196 249 203.500 249 L 211 249 211 206.500 L 211 164 203.500 164 L 196 164 196 206.500 M 523.706 164.627 C 522.601 165.733, 522.879 213.949, 524.042 222.678 C 525.319 232.268, 529.742 241.938, 534.515 245.579 C 544.031 252.838, 560.056 252.560, 569.223 244.978 C 573.200 241.689, 578.367 232.050, 579.530 225.750 C 579.911 223.688, 580.690 222, 581.261 222 C 581.956 222, 582.112 226.470, 581.734 235.500 L 581.168 249 588.084 249 L 595 249 595 206.500 L 595 164 587.500 164 L 580 164 579.965 182.750 C 579.924 205.083, 578.464 214.817, 573.793 223.912 C 569.287 232.685, 564.671 236.264, 557.235 236.748 C 549.591 237.246, 545.359 234.931, 542 228.413 C 539.539 223.637, 539.492 223.097, 539 194.030 L 538.500 164.500 531.456 164.210 C 527.582 164.051, 524.095 164.239, 523.706 164.627 M 674 170.500 L 674 177 697.500 177 C 715.653 177, 720.992 177.284, 720.963 178.250 C 720.943 178.938, 710.368 191.842, 697.463 206.926 L 674 234.351 674 241.676 L 674 249 708 249 L 742 249 742 242.500 L 742 236 717.500 236 C 701.083 236, 693 235.654, 693 234.952 C 693 234.375, 703.800 221.375, 717 206.062 L 741 178.220 741 171.110 L 741 164 707.500 164 L 674 164 674 170.500 M 760 206.500 L 760 249 767.500 249 L 775 249 775 206.500 L 775 164 767.500 164 L 760 164 760 206.500 M 267 175.915 C 257.694 177.849, 250.806 185.264, 248.532 195.797 L 247.821 199.093 270.528 198.943 L 293.236 198.793 292.699 194.791 C 290.964 181.853, 279.377 173.343, 267 175.915 M 830.691 175.983 C 822.564 177.522, 814.524 186.272, 812.526 195.750 L 811.841 199 831.296 199 C 841.995 199, 852.203 198.709, 853.979 198.354 C 857.133 197.723, 857.193 197.611, 856.553 193.604 C 854.592 181.340, 843.241 173.605, 830.691 175.983 M 1018.691 175.983 C 1010.546 177.526, 1002.525 186.271, 1000.515 195.801 L 999.818 199.103 1022.529 198.932 L 1045.239 198.760 1044.615 194.211 C 1042.882 181.561, 1031.498 173.557, 1018.691 175.983 M 470 208.945 C 450.226 212.969, 445 216.405, 445 225.385 C 445 233.702, 449.738 237.990, 458.934 237.996 C 465.588 238.001, 471.384 235.381, 476.882 229.883 C 483.295 223.470, 486 218.037, 486 211.572 C 486 207.728, 485.612 206.031, 484.750 206.099 C 484.063 206.154, 477.425 207.434, 470 208.945" stroke="none" fill="#000000" fill-rule="evenodd"/>
</svg>