<svg xmlns="http://www.w3.org/2000/svg" width="110" height="77" viewBox="0 0 484 340" version="1.1">
	<path d="M 184.486 63.750 C 183.538 69.637, 180.100 86.127, 178.995 90.091 C 178.362 92.363, 177.077 94.100, 175.497 94.819 C 172.668 96.109, 172.350 97.625, 174.430 99.922 C 175.672 101.295, 175.611 102.548, 173.964 109.501 C 172.921 113.900, 172.053 118.528, 172.034 119.785 C 171.992 122.615, 174.759 127, 176.587 127 C 177.936 127, 178.714 124.745, 183.036 108.301 L 185.192 100.102 190.346 99.078 C 200.551 97.051, 209.118 95.784, 209.569 96.236 C 209.823 96.489, 208.898 101.486, 207.515 107.340 C 204.468 120.237, 204.389 123.137, 207.024 125.521 C 210.318 128.503, 210.488 128.124, 217.072 103.150 C 219.032 95.713, 219.586 94.692, 222.136 93.803 C 225.437 92.652, 225.934 90.057, 223 89.290 C 220.586 88.659, 220.586 89.209, 223 80 C 225.493 70.489, 225.487 67.311, 222.970 63.182 C 219.835 58.041, 217.650 59.223, 216.812 66.513 C 216.433 69.806, 215.291 76.100, 214.274 80.500 L 212.425 88.500 204.992 89.245 C 200.904 89.654, 195.408 90.381, 192.779 90.858 C 187.199 91.873, 187.369 92.475, 190 81 C 192.468 70.235, 192.470 67.283, 190.011 63.250 C 187.339 58.867, 185.243 59.057, 184.486 63.750 M 246.688 62.792 C 244.215 65.524, 244.609 67.833, 248.106 71.099 C 251.593 74.356, 253.188 74.684, 254.990 72.512 C 255.989 71.308, 255.775 70.119, 253.862 66.262 C 251.239 60.974, 249.218 59.996, 246.688 62.792 M 243.299 81.250 C 241.787 83.249, 232.763 121.269, 233.149 124.012 C 233.376 125.622, 234.233 126.605, 235.577 126.797 C 238.034 127.148, 239.629 123.931, 243.407 111 C 249.670 89.566, 250.301 85.095, 247.497 81.997 C 245.395 79.674, 244.599 79.532, 243.299 81.250 M 270.743 82.948 C 258.577 90.663, 251.237 110.316, 256.995 119.759 C 260.063 124.791, 264.495 126.996, 271.500 126.974 C 278.060 126.954, 284.262 124.674, 287.426 121.118 C 288.891 119.472, 289.074 118.674, 288.190 117.790 C 287.305 116.905, 285.743 117.031, 281.675 118.313 C 270.250 121.915, 261.981 119.786, 262.014 113.250 C 262.047 106.473, 262.243 106.348, 272.097 106.819 C 290.347 107.692, 298.354 100.104, 291.509 88.425 C 286.491 79.862, 278.805 77.835, 270.743 82.948 M 304.852 80.750 C 304.771 81.162, 304.601 86, 304.473 91.500 C 304.307 98.681, 303.468 104.371, 301.496 111.685 C 298.709 122.022, 298.700 126.287, 301.462 127.347 C 303.978 128.313, 305.563 125.587, 309.910 112.821 C 314.919 98.110, 318.607 92.265, 325.692 87.809 C 331.309 84.277, 332.857 82.161, 330.784 80.845 C 326.965 78.422, 320.254 81.282, 315.356 87.421 C 311.823 91.848, 311 91.905, 311 87.723 C 311 84.032, 308.621 80, 306.443 80 C 305.649 80, 304.934 80.338, 304.852 80.750 M 277 88.193 C 272.864 89.718, 266 97.367, 266 100.450 C 266 100.753, 269.172 101, 273.050 101 C 284.083 101, 288.671 97.637, 285.338 91.995 C 283.185 88.351, 280.228 87.002, 277 88.193 M 300.547 208.250 C 300.332 208.938, 299.879 212.425, 299.539 216 C 298.578 226.103, 295.212 244.143, 291.438 259.409 C 289.547 267.059, 288 274.301, 288 275.504 C 288 278.178, 291.391 281.448, 293.375 280.686 C 294.172 280.381, 299.588 272.912, 305.410 264.089 C 316.366 247.489, 319.883 243.782, 322.851 245.708 C 325.220 247.246, 324.703 252.978, 321.140 264.665 C 316.998 278.251, 316.809 281, 320.015 281 C 322.764 281, 325.433 276.348, 328.958 265.413 C 332.242 255.229, 333.557 247.355, 332.607 243.572 C 331.612 239.608, 326.169 234, 323.316 234 C 319.711 234, 310.673 243.644, 303.619 255.018 C 300.384 260.233, 297.991 263.755, 298.301 262.845 C 300.177 257.336, 305.968 232.139, 307.026 224.882 C 308.406 215.419, 307.960 211.960, 304.975 208.975 C 302.710 206.710, 301.110 206.448, 300.547 208.250 M 166.600 211.047 C 162.568 214.586, 160.342 219.857, 158.063 231.255 L 156.429 239.429 151.246 240.965 C 144.102 243.081, 142.806 244.575, 145.914 247.114 C 147.637 248.521, 149.141 248.908, 151.164 248.464 C 153.132 248.032, 154 248.235, 154 249.128 C 154 249.836, 152.375 256.399, 150.388 263.712 C 146.963 276.320, 146.861 277.138, 148.411 279.504 C 149.310 280.877, 150.474 282, 150.997 282 C 152.771 282, 154.996 276.129, 158.847 261.292 L 162.686 246.500 169.197 244.899 C 176.734 243.046, 178 242.408, 178 240.460 C 178 238.654, 174.168 237.679, 169.010 238.170 C 164.213 238.628, 164.205 238.583, 167.138 227.714 C 169.481 219.029, 172.643 214.265, 175.369 215.311 C 176.295 215.667, 177.925 217.992, 178.991 220.479 C 180.382 223.725, 181.503 225, 182.964 225 C 184.746 225, 185 224.363, 185 219.900 C 185 215.433, 184.578 214.378, 181.600 211.400 C 176.974 206.774, 171.610 206.647, 166.600 211.047 M 236.571 216.571 C 234.194 218.948, 234.673 221.827, 237.997 225.151 C 241.957 229.111, 244.532 228.614, 244.404 223.916 C 244.297 220.030, 241.506 215, 239.456 215 C 238.734 215, 237.436 215.707, 236.571 216.571 M 71.882 236 C 63.062 240.662, 51 259.569, 51 268.733 C 51 272.630, 51.522 273.758, 54.882 277.118 C 58.150 280.385, 59.425 281, 62.932 281 C 67.858 281, 71.417 279.317, 75.437 275.089 C 79.012 271.329, 80 271.216, 80 274.566 C 80 280.411, 84.373 283.409, 85.375 278.250 C 86.396 272.991, 88.751 256.484, 88.834 254 C 88.881 252.625, 89.209 249.830, 89.564 247.788 C 90.683 241.359, 84.314 233.919, 77.800 234.044 C 76.535 234.069, 73.872 234.949, 71.882 236 M 107.573 236.250 C 102.154 244.526, 97 260.422, 97 268.860 C 97 273.105, 97.505 274.505, 100.104 277.465 C 102.555 280.257, 103.949 281, 106.736 281 C 111.296 281, 116.212 277.912, 120.415 272.407 L 123.768 268.016 123.247 274.508 C 122.760 280.582, 122.860 281, 124.804 281 C 125.947 281, 127.179 280.519, 127.542 279.931 C 128.992 277.585, 139 243.567, 139 240.985 C 139 237.617, 135.851 233.459, 133.875 234.218 C 133.085 234.521, 131.620 237.409, 130.620 240.635 C 125.931 255.760, 113.043 274.567, 107.869 273.835 C 103.087 273.159, 104.271 264.043, 111.200 248.192 C 114.659 240.278, 115.102 238.519, 114.156 236.442 C 112.754 233.367, 109.523 233.272, 107.573 236.250 M 189.500 234.434 C 188.950 234.649, 187.262 235.098, 185.750 235.432 C 182.891 236.062, 182.210 238.206, 183.981 241 C 184.731 242.184, 187.237 242.500, 195.878 242.500 C 201.898 242.500, 207.185 242.859, 207.627 243.298 C 209.064 244.727, 206.486 247.370, 195.906 255.313 C 177.031 269.485, 174.729 273.070, 181.077 278.411 C 183.808 280.710, 185.014 280.998, 191.827 280.979 C 200.980 280.954, 210.716 279.072, 214.494 276.596 C 216.900 275.020, 217.053 274.625, 215.764 273.336 C 214.510 272.081, 212.534 272.031, 202.139 272.987 C 184.721 274.590, 183.835 273.301, 196.250 264.420 C 212.796 252.583, 217.406 246.808, 214.980 240.953 C 213.114 236.446, 208.853 234.683, 199 234.339 C 194.325 234.176, 190.050 234.218, 189.500 234.434 M 232.139 237.250 C 229.084 247.025, 222.066 278.007, 222.595 279.386 C 223.491 281.722, 226.722 281.366, 228.378 278.750 C 230.982 274.638, 239 245.565, 239 240.238 C 239 237.376, 236.429 234, 234.249 234 C 233.647 234, 232.698 235.463, 232.139 237.250 M 261.927 235.921 C 253.150 240.699, 244.912 254.474, 244.675 264.766 C 244.418 275.961, 250.756 281.522, 262.985 280.831 C 270.679 280.396, 278 276.571, 278 272.986 C 278 270.607, 276.633 270.512, 271 272.500 C 268.662 273.325, 264.175 274, 261.029 274 C 254.242 274, 252 272.201, 252 266.753 C 252 260.414, 252.083 260.367, 262.471 260.822 C 270.669 261.180, 272.478 260.947, 276.470 259.014 C 285.195 254.791, 285.997 247.503, 278.633 239.371 C 275.116 235.489, 273.829 234.747, 270 234.392 C 266.813 234.097, 264.458 234.543, 261.927 235.921 M 357.333 235.456 C 344.825 240.897, 334.867 264.145, 340.927 273.759 C 345.748 281.407, 356.764 283.414, 366.714 278.455 C 375.443 274.105, 374.889 269.768, 365.943 272.424 C 359.968 274.199, 351.784 274.490, 349.049 273.026 C 346.778 271.811, 345.742 267.894, 346.550 263.584 L 347.169 260.288 356.403 260.771 C 364.207 261.179, 366.351 260.938, 370.235 259.220 C 372.763 258.102, 375.602 256.010, 376.544 254.572 C 381.302 247.311, 372.657 233.908, 363.300 234.039 C 361.760 234.061, 359.075 234.698, 357.333 235.456 M 390.576 235.250 C 390.377 235.938, 389.752 240.856, 389.187 246.180 C 388.621 251.505, 386.925 260.207, 385.417 265.519 C 382.491 275.831, 382.744 280.135, 386.319 280.823 C 389.041 281.347, 390.205 279.945, 400.146 264.167 C 405.229 256.100, 410.901 247.967, 412.751 246.093 C 415.897 242.906, 416.222 242.794, 417.790 244.361 C 420.271 246.843, 419.736 252.002, 415.634 265.140 C 411.434 278.592, 411.176 281, 413.932 281 C 418.748 281, 427.005 260.146, 426.996 248.003 C 426.990 239.039, 421.783 232.834, 415.573 234.392 C 412.548 235.152, 406.052 243.047, 398.825 254.750 C 396.022 259.288, 393.610 263, 393.465 263 C 393.319 263, 394.034 259.756, 395.054 255.790 C 398.254 243.348, 398.480 238.853, 396.036 236.250 C 393.710 233.775, 391.138 233.304, 390.576 235.250 M 267.284 241.764 C 264.818 242.172, 256 251.427, 256 253.608 C 256 255.529, 267.897 255.488, 272.532 253.551 C 275.350 252.374, 276 251.563, 276 249.225 C 276 245.003, 271.418 241.080, 267.284 241.764 M 359.886 242.823 C 356.660 244.447, 350 252.098, 350 254.180 C 350 254.827, 353.124 255.075, 358.473 254.853 C 365.678 254.553, 367.285 254.160, 369.218 252.227 L 371.491 249.953 369.495 246.319 C 366.931 241.647, 364.197 240.653, 359.886 242.823 M 74 244.347 C 67.797 248.601, 59.032 263.141, 59.010 269.215 C 58.997 272.866, 62.145 274.597, 65.941 273.025 C 70.176 271.270, 76.668 264.059, 79.017 258.500 C 80.179 255.750, 81.619 252.501, 82.218 251.280 C 83.742 248.171, 82.045 242.586, 79.467 242.223 C 78.385 242.071, 75.925 243.027, 74 244.347" stroke="none" fill="#F8F9FA" fill-rule="evenodd"/>
</svg>