<svg xmlns="http://www.w3.org/2000/svg" width="166" height="40" fill="none" viewBox="0 0 1284 422" version="1.1">
	<path d="M 262.223 72.557 C 260.574 73.711, 260 75.117, 260 78 C 260 82.745, 262.664 85, 268.268 85 C 272.624 85, 277 81.492, 277 78 C 277 76.850, 275.895 74.805, 274.545 73.455 C 271.647 70.556, 265.697 70.123, 262.223 72.557 M 756.223 72.557 C 754.574 73.711, 754 75.117, 754 78 C 754 82.745, 756.664 85, 762.268 85 C 766.624 85, 771 81.492, 771 78 C 771 76.850, 769.895 74.805, 768.545 73.455 C 765.647 70.556, 759.697 70.123, 756.223 72.557 M 151 117.952 L 151 164 156.890 164 L 162.781 164 163.251 145.750 C 163.751 126.360, 164.866 120.463, 169.265 113.935 C 172.829 108.646, 177.491 106, 183.248 106 C 187.507 106, 188.657 106.457, 191.467 109.267 C 196.096 113.896, 197 119.497, 197 143.549 L 197 164 203.640 164 L 210.281 164 209.706 140.250 C 209.074 114.115, 208.060 108.113, 203.275 102.201 C 198.604 96.429, 194.667 94.839, 185.927 95.193 C 175.723 95.607, 171.358 98.404, 167.181 107.210 C 165.540 110.669, 163.917 114.352, 163.575 115.393 C 162.149 119.731, 161.910 115.468, 162.982 104.836 C 163.611 98.601, 163.985 88.775, 163.813 83 L 163.500 72.500 157.250 72.202 L 151 71.905 151 117.952 M 47 121 L 47 164 53.500 164 L 60 164 60 121 L 60 78 53.500 78 L 47 78 47 121 M 378.554 82.250 C 378.343 82.938, 377.906 85.705, 377.584 88.399 C 377.261 91.094, 376.511 93.884, 375.917 94.600 C 375.323 95.315, 372.511 96.036, 369.669 96.201 L 364.500 96.500 364.500 101.500 L 364.500 106.500 369.132 106.800 L 373.763 107.100 374.190 129.300 C 374.572 149.179, 374.837 151.990, 376.724 156.187 C 379.517 162.398, 384.414 165, 393.311 165 C 396.826 165, 401.119 164.506, 402.851 163.902 C 405.912 162.835, 406 162.636, 406 156.795 C 406 151.464, 405.803 150.867, 404.250 151.508 C 396.973 154.511, 390.069 153.742, 387.748 149.670 C 386.912 148.205, 386.399 140.919, 386.166 127.250 L 385.822 107 395.911 107 L 406 107 406 101.500 L 406 96 396 96 L 386 96 386 88.500 L 386 81 382.469 81 C 380.515 81, 378.766 81.558, 378.554 82.250 M 96.324 96.638 C 90.431 98.726, 83.540 105.165, 80.641 111.293 C 73.880 125.585, 76.225 147.223, 85.605 157.089 C 93.539 165.435, 112.646 168.058, 124.509 162.429 C 130.897 159.397, 138 149.283, 138 143.217 C 138 142.433, 130.123 140, 127.587 140 C 127.413 140, 126.495 142.033, 125.547 144.517 C 123.031 151.103, 118.347 154.319, 110.548 154.816 C 100.115 155.480, 93.510 150.824, 90.498 140.681 C 86.790 128.196, 90.815 112.493, 98.954 107.687 C 108.190 102.233, 121.244 106.777, 123.854 116.354 C 124.805 119.844, 124.591 119.797, 131.333 117.989 C 136.142 116.700, 136.162 116.677, 135.513 113.217 C 134.103 105.703, 127.800 99.155, 119.101 96.167 C 114.445 94.568, 101.404 94.838, 96.324 96.638 M 319.500 96.610 C 313.324 99.972, 308.456 106.641, 306.624 114.250 C 306.260 115.763, 305.546 117, 305.037 117 C 304.491 117, 304.356 112.693, 304.707 106.500 L 305.301 96 299.651 96 L 294 96 294 130 L 294 164 299.880 164 L 305.759 164 306.221 145.250 C 306.614 129.329, 306.998 125.699, 308.768 121.191 C 312.940 110.565, 318.284 106, 326.550 106 C 330.468 106, 331.714 106.514, 334.467 109.267 C 339.096 113.896, 340 119.497, 340 143.549 L 340 164 346.500 164 L 353 164 352.982 146.750 C 352.950 115.579, 350.554 104.576, 342.450 98.393 C 339.091 95.830, 337.735 95.470, 330.579 95.238 C 324.604 95.045, 321.719 95.402, 319.500 96.610 M 435.324 96.638 C 425.175 100.234, 417.722 110.915, 416.026 124.297 C 413.141 147.052, 422.998 162.310, 442.356 165.051 C 458.974 167.404, 472.380 160.423, 476.422 147.310 C 477.004 145.420, 476.577 144.976, 473.298 144.066 C 467.353 142.415, 466.471 142.713, 463.527 147.371 C 460.090 152.809, 455.667 155.007, 448.216 154.978 C 436.031 154.931, 428 147.134, 428 135.351 L 428 132 452.143 132 L 476.286 132 475.731 123.899 C 474.781 110.046, 468.426 100.057, 458.252 96.427 C 453.304 94.661, 440.572 94.778, 435.324 96.638 M 515.285 96.967 C 511.110 99.513, 507.454 105.398, 505.353 112.953 C 504.429 116.279, 503.312 119, 502.873 119 C 502.433 119, 502.351 113.825, 502.690 107.500 L 503.306 96 497.653 96 L 492 96 492 130 L 492 164 498 164 L 504 164 504 148.096 C 504 133.846, 504.255 131.437, 506.455 124.935 C 509.162 116.933, 512.986 111.511, 517.990 108.580 C 520.769 106.952, 521.991 106.808, 526.028 107.635 L 530.788 108.610 531.256 102.555 C 531.514 99.225, 531.535 96.162, 531.303 95.750 C 531.072 95.338, 528.096 95.002, 524.691 95.004 C 520.307 95.006, 517.562 95.580, 515.285 96.967 M 559.324 96.638 C 549.175 100.234, 541.722 110.915, 540.026 124.297 C 537.141 147.052, 546.998 162.310, 566.356 165.051 C 582.974 167.404, 596.380 160.423, 600.422 147.310 C 601.004 145.420, 600.577 144.976, 597.298 144.066 C 591.353 142.415, 590.471 142.713, 587.527 147.371 C 584.090 152.809, 579.667 155.007, 572.216 154.978 C 560.031 154.931, 552 147.134, 552 135.351 L 552 132 576.143 132 L 600.286 132 599.731 123.899 C 598.785 110.097, 592.336 100.033, 582.090 96.371 C 577.284 94.653, 564.503 94.803, 559.324 96.638 M 628.340 96.381 C 619.203 99.357, 614.067 105.964, 614.022 114.800 C 613.987 121.568, 617.531 126.762, 624.629 130.346 C 626.350 131.215, 633.452 133.352, 640.412 135.095 C 653.786 138.445, 657.364 140.329, 658.433 144.590 C 659.972 150.721, 653.298 155.014, 642.282 154.978 C 632.033 154.945, 624 150.449, 624 144.746 C 624 142.222, 621.898 141.681, 617.105 142.972 C 613.748 143.876, 613 144.514, 613 146.473 C 613 153.081, 618.773 160.012, 626.810 163.056 C 633.274 165.504, 647.484 166.046, 654.599 164.116 C 665.797 161.079, 671.751 152.372, 669.940 141.685 C 668.502 133.196, 662.763 129.297, 646.005 125.420 C 630.334 121.795, 626.107 119.448, 626.032 114.332 C 625.978 110.635, 627.107 108.986, 631.083 106.957 C 635.648 104.629, 644.505 104.349, 649.364 106.379 C 653.104 107.941, 657 112.379, 657 115.076 C 657 117.696, 657.978 117.956, 663.266 116.746 C 667.276 115.829, 668 115.300, 668 113.292 C 668 107.861, 662.755 100.923, 656 97.418 C 651.429 95.046, 634.397 94.407, 628.340 96.381 M 698.340 96.381 C 689.203 99.357, 684.067 105.964, 684.022 114.800 C 683.987 121.568, 687.531 126.762, 694.629 130.346 C 696.350 131.215, 703.452 133.352, 710.412 135.095 C 717.372 136.838, 724.126 139.098, 725.421 140.116 C 730.606 144.195, 729.155 150.784, 722.454 153.584 C 717.060 155.837, 706.251 155.418, 700.971 152.750 C 696.874 150.680, 695.652 149.188, 693.333 143.430 C 692.540 141.459, 692.274 141.426, 687.750 142.738 C 683.802 143.884, 683 144.518, 683 146.493 C 683 153.080, 688.783 160.016, 696.810 163.056 C 703.274 165.504, 717.484 166.046, 724.599 164.116 C 735.797 161.079, 741.751 152.372, 739.940 141.685 C 738.502 133.196, 732.763 129.297, 716.005 125.420 C 700.334 121.795, 696.107 119.448, 696.032 114.332 C 695.978 110.635, 697.107 108.986, 701.083 106.957 C 705.648 104.629, 714.505 104.349, 719.364 106.379 C 723.104 107.941, 727 112.379, 727 115.076 C 727 117.696, 727.978 117.956, 733.266 116.746 C 737.276 115.829, 738 115.300, 738 113.292 C 738 107.861, 732.755 100.923, 726 97.418 C 721.429 95.046, 704.397 94.407, 698.340 96.381 M 805.324 96.638 C 795.175 100.234, 787.722 110.915, 786.026 124.297 C 783.141 147.052, 792.998 162.310, 812.356 165.051 C 828.974 167.404, 842.380 160.423, 846.422 147.310 C 847.004 145.420, 846.577 144.976, 843.298 144.066 C 837.353 142.415, 836.471 142.713, 833.527 147.371 C 830.090 152.809, 825.667 155.007, 818.216 154.978 C 806.031 154.931, 798 147.134, 798 135.351 L 798 132 822.143 132 L 846.286 132 845.731 123.899 C 844.781 110.046, 838.426 100.057, 828.252 96.427 C 823.304 94.661, 810.572 94.778, 805.324 96.638 M 885.285 96.967 C 881.110 99.513, 877.454 105.398, 875.353 112.953 C 874.429 116.279, 873.312 119, 872.873 119 C 872.433 119, 872.351 113.825, 872.690 107.500 L 873.306 96 867.653 96 L 862 96 862 130 L 862 164 868 164 L 874 164 874 148.096 C 874 133.846, 874.255 131.437, 876.455 124.935 C 879.162 116.933, 882.986 111.511, 887.990 108.580 C 890.769 106.952, 891.991 106.808, 896.028 107.635 L 900.788 108.610 901.256 102.555 C 901.514 99.225, 901.535 96.162, 901.303 95.750 C 901.072 95.338, 898.096 95.002, 894.691 95.004 C 890.307 95.006, 887.562 95.580, 885.285 96.967 M 929.324 96.638 C 915.532 101.525, 907.323 119.122, 910.006 138.045 C 912.238 153.782, 921.129 162.895, 936.356 165.051 C 952.974 167.404, 966.380 160.423, 970.422 147.310 C 971.004 145.420, 970.577 144.976, 967.298 144.066 C 961.353 142.415, 960.471 142.713, 957.527 147.371 C 954.090 152.809, 949.667 155.007, 942.216 154.978 C 930.031 154.931, 922 147.134, 922 135.351 L 922 132 946.143 132 L 970.286 132 969.731 123.899 C 968.785 110.097, 962.336 100.033, 952.090 96.371 C 947.284 94.653, 934.503 94.803, 929.324 96.638 M 262 129.952 L 262 164 268.464 164 L 274.929 164 274.714 130.250 L 274.500 96.500 268.250 96.202 L 262 95.905 262 129.952 M 756 130 L 756 164 762.500 164 L 769 164 769 131.582 C 769 113.752, 768.727 98.452, 768.393 97.582 C 767.935 96.387, 766.344 96, 761.893 96 L 756 96 756 130 M 441.870 105.916 C 435.674 107.911, 430.935 113.534, 428.525 121.750 L 427.865 124 442.183 123.989 C 450.057 123.983, 458.236 123.691, 460.357 123.341 C 464.108 122.721, 464.198 122.610, 463.655 119.259 C 463.044 115.494, 459.162 109.808, 455.618 107.486 C 452.809 105.645, 445.355 104.794, 441.870 105.916 M 566.128 106.107 C 559.438 108.118, 555.040 113.175, 552.525 121.750 L 551.865 124 566.808 124 C 575.026 124, 583.204 123.709, 584.982 123.354 C 588.024 122.745, 588.181 122.504, 587.655 119.261 C 587.048 115.520, 583.167 109.810, 579.683 107.530 C 576.686 105.568, 570.189 104.886, 566.128 106.107 M 811.870 105.916 C 805.674 107.911, 800.935 113.534, 798.525 121.750 L 797.865 124 812.183 123.989 C 820.057 123.983, 828.236 123.691, 830.357 123.341 C 834.108 122.721, 834.198 122.610, 833.655 119.259 C 833.044 115.494, 829.162 109.808, 825.618 107.486 C 822.809 105.645, 815.355 104.794, 811.870 105.916 M 935.870 105.916 C 929.674 107.911, 924.935 113.534, 922.525 121.750 L 921.865 124 936.183 123.989 C 944.057 123.983, 952.236 123.691, 954.357 123.341 C 958.108 122.721, 958.198 122.610, 957.655 119.259 C 957.044 115.494, 953.162 109.808, 949.618 107.486 C 946.809 105.645, 939.355 104.794, 935.870 105.916 M 162.223 227.557 C 160.574 228.711, 160 230.117, 160 233 C 160 237.745, 162.664 240, 168.268 240 C 172.624 240, 177 236.492, 177 233 C 177 231.850, 175.895 229.805, 174.545 228.455 C 171.647 225.556, 165.697 225.123, 162.223 227.557 M 1093 228 C 1090.602 230.398, 1090.433 233.746, 1092.557 236.777 C 1093.750 238.482, 1095.105 239, 1098.366 239 C 1104.611 239, 1106.537 236.968, 1106.115 230.821 C 1105.786 226.024, 1096.889 224.111, 1093 228 M 1119.223 227.557 C 1117.673 228.642, 1117 230.135, 1117 232.485 C 1117 237.080, 1119.210 239, 1124.500 239 C 1127.128 239, 1129.481 238.376, 1130.429 237.429 C 1132.578 235.279, 1132.431 229.700, 1130.171 227.655 C 1127.866 225.569, 1122.134 225.517, 1119.223 227.557 M 266 272.952 L 266 319 271.890 319 L 277.781 319 278.251 300.750 C 278.751 281.360, 279.866 275.463, 284.265 268.935 C 287.829 263.646, 292.491 261, 298.248 261 C 302.507 261, 303.657 261.457, 306.467 264.267 C 311.096 268.896, 312 274.497, 312 298.549 L 312 319 318.633 319 L 325.266 319 324.713 295.250 C 324.104 269.109, 323.097 263.159, 318.275 257.201 C 313.604 251.429, 309.667 249.839, 300.927 250.193 C 290.723 250.607, 286.358 253.404, 282.181 262.210 C 280.540 265.669, 278.917 269.352, 278.575 270.393 C 277.149 274.731, 276.910 270.468, 277.982 259.836 C 278.611 253.601, 278.985 243.775, 278.813 238 L 278.500 227.500 272.250 227.202 L 266 226.905 266 272.952 M 780.337 228.563 C 779.562 230.584, 780.737 258.610, 781.876 265.286 C 782.982 271.757, 781.610 272.139, 779.394 265.977 C 775.520 255.203, 768.392 250, 757.508 250 C 744.377 250, 736.863 256.255, 732.423 270.881 C 730.612 276.849, 730.612 293.151, 732.423 299.119 C 736.892 313.840, 744.717 320.254, 758.245 320.281 C 767.975 320.300, 773.231 316.913, 778 307.551 L 781.500 300.680 781.788 309.840 L 782.075 319 787.548 319 L 793.020 319 792.760 273.250 L 792.500 227.500 786.738 227.200 C 782.105 226.958, 780.851 227.226, 780.337 228.563 M 1048.094 228.240 C 1046.221 228.867, 1043.226 230.840, 1041.440 232.626 C 1034.183 239.883, 1035.425 255.503, 1043.553 259.206 C 1047.922 261.197, 1046.167 262, 1037.445 262 L 1028.890 262 1029.195 266.750 L 1029.500 271.500 1035.250 271.800 L 1041 272.100 1041 295.598 L 1041 319.095 1047.250 318.798 L 1053.500 318.500 1053.768 295.250 L 1054.037 272 1062.518 272 L 1071 272 1071 266.500 L 1071 261 1062.589 261 C 1054.453 261, 1054.094 260.901, 1051.629 257.971 C 1047.253 252.770, 1047.293 245.649, 1051.725 240.752 C 1054.013 238.223, 1062.494 238.394, 1066.863 241.058 C 1068.712 242.185, 1070.475 242.858, 1070.781 242.553 C 1071.086 242.247, 1071.535 239.598, 1071.778 236.665 L 1072.220 231.332 1068.360 229.464 C 1063.782 227.249, 1053.007 226.598, 1048.094 228.240 M 550.246 232.067 C 542.910 233.020, 534.788 237.100, 531.411 241.528 C 525.648 249.083, 525.545 249.817, 525.187 285.750 L 524.856 319 530.865 319 L 536.873 319 537.187 287.250 C 537.482 257.357, 537.622 255.266, 539.584 251.500 C 542.694 245.529, 548.293 242.778, 557.332 242.778 C 569.822 242.778, 576 247.276, 576 256.370 C 576 265.161, 567.347 271, 554.318 271 L 549 271 549 275.852 L 549 280.704 558.123 281.295 C 564.991 281.740, 568.514 282.508, 572.373 284.403 C 578.271 287.298, 579.833 289.369, 580.577 295.272 C 581.591 303.325, 575.257 309.215, 565.429 309.357 C 559.569 309.442, 556.192 307.673, 554.024 303.385 C 553.222 301.798, 552.480 300.354, 552.375 300.175 C 551.820 299.233, 544 305.514, 544 306.901 C 544 310.084, 548.937 315.791, 553.713 318.129 C 557.637 320.049, 559.995 320.454, 566.789 320.374 C 577.842 320.244, 584.962 316.850, 589.467 309.563 C 592.097 305.309, 592.500 303.716, 592.500 297.578 C 592.500 293.266, 591.914 289.345, 591 287.546 C 588.693 283.001, 581.795 278.307, 575.507 277.002 C 572.464 276.370, 570.231 275.436, 570.546 274.926 C 570.860 274.417, 571.771 274, 572.570 274 C 575.465 274, 583.078 269.699, 585.026 266.963 C 589.628 260.500, 589.336 247.752, 584.439 241.332 C 580.904 236.696, 573.349 233.121, 564.722 232 C 560.750 231.484, 557.275 231.105, 557 231.158 C 556.725 231.210, 553.686 231.619, 550.246 232.067 M 69.695 252.096 C 65.349 254.390, 60.863 260.848, 59.005 267.484 C 56.836 275.229, 55.818 272.727, 56.570 261.500 L 57.273 251 51.636 251 L 46 251 46 285 L 46 319 51.892 319 L 57.784 319 58.243 300.250 C 58.736 280.102, 60.012 273.978, 65.175 266.963 C 70.020 260.381, 77.847 259.001, 82.715 263.869 C 87.361 268.515, 88.104 272.587, 88.714 296.750 L 89.275 319 95.137 319 L 101 319 101 301.105 C 101 279.902, 102.512 273.060, 108.751 266.032 C 111.908 262.476, 113.245 261.725, 117.223 261.278 C 121.582 260.787, 122.208 261.008, 125.340 264.140 C 130.111 268.911, 131 274.315, 131 298.549 L 131 319 137 319 L 143 319 143 295.182 C 143 269.682, 142.293 264.665, 137.759 258.004 C 133.580 251.863, 130.736 250.500, 122.103 250.500 C 115.511 250.500, 113.818 250.867, 110.765 252.959 C 106.395 255.953, 102.687 261.475, 101 267.500 C 99.518 272.792, 98 273.389, 98 268.679 C 98 263.909, 93.132 254.921, 89.102 252.251 C 84.593 249.264, 75.204 249.189, 69.695 252.096 M 210.324 251.638 C 204.431 253.726, 197.540 260.165, 194.641 266.293 C 187.880 280.585, 190.225 302.223, 199.605 312.089 C 207.539 320.435, 226.646 323.058, 238.509 317.429 C 244.897 314.397, 252 304.283, 252 298.217 C 252 297.433, 244.123 295, 241.587 295 C 241.413 295, 240.495 297.033, 239.547 299.517 C 237.031 306.103, 232.347 309.319, 224.548 309.816 C 214.115 310.480, 207.510 305.824, 204.498 295.681 C 200.790 283.196, 204.815 267.493, 212.954 262.687 C 222.190 257.233, 235.244 261.777, 237.854 271.354 C 238.805 274.844, 238.591 274.797, 245.333 272.989 C 250.142 271.700, 250.162 271.677, 249.513 268.217 C 248.103 260.703, 241.800 254.155, 233.101 251.167 C 228.445 249.568, 215.404 249.838, 210.324 251.638 M 390.698 251.444 C 384.477 253.663, 379.439 257.777, 376.636 262.927 C 375.186 265.591, 374 268.411, 374 269.194 C 374 270.688, 383.660 274.328, 385.161 273.401 C 385.622 273.115, 386 272.041, 386 271.012 C 386 269.984, 387.473 267.580, 389.274 265.670 C 395.319 259.261, 407.434 258.168, 413.027 263.526 C 418.068 268.356, 417.830 274.974, 412.542 276.984 C 411.258 277.472, 405.773 278.626, 400.353 279.547 C 387.019 281.814, 380.918 284.241, 376.634 288.983 C 372.684 293.356, 371.444 297.929, 372.373 304.706 C 373.780 314.973, 380.579 320.306, 392.169 320.234 C 402.786 320.167, 410.160 315.355, 415.513 305 C 417.609 300.945, 417.641 301.011, 418.511 311.250 L 419.171 319 425.153 319 C 430.645 319, 431.084 318.839, 430.511 317.034 C 430.168 315.953, 429.542 303.916, 429.121 290.284 C 428.422 267.674, 428.165 265.132, 426.187 261.308 C 423.785 256.664, 419.278 252.871, 414.101 251.138 C 409.485 249.593, 395.370 249.777, 390.698 251.444 M 626.324 251.638 C 620.332 253.761, 613.542 260.161, 610.533 266.522 C 605.581 276.989, 605.332 294.849, 610.008 304.016 C 614.760 313.331, 621.687 318.118, 633.028 319.927 C 649.660 322.578, 663.333 315.575, 667.422 302.310 C 668.004 300.420, 667.577 299.976, 664.298 299.066 C 658.353 297.415, 657.471 297.713, 654.527 302.371 C 651.090 307.809, 646.667 310.007, 639.216 309.978 C 627.031 309.931, 619 302.134, 619 290.351 L 619 287 643.143 287 L 667.286 287 666.731 278.899 C 665.781 265.046, 659.426 255.057, 649.252 251.427 C 644.304 249.661, 631.572 249.778, 626.324 251.638 M 706.285 251.967 C 702.110 254.513, 698.454 260.398, 696.353 267.953 C 695.429 271.279, 694.312 274, 693.873 274 C 693.433 274, 693.351 268.825, 693.690 262.500 L 694.306 251 688.653 251 L 683 251 683 285 L 683 319 689 319 L 695 319 695 303.096 C 695 288.846, 695.255 286.437, 697.455 279.935 C 700.162 271.933, 703.986 266.511, 708.990 263.580 C 711.774 261.949, 712.988 261.807, 717.054 262.640 L 721.841 263.621 722.222 257.561 C 722.431 254.227, 722.440 251.162, 722.242 250.750 C 722.044 250.338, 719.096 250.002, 715.691 250.004 C 711.307 250.006, 708.562 250.580, 706.285 251.967 M 829.324 251.638 C 819.175 255.234, 811.722 265.915, 810.026 279.297 C 807.141 302.052, 816.998 317.310, 836.356 320.051 C 852.974 322.404, 866.380 315.423, 870.422 302.310 C 871.004 300.420, 870.577 299.976, 867.298 299.066 C 861.353 297.415, 860.471 297.713, 857.527 302.371 C 854.090 307.809, 849.667 310.007, 842.216 309.978 C 830.031 309.931, 822 302.134, 822 290.351 L 822 287 846.143 287 L 870.286 287 869.731 278.899 C 868.781 265.046, 862.426 255.057, 852.252 251.427 C 847.304 249.661, 834.572 249.778, 829.324 251.638 M 909.695 252.096 C 905.349 254.390, 900.863 260.848, 899.005 267.484 C 896.836 275.229, 895.818 272.727, 896.570 261.500 L 897.273 251 891.636 251 L 886 251 886 285 L 886 319 891.892 319 L 897.784 319 898.243 300.250 C 898.736 280.102, 900.012 273.978, 905.175 266.963 C 910.020 260.381, 917.847 259.001, 922.715 263.869 C 927.361 268.515, 928.104 272.587, 928.714 296.750 L 929.275 319 935.137 319 L 941 319 941 301.105 C 941 279.902, 942.512 273.060, 948.751 266.032 C 951.908 262.476, 953.245 261.725, 957.223 261.278 C 961.582 260.787, 962.208 261.008, 965.340 264.140 C 970.111 268.911, 971 274.315, 971 298.549 L 971 319 977 319 L 983 319 983 295.182 C 983 269.682, 982.293 264.665, 977.759 258.004 C 973.580 251.863, 970.736 250.500, 962.103 250.500 C 955.511 250.500, 953.818 250.867, 950.765 252.959 C 946.395 255.953, 942.687 261.475, 941 267.500 C 939.518 272.792, 938 273.389, 938 268.679 C 938 263.909, 933.132 254.921, 929.102 252.251 C 924.593 249.264, 915.204 249.189, 909.695 252.096 M 1183.285 251.967 C 1179.110 254.513, 1175.454 260.398, 1173.353 267.953 C 1172.429 271.279, 1171.312 274, 1170.873 274 C 1170.433 274, 1170.351 268.825, 1170.690 262.500 L 1171.306 251 1165.653 251 L 1160 251 1160 285 L 1160 319 1166 319 L 1172 319 1172 303.096 C 1172 288.846, 1172.255 286.437, 1174.455 279.935 C 1177.162 271.933, 1180.986 266.511, 1185.990 263.580 C 1188.769 261.952, 1189.991 261.808, 1194.028 262.635 L 1198.788 263.610 1199.256 257.555 C 1199.514 254.225, 1199.535 251.162, 1199.303 250.750 C 1199.072 250.338, 1196.096 250.002, 1192.691 250.004 C 1188.307 250.006, 1185.562 250.580, 1183.285 251.967 M 162 284.952 L 162 319 168.464 319 L 174.929 319 174.714 285.250 L 174.500 251.500 168.250 251.202 L 162 250.905 162 284.952 M 448.163 276.750 C 448.495 302.130, 448.538 302.580, 451.129 308.107 C 455.637 317.721, 464.405 321.989, 475.404 319.924 C 483.827 318.342, 488.963 313.019, 492.457 302.250 C 493.394 299.363, 494.413 297, 494.722 297 C 495.031 297, 495.049 301.950, 494.762 308 L 494.240 319 499.620 319 L 505 319 505 285 L 505 251 499.092 251 L 493.184 251 492.787 270.250 C 492.434 287.338, 492.134 290.147, 490.120 295.258 C 484.883 308.546, 473.423 313.443, 465.338 305.848 C 461.553 302.292, 460.838 297.755, 460.277 273.750 L 459.745 251 453.786 251 L 447.826 251 448.163 276.750 M 1083.163 276.750 C 1083.495 302.130, 1083.538 302.580, 1086.129 308.107 C 1089.339 314.953, 1093.948 318.663, 1100.876 319.976 C 1113.262 322.325, 1122.701 316.418, 1126.946 303.662 C 1128.165 299.998, 1129.419 297, 1129.731 297 C 1130.044 297, 1130.038 301.950, 1129.719 308 L 1129.139 319 1134.570 319 L 1140 319 1140 285 L 1140 251 1134 251 L 1128 251 1128 267.790 C 1128 286.191, 1126.795 293.259, 1122.369 300.813 C 1115.716 312.167, 1100.979 311.880, 1097.095 300.320 C 1096.278 297.888, 1095.618 288.234, 1095.278 273.750 L 1094.745 251 1088.786 251 L 1082.826 251 1083.163 276.750 M 633.430 260.896 C 627.018 262.520, 622.031 268.206, 619.525 276.750 L 618.865 279 633.808 279 C 642.026 279, 650.194 278.711, 651.960 278.358 C 655.029 277.744, 655.140 277.559, 654.500 274.108 C 653.771 270.175, 650.134 264.788, 646.683 262.530 C 643.887 260.700, 637.375 259.897, 633.430 260.896 M 835.870 260.916 C 829.674 262.911, 824.935 268.534, 822.525 276.750 L 821.865 279 836.183 278.989 C 844.057 278.983, 852.236 278.691, 854.357 278.341 C 858.108 277.721, 858.198 277.610, 857.655 274.259 C 857.044 270.494, 853.162 264.808, 849.618 262.486 C 846.809 260.645, 839.355 259.794, 835.870 260.916 M 751.661 263.993 C 740.311 273.958, 741.283 301.424, 753.206 307.613 C 757.478 309.830, 763.524 309.795, 768.306 307.525 C 781.439 301.291, 784.191 278.267, 773.191 266.661 C 769.269 262.523, 765.743 261, 760.084 261 C 755.941 261, 754.477 261.520, 751.661 263.993 M 413.500 285.161 C 411.850 285.609, 406.559 286.704, 401.741 287.594 C 388.044 290.123, 382.535 295.166, 384.889 303.023 C 386.315 307.784, 389.687 310, 395.505 310 C 406.278 310, 417.517 298.718, 416.803 288.620 C 416.503 284.394, 416.465 284.354, 413.500 285.161" stroke="none" fill="#000000" fill-rule="evenodd"/>
</svg>