<svg width="47" height="62" viewBox="0 0 47 62" fill="none" xmlns="http://www.w3.org/2000/svg">
<g clip-path="url(#clip0_3002_967)">
<path d="M43.5 5L23.4992 39.6422L3.5 5H11.5L23.4992 25.7847L35.5 5H43.5Z" fill="#F8F9FA"/>
<path d="M33.7386 5L23.5013 22.7284L13.2656 5H18.8832L23.5013 13L28.121 5H33.7386Z" fill="#F8F9FA"/>
</g>
<path d="M4.37019 59L0.722188 48.44H2.32219L5.34619 57.688H5.50619L8.56219 48.44H10.1462L6.46619 59H4.37019ZM14.1778 59.208C13.2605 59.208 12.5671 58.888 12.0978 58.248C11.6285 57.608 11.3938 56.6533 11.3938 55.384V50.728H12.8658V55.256C12.8658 56.152 13.0045 56.8187 13.2818 57.256C13.5591 57.6933 13.9965 57.912 14.5938 57.912C14.9245 57.912 15.2178 57.832 15.4738 57.672C15.7405 57.512 15.9751 57.2827 16.1778 56.984C16.3805 56.6853 16.5458 56.3333 16.6738 55.928C16.8018 55.512 16.8871 55.064 16.9298 54.584V50.728H18.3858V55.544V59H17.0898L17.2178 56.344H16.9778C16.8391 57.0053 16.6418 57.5493 16.3858 57.976C16.1405 58.392 15.8311 58.7013 15.4578 58.904C15.0845 59.1067 14.6578 59.208 14.1778 59.208ZM24.4644 59.208C23.8138 59.208 23.2378 59.112 22.7364 58.92C22.2458 58.7173 21.8298 58.4293 21.4884 58.056C21.1471 57.6827 20.8911 57.24 20.7204 56.728C20.5498 56.216 20.4644 55.64 20.4644 55C20.4644 54.3493 20.5498 53.752 20.7204 53.208C20.8911 52.664 21.1418 52.1893 21.4724 51.784C21.8031 51.3787 22.2084 51.0693 22.6884 50.856C23.1684 50.632 23.7178 50.52 24.3364 50.52C24.8804 50.52 25.3764 50.6107 25.8244 50.792C26.2724 50.9733 26.6511 51.256 26.9604 51.64C27.2804 52.0133 27.5204 52.488 27.6804 53.064C27.8404 53.6293 27.9044 54.296 27.8724 55.064L21.3764 55.112V54.12L26.9924 54.072L26.4964 54.744C26.5498 54.072 26.4858 53.5173 26.3044 53.08C26.1231 52.6427 25.8618 52.312 25.5204 52.088C25.1898 51.864 24.7951 51.752 24.3364 51.752C23.8458 51.752 23.4138 51.88 23.0404 52.136C22.6671 52.392 22.3791 52.76 22.1764 53.24C21.9844 53.72 21.8884 54.3013 21.8884 54.984C21.8884 55.9653 22.1071 56.7173 22.5444 57.24C22.9818 57.752 23.6324 58.008 24.4964 58.008C24.8271 58.008 25.1151 57.9707 25.3604 57.896C25.6164 57.8107 25.8298 57.6987 26.0004 57.56C26.1818 57.4107 26.3258 57.24 26.4324 57.048C26.5498 56.856 26.6404 56.648 26.7044 56.424L27.9844 56.728C27.8884 57.112 27.7391 57.4587 27.5364 57.768C27.3444 58.0667 27.0991 58.3227 26.8004 58.536C26.5124 58.7493 26.1764 58.9147 25.7924 59.032C25.4084 59.1493 24.9658 59.208 24.4644 59.208ZM33.0946 59.144L32.8706 57.752C32.9879 57.7733 33.0946 57.784 33.1906 57.784C33.2866 57.784 33.3719 57.784 33.4466 57.784C34.0226 57.784 34.4546 57.6933 34.7426 57.512C35.0412 57.3307 35.2439 57.0587 35.3506 56.696C35.4572 56.3227 35.5106 55.864 35.5106 55.32V48.44H36.9666V55.336C36.9666 56.104 36.8652 56.776 36.6626 57.352C36.4706 57.928 36.1346 58.376 35.6546 58.696C35.1746 59.0053 34.5026 59.16 33.6386 59.16C33.5746 59.16 33.4999 59.16 33.4146 59.16C33.3292 59.16 33.2226 59.1547 33.0946 59.144ZM42.6094 59.208C42.0334 59.208 41.5214 59.144 41.0734 59.016C40.6254 58.8987 40.2521 58.728 39.9534 58.504C39.6548 58.2693 39.4254 57.992 39.2654 57.672C39.1054 57.352 39.0201 57 39.0094 56.616L40.2414 56.296C40.2201 56.648 40.3054 56.9573 40.4974 57.224C40.7001 57.48 40.9828 57.6773 41.3454 57.816C41.7188 57.9547 42.1668 58.024 42.6894 58.024C43.3188 58.024 43.8041 57.9173 44.1454 57.704C44.4974 57.4907 44.6734 57.1973 44.6734 56.824C44.6734 56.5253 44.5774 56.296 44.3854 56.136C44.1934 55.9653 43.9268 55.832 43.5854 55.736C43.2548 55.6293 42.8601 55.5333 42.4014 55.448C42.0174 55.3627 41.6334 55.2667 41.2494 55.16C40.8654 55.0533 40.5134 54.9147 40.1934 54.744C39.8841 54.5627 39.6334 54.328 39.4414 54.04C39.2494 53.752 39.1534 53.3947 39.1534 52.968C39.1534 52.4667 39.2868 52.0347 39.5534 51.672C39.8201 51.3093 40.1988 51.0267 40.6894 50.824C41.1801 50.6213 41.7668 50.52 42.4494 50.52C43.1321 50.52 43.7134 50.6267 44.1934 50.84C44.6734 51.0427 45.0521 51.3307 45.3294 51.704C45.6068 52.0773 45.7614 52.5147 45.7934 53.016L44.5294 53.336C44.5188 52.984 44.4228 52.6853 44.2414 52.44C44.0708 52.1947 43.8254 52.0133 43.5054 51.896C43.1854 51.768 42.8121 51.704 42.3854 51.704C41.8201 51.704 41.3721 51.8107 41.0414 52.024C40.7108 52.2373 40.5454 52.5307 40.5454 52.904C40.5454 53.1813 40.6414 53.4053 40.8334 53.576C41.0361 53.7467 41.3081 53.88 41.6494 53.976C41.9908 54.072 42.3694 54.168 42.7854 54.264C43.2121 54.3493 43.6174 54.4453 44.0014 54.552C44.3961 54.6587 44.7481 54.7973 45.0574 54.968C45.3668 55.1387 45.6121 55.368 45.7934 55.656C45.9748 55.9333 46.0654 56.2907 46.0654 56.728C46.0654 57.272 45.9214 57.7307 45.6334 58.104C45.3454 58.4667 44.9401 58.744 44.4174 58.936C43.9054 59.1173 43.3028 59.208 42.6094 59.208Z" fill="#F8F9FA"/>
<defs>
<clipPath id="clip0_3002_967">
<rect width="40" height="40" fill="white" transform="translate(3.5)"/>
</clipPath>
</defs>
</svg>
