<svg width="39" height="40" viewBox="0 0 39 40" fill="none" xmlns="http://www.w3.org/2000/svg">
<g clip-path="url(#clip0_2640_951)">
<path d="M15.8886 27.9727H10.0312V39.9999H15.8886V27.9727Z" fill="#3355FF"/>
<path d="M28.5657 21.234C29.2788 20.5449 29.9439 19.7837 30.5689 18.9744C32.5401 16.4103 34.0385 13.4936 35.0721 10.2244C36.1058 6.96314 36.6266 3.54968 36.6266 0H30.8173C30.8173 2.76442 30.4888 5.43269 29.8237 8.01282C29.1506 10.601 28.141 12.9167 26.7788 14.976C26.7628 15 26.7388 15.0321 26.7228 15.0561C26.4744 15.4327 26.2019 15.8013 25.9215 16.1458C24.7196 17.6603 23.2692 18.9022 21.5785 19.8718C21.0897 20.1522 20.5849 20.4006 20.0561 20.617C19.7997 20.7212 19.5272 20.8253 19.2548 20.9135C18.4615 21.1779 17.6202 21.3782 16.7308 21.4984C16.4583 21.5465 16.1779 21.5785 15.8894 21.6026V0H10.0321V21.8189H5.85737V0H0V40H5.85737V27.1715H15.601L15.9295 27.1555C16.2019 27.1314 16.4663 27.1074 16.7308 27.0673C17.5962 26.9631 18.4375 26.8029 19.2548 26.5946C19.5272 26.5224 19.7917 26.4503 20.0561 26.3702V40H25.9215V28.8542L26.7228 30.3926L31.7228 40H38.5417L28.5657 21.234Z" fill="#3355FF"/>
<path d="M25.2951 15.649C25.5194 15.3686 25.7278 15.0881 25.9201 14.8077V0H20.0547V19.7436C20.4393 19.5753 20.8079 19.391 21.1765 19.1747C22.779 18.2612 24.1653 17.0753 25.2951 15.649Z" fill="#3355FF"/>
</g>
<defs>
<clipPath id="clip0_2640_951">
<rect width="38.5417" height="40" fill="white"/>
</clipPath>
</defs>
</svg>
