<svg width="18" height="18" viewBox="0 0 18 18" fill="none" xmlns="http://www.w3.org/2000/svg">
<path d="M9.00104 10.8677L2.46771 17.401C2.22326 17.6455 1.91215 17.7677 1.53438 17.7677C1.1566 17.7677 0.845486 17.6455 0.601042 17.401C0.356597 17.1566 0.234375 16.8455 0.234375 16.4677C0.234375 16.0899 0.356597 15.7788 0.601042 15.5344L7.13438 9.00104L0.601042 2.46771C0.356597 2.22326 0.234375 1.91215 0.234375 1.53438C0.234375 1.1566 0.356597 0.845486 0.601042 0.601042C0.845486 0.356597 1.1566 0.234375 1.53438 0.234375C1.91215 0.234375 2.22326 0.356597 2.46771 0.601042L9.00104 7.13438L15.5344 0.601042C15.7788 0.356597 16.0899 0.234375 16.4677 0.234375C16.8455 0.234375 17.1566 0.356597 17.401 0.601042C17.6455 0.845486 17.7677 1.1566 17.7677 1.53438C17.7677 1.91215 17.6455 2.22326 17.401 2.46771L10.8677 9.00104L17.401 15.5344C17.6455 15.7788 17.7677 16.0899 17.7677 16.4677C17.7677 16.8455 17.6455 17.1566 17.401 17.401C17.1566 17.6455 16.8455 17.7677 16.4677 17.7677C16.0899 17.7677 15.7788 17.6455 15.5344 17.401L9.00104 10.8677Z" fill="#F8F9FA"/>
</svg>
