<svg width="68" height="72" viewBox="0 0 68 72" fill="none" xmlns="http://www.w3.org/2000/svg">
<path d="M33.852 72C33.102 72 32.352 71.85 31.677 71.4L6.85199 57.6C5.57699 56.925 4.75199 55.65 4.52699 54.15L0.0269866 15.45C-0.198013 13.35 1.00199 11.4 2.95199 10.725L32.352 0.225C32.877 0.075 33.327 0 33.852 0C34.377 0 34.902 0.075 35.352 0.225L64.677 10.65C66.627 11.325 67.902 13.35 67.602 15.375L63.102 54.15C62.952 55.575 62.052 56.85 60.777 57.6L35.952 71.4C35.277 71.775 34.527 72 33.777 72H33.852Z" fill="#F8F9FA"/>
<path d="M33.8406 4.5L4.51562 14.925L9.01563 53.7L33.8406 67.5L58.6656 53.7L63.1656 14.925L33.8406 4.5Z" fill="#DD0031"/>
<path d="M33.8359 4.5V11.475V43.35V67.5L58.6609 53.7L63.1609 14.925L33.8359 4.5Z" fill="#C3002F"/>
<path d="M33.8469 11.4805L15.5469 52.5805H22.3719L26.0469 43.3555H41.5719L45.2469 52.5805H52.0719L33.8469 11.4805ZM39.1719 37.7305H28.4469L33.7719 24.8305L39.0969 37.7305H39.1719Z" fill="#F8F9FA"/>
</svg>
