<svg width="65" height="72" viewBox="0 0 65 72" fill="none" xmlns="http://www.w3.org/2000/svg">
<path d="M32.1844 72C31.8094 72 31.3594 72 30.9844 71.85L8.33437 65.55C6.53437 65.025 5.25938 63.45 5.03438 61.65L0.009375 4.95C-0.065625 3.675 0.309375 2.475 1.13438 1.5C1.95938 0.6 3.15937 0 4.43437 0H60.0094C61.2844 0 62.4844 0.525 63.3094 1.5C64.1344 2.4 64.5844 3.675 64.4344 4.95L59.4094 61.65C59.2594 63.525 57.9094 65.1 56.1094 65.55L33.3844 71.85C33.0094 71.925 32.5594 72 32.1844 72Z" fill="#F8F9FA"/>
<path d="M9.4625 61.2L4.4375 4.5H60.0125L54.9875 61.2L32.2625 67.5L9.6125 61.2H9.4625Z" fill="#264DE4"/>
<path d="M50.5547 57.6063L54.9047 9.15625H32.1797V62.7063L50.5547 57.6063Z" fill="#2965F1"/>
<path d="M15.9703 30.143L16.5703 37.118H32.0953V30.143H15.8953H15.9703ZM15.3703 23.018H32.1703V16.043H14.6953L15.2953 23.018H15.3703ZM32.1703 48.218L24.4453 46.118L23.9203 40.568H16.9453L17.9203 51.518L32.1703 55.493V48.218Z" fill="#EBEBEB"/>
<path d="M32.1797 30.1555V37.1305H40.7297L39.9047 46.1305L32.1797 48.2305V55.4305L46.4297 51.4555V50.2555C46.5047 50.2555 48.1547 31.9555 48.1547 31.9555L48.3047 30.0805L49.5797 15.9805H32.1797V22.9555H42.0047L41.4047 30.0805H32.2547L32.1797 30.1555Z" fill="#F8F9FA"/>
</svg>
