<svg width="55" height="72" viewBox="0 0 55 72" fill="none" xmlns="http://www.w3.org/2000/svg">
<path d="M27.3483 71.8425C25.8483 71.8425 24.3558 71.4676 23.0808 70.7176L2.87584 59.4163L2.57584 59.2663C2.05084 58.9664 1.52584 58.6664 1.15084 58.2164C0.175839 57.0915 -0.199161 55.6742 0.100839 54.2493L7.81084 5.01698C8.18584 2.54973 10.1283 0.524945 12.6033 0.0749922H12.6783C12.9783 0.0749922 13.3533 0 13.6533 0C14.5533 0 15.4533 0.224977 16.1958 0.599937C17.3208 1.12488 18.2883 2.02479 18.8883 3.14217L22.9308 10.7764C24.0558 9.5765 25.6233 8.83408 27.2733 8.83408C28.9233 8.83408 27.2733 8.83408 27.3483 8.83408C29.5158 8.83408 31.4658 10.1089 32.5158 11.9763L35.5083 17.6607L38.5758 14.5935C39.4008 13.7686 40.3758 13.2436 41.4183 13.0186C41.8683 12.9437 42.3183 12.8687 42.7683 12.8687C43.2183 12.8687 42.9183 12.8687 42.9933 12.8687C43.5183 12.8687 44.1183 13.0186 44.6433 13.1686C46.7358 13.8436 48.3108 15.6359 48.6858 17.8106L54.5958 54.5568C54.8958 56.2066 54.2208 57.849 52.8708 58.8989C52.7958 58.8989 52.6458 59.0488 52.5708 59.1238C52.4958 59.1238 52.4208 59.1988 52.2708 59.2738L31.4658 70.8751C30.1908 71.625 28.6983 72 27.1983 72L27.3483 71.85V71.8425Z" fill="#F8F9FA"/>
<path d="M4.58594 55.2902L12.2959 5.75034C12.3709 5.1504 12.8959 4.62546 13.4959 4.55047C14.0959 4.47547 14.6959 4.77544 14.9959 5.30039L23.0059 20.1938L26.2234 14.1345C26.4484 13.6845 26.9734 13.3845 27.4984 13.3845C28.0234 13.3845 28.5484 13.6845 28.7734 14.1345L50.4034 55.2227H4.66094L4.58594 55.2977V55.2902Z" fill="#FFA000"/>
<path d="M31.3084 35.9769L22.9984 20.1836L4.58594 55.2124L31.3084 35.902V35.9769Z" fill="#F57C00"/>
<path d="M50.3244 55.2949L44.4144 18.6238C44.3394 18.0988 43.9644 17.6489 43.4394 17.4989C42.9144 17.3489 42.3894 17.4989 42.0144 17.8738L4.67188 55.2949L25.3269 66.8962C26.6019 67.6461 28.1694 67.6461 29.5194 66.8962L50.3994 55.2949H50.3244Z" fill="#FFCA28"/>
<path d="M44.3331 18.6221C44.2581 18.0972 43.8831 17.6472 43.3581 17.4973C42.8331 17.3473 42.3081 17.4973 41.9331 17.8722L34.5231 25.2814L28.6881 14.2051C28.4631 13.7551 27.9381 13.4552 27.4131 13.4552C26.8881 13.4552 26.3631 13.7551 26.1381 14.2051L22.9206 20.2645L14.9181 5.37851C14.6181 4.85357 14.0181 4.5536 13.4181 4.62859C12.8181 4.70358 12.3681 5.22853 12.2181 5.82847L4.51562 55.3683L4.74063 55.5183L41.9406 18.3222C42.3156 17.9472 42.9156 17.7972 43.3656 17.9472C43.8156 18.0972 44.2656 18.5471 44.3406 19.0721L50.2506 55.4433L44.3406 18.6971V18.6221H44.3331ZM4.66562 55.2183L12.3006 6.12843C12.3756 5.5285 12.9006 5.00355 13.5006 4.92856C14.1006 4.85357 14.7006 5.15354 15.0006 5.67848L23.0106 20.5719L26.2281 14.5126C26.4531 14.0626 26.9781 13.7626 27.5031 13.7626C28.0281 13.7626 28.5531 14.0626 28.7781 14.5126L34.4631 25.3639L4.66562 55.2183Z" fill="white" fill-opacity="0.4"/>
<path opacity="0.2" d="M29.4334 66.5153C28.1584 67.2653 26.5909 67.2653 25.2409 66.5153L4.58594 54.9141V55.214L25.2409 66.8153C26.5159 67.5652 28.0834 67.5652 29.4334 66.8153L50.3134 55.214V54.9141L29.4334 66.5153Z" fill="#A52714"/>
<path d="M44.3284 18.6221C44.2534 18.0972 43.8784 17.6472 43.3534 17.4972C42.8284 17.3473 42.3034 17.4972 41.9284 17.8722L34.5184 25.2814L28.6834 14.2051C28.4584 13.7551 27.9334 13.4552 27.4084 13.4552C26.8834 13.4552 26.3584 13.7551 26.1334 14.2051L22.9909 20.2645L14.9884 5.37851C14.6884 4.85357 14.0884 4.5536 13.4884 4.62859C12.8884 4.70358 12.4384 5.22853 12.2884 5.82847L4.58594 55.2933L25.1659 66.8946C26.4409 67.6445 28.0084 67.6445 29.3584 66.8946L50.1634 55.2933L44.2534 18.6221H44.3284Z" fill="url(#paint0_linear_15377_1162)"/>
<defs>
<linearGradient id="paint0_linear_15377_1162" x1="1.57094" y1="18.2622" x2="58.0337" y2="41.6625" gradientUnits="userSpaceOnUse">
<stop stop-color="white" stop-opacity="0.1"/>
<stop offset="0.1" stop-color="white" stop-opacity="0"/>
<stop offset="0.6" stop-color="white" stop-opacity="0"/>
<stop offset="1" stop-color="white" stop-opacity="0"/>
</linearGradient>
</defs>
</svg>
