<svg width="68" height="72" viewBox="0 0 68 72" fill="none" xmlns="http://www.w3.org/2000/svg">
<path d="M64.9448 41.1C64.8773 41.04 64.8098 40.98 64.7423 40.92C65.0273 39.165 65.1623 37.5675 65.1623 36.0225C65.1623 34.32 64.9823 32.6775 64.7423 31.1625C66.0923 30.2925 66.6023 29.01 66.7748 28.56L66.8573 28.3725C67.1723 27.6525 68.0573 25.65 67.2023 23.3775C66.9473 22.32 66.4448 21.57 66.1373 21.15C65.7923 20.3625 65.3873 19.71 65.0498 19.1625C64.8548 18.84 64.6673 18.54 64.5323 18.255C64.1873 17.565 63.8123 16.9425 63.4898 16.395C63.2198 15.9375 62.9573 15.5025 62.7923 15.18C61.8398 13.1925 60.3998 11.8275 58.4873 11.1C57.6623 10.7925 56.8223 10.635 56.0048 10.635C55.3523 10.635 54.7073 10.7325 54.0398 10.9425C53.8148 11.0175 53.5823 11.0925 53.3573 11.1675C50.8598 9.15 48.1373 7.56 45.2348 6.4125C45.1748 6.105 45.0998 5.7975 45.0173 5.4675C44.5148 3.5625 43.3973 2.055 41.8598 1.215C40.8548 0.6375 39.4823 0 37.6298 0C36.3473 0.015 35.0648 0.03 33.7748 0.03C32.4848 0.03 31.2098 0.0225 29.8598 0C28.7273 0 27.8723 0.2775 27.3473 0.4425L27.2498 0.4725C24.6548 1.3725 22.8848 3.4125 22.3973 6.105C22.3823 6.195 22.3673 6.285 22.3598 6.375C19.4423 7.5375 16.7123 9.1275 14.2073 11.1225C13.9748 11.04 13.7423 10.965 13.5098 10.8975C12.8798 10.71 12.2198 10.6125 11.5448 10.6125C9.21983 10.6125 6.96233 11.7825 5.61983 13.7325C5.31233 14.19 5.10233 14.61 4.94483 14.9175C4.89983 15.0075 4.86233 15.09 4.84733 15.12L4.80233 15.1875C4.32233 15.9 3.93233 16.605 3.58733 17.2275C3.41483 17.535 3.24983 17.835 3.06233 18.15C2.78483 18.6225 2.50733 19.1025 2.23733 19.5825C1.86983 20.2275 1.50233 20.88 1.11233 21.5025L1.06733 21.585C0.414828 22.6875 0.167328 23.8575 0.0623276 24.6975C-0.185172 26.94 0.744828 29.1825 2.61983 30.8475C2.69483 30.915 2.76983 30.9825 2.84483 31.05C2.58983 32.64 2.40233 34.245 2.40233 35.9325C2.40233 37.62 2.58233 39.2775 2.82233 40.7925C1.47233 41.6625 0.962328 42.945 0.789828 43.395L0.707328 43.5825C0.392328 44.3025 -0.492672 46.305 0.362328 48.5775C0.617328 49.635 1.11983 50.385 1.42733 50.805C1.77233 51.5925 2.17733 52.245 2.50733 52.7925C2.70233 53.115 2.88983 53.415 3.02483 53.7C3.36983 54.39 3.74483 55.0125 4.06733 55.5675C4.33733 56.025 4.59983 56.46 4.76483 56.7825C5.71733 58.77 7.15733 60.1425 9.06983 60.8625C9.89483 61.17 10.7348 61.3275 11.5523 61.3275C12.2048 61.3275 12.8498 61.23 13.5173 61.02C13.7423 60.945 13.9748 60.87 14.1998 60.795C16.7123 62.835 19.4423 64.4325 22.3523 65.565C22.3973 65.7975 22.4423 66.03 22.4873 66.27C22.8773 68.25 24.0398 69.8925 25.6898 70.7925C26.6948 71.3625 28.0673 72 29.9123 72C31.1948 71.985 32.4773 71.97 33.7673 71.97C35.0573 71.97 36.3323 71.9775 37.6223 72H37.6898C38.8223 72 39.7223 71.715 40.1948 71.565C42.7298 70.755 44.5073 68.8275 45.0773 66.255C45.1223 66.0375 45.1673 65.82 45.2123 65.6025C48.1598 64.455 50.8673 62.8725 53.3948 60.825C53.5898 60.8925 53.7998 60.96 54.0098 61.02C54.4973 61.1625 55.2548 61.3575 56.1473 61.3575C57.1298 61.3575 58.0598 61.1325 58.9373 60.6825L58.9748 60.6675C60.5498 60.03 61.6448 59.0475 62.2448 57.735C62.8598 56.82 63.3548 55.905 63.7973 55.08C64.0448 54.63 64.2848 54.1725 64.5623 53.7075C64.7873 53.325 65.0123 52.935 65.2298 52.5525C65.6348 51.8475 66.0398 51.15 66.4598 50.46C67.0148 49.5675 67.3598 48.5325 67.5173 47.2575C67.7648 45.015 66.8348 42.7725 64.9598 41.1075L64.9448 41.1Z" fill="#F8F9FA"/>
<path d="M26.2657 62.1381C22.0882 60.9456 18.4132 58.7481 15.2032 55.6731C14.1982 56.0331 13.1707 56.3931 12.1282 56.7381C11.6407 56.8881 11.1607 56.8356 10.6507 56.6406C9.75822 56.3031 9.21072 55.6356 8.82072 54.8181C8.28072 53.7381 7.59072 52.7556 7.05072 51.6756C6.56322 50.6706 5.85822 49.8006 5.44572 48.7581C5.24322 48.2481 4.70322 47.9031 4.70322 47.2581C4.21572 46.4631 4.68822 45.7581 4.96572 45.0606C5.04072 44.8731 5.13072 44.6256 5.30322 44.5506C5.97822 44.2506 6.30822 43.5681 6.87072 43.1481C7.13322 42.9606 7.41072 42.7506 7.71072 42.5256C7.28322 40.3431 6.90822 38.1681 6.90822 35.9331C6.90822 33.6981 7.29822 31.5756 7.71072 29.4531C6.98322 28.7706 6.30822 28.1106 5.60322 27.4806C4.87572 26.8356 4.44822 26.0406 4.53822 25.2081C4.59072 24.7506 4.72572 24.2631 4.95072 23.8806C5.64072 22.7631 6.27822 21.5856 6.94572 20.4531C7.48572 19.5456 7.95072 18.5931 8.55072 17.7081C8.86572 17.2506 9.05322 16.7256 9.36822 16.2456C9.98322 15.3531 11.2132 14.9181 12.2257 15.2256C13.1182 15.4881 13.9582 15.8856 14.8732 16.0581C14.9632 16.0806 15.0382 16.2081 15.1357 16.3056C18.3607 13.2531 22.0357 11.0781 26.2582 9.80312C26.4232 9.29312 26.4607 8.73812 26.6707 8.21312C26.8207 7.81562 26.7832 7.32063 26.8582 6.88563C27.0607 5.74563 27.7507 5.08563 28.7407 4.74063C29.0932 4.62813 29.4532 4.51562 29.8807 4.51562C32.4907 4.55313 35.1007 4.55313 37.7182 4.51562C38.4607 4.51562 39.0982 4.81563 39.6982 5.16063C40.2382 5.44563 40.5382 6.05312 40.6882 6.62313C40.9507 7.66562 41.1007 8.73063 41.3032 9.82563C45.5032 11.0406 49.1782 13.2156 52.3882 16.2906C53.3932 15.9306 54.4207 15.5706 55.4632 15.2256C55.9507 15.0756 56.4307 15.1281 56.9407 15.3231C57.8332 15.6606 58.3807 16.3281 58.7707 17.1456C59.3107 18.2256 60.0007 19.2081 60.5407 20.2881C61.0282 21.2931 61.7332 22.1631 62.1457 23.2056C62.3482 23.7156 62.8882 24.0606 62.8882 24.7056C63.3757 25.5006 62.9032 26.2056 62.6257 26.9031C62.5507 27.0906 62.4607 27.3381 62.2882 27.4131C61.6132 27.7131 61.2832 28.3956 60.7207 28.8156C60.4582 29.0031 60.1807 29.2131 59.8807 29.4381C60.3082 31.6206 60.6832 33.7956 60.6832 36.0306C60.6832 38.2656 60.3457 40.3881 59.8807 42.5106C60.6082 43.1931 61.2832 43.8531 61.9882 44.4831C62.7157 45.1281 63.1432 45.9231 63.0532 46.7556C63.0007 47.2131 62.8882 47.7006 62.6407 48.0831C61.9657 49.1856 61.3357 50.3181 60.6832 51.4356C59.8657 52.8156 59.1907 54.3156 58.2382 55.6206C58.0732 56.3406 57.3982 56.4006 56.9107 56.6631C56.3857 56.9481 55.8682 56.8731 55.2907 56.7006C54.4357 56.4531 53.6107 56.0181 52.7182 55.9056C52.6282 55.8831 52.5532 55.7556 52.4557 55.6581C49.2307 58.7481 45.5707 60.9456 41.3032 62.1756C41.1007 63.1956 40.9132 64.2606 40.6882 65.3031C40.4632 66.3231 39.7957 66.9681 38.8432 67.2756C38.4907 67.3881 38.1157 67.5006 37.7032 67.5006C35.0932 67.4631 32.4832 67.4631 29.8657 67.5006C29.1232 67.5006 28.4857 67.2006 27.8857 66.8556C27.3457 66.5706 27.0307 65.9631 26.9182 65.3931C26.7157 64.2756 26.5057 63.2331 26.2807 62.1306L26.2657 62.1381ZM27.4807 45.4431C27.8557 45.2331 28.2832 45.1056 28.2982 44.6481C28.3357 43.9656 28.4257 43.2681 28.2832 42.6231C28.0207 41.5206 27.5557 40.4631 27.2782 39.3606C27.0907 38.6631 26.6782 37.9956 26.7007 37.2381C26.1007 35.7381 25.7332 34.1706 25.2232 32.6481C24.8107 31.3956 24.5107 30.1056 24.0682 28.8756C23.8282 28.1931 23.7682 27.4356 23.3257 26.8281C23.2882 26.7681 23.2732 26.7306 23.2732 26.7306C22.7707 26.3931 22.2457 26.5056 21.7957 26.5056C21.5332 26.7531 21.3082 26.9631 21.1057 27.1506C21.0907 27.7581 20.6557 28.2306 20.7307 28.8156C20.0782 30.2931 19.8007 31.8831 19.2532 33.4056C18.9757 34.1856 18.8032 34.9806 18.5782 35.7756C18.3757 36.5706 17.9257 37.2906 17.9257 38.1456C17.2132 39.7581 16.8607 41.4831 16.3432 43.1706C16.2157 43.5906 16.1407 43.9881 16.3957 44.3856C16.4707 44.4981 16.4332 44.6706 16.4332 44.6481C16.7332 44.9706 16.9582 45.1956 17.1457 45.4281H18.2632C18.5257 45.0906 18.7882 44.7681 19.0282 44.4456C18.9757 43.3656 19.1932 42.6456 19.6807 41.4906H25.1632C25.3132 42.0981 25.3882 42.6831 25.5907 43.2306C25.6807 43.4556 25.7782 43.6881 25.7407 43.9131C25.6882 44.6106 25.9057 45.1656 26.6932 45.4281C26.8807 45.4506 27.1582 45.4506 27.4732 45.4506L27.4807 45.4431ZM31.8457 45.4431C32.3482 45.4056 32.9257 45.5556 33.3382 45.1431C33.4882 44.9556 33.6157 44.7606 33.8032 44.4981V38.6256C35.1682 38.6256 36.5107 38.5656 37.8307 38.6481C38.6332 38.6856 39.2857 38.4381 39.9232 38.0406C40.2232 37.8531 40.4857 37.5681 40.7407 37.2981C41.4307 36.6156 41.7682 35.7831 41.7832 34.7931V30.1506C41.7832 29.9256 41.7307 29.6781 41.6707 29.4531C41.4682 28.6356 41.0332 28.0281 40.4557 27.5031C39.7807 26.8806 39.0007 26.4981 38.0707 26.4981H31.8007C31.5982 26.7231 31.3882 26.9556 31.1482 27.1806V44.7906C31.3882 45.0006 31.6132 45.2256 31.8382 45.4506L31.8457 45.4431ZM45.2782 45.4431H49.1557C49.3807 45.2181 49.6057 44.9856 49.8307 44.7831V43.6431C49.5532 43.1106 49.1182 42.7881 48.5632 42.7356V29.2806C48.9757 29.0706 49.3282 28.8831 49.7407 28.6581C49.7932 28.1631 49.8307 27.6531 49.8682 27.2931C49.5682 26.9556 49.3657 26.7081 49.1932 26.5131H45.3907C45.0757 26.7981 44.8507 27.0081 44.5732 27.2706C44.6257 27.7281 44.7007 28.2381 44.7607 28.6731C45.2107 28.8981 45.5632 29.0931 45.8782 29.2581V42.7506C45.6907 42.7881 45.4882 42.7506 45.4132 42.8481C45.1507 43.1106 44.7007 43.1856 44.6107 43.6281V44.7681C44.8357 44.9931 45.0607 45.2256 45.2857 45.4506L45.2782 45.4431Z" fill="#66C8FF"/>
<path d="M24.1775 38.5795C23.075 38.617 21.92 38.6395 20.765 38.677C20.7275 38.677 20.675 38.752 20.5625 38.8495C20.5775 37.672 21.2375 36.727 21.305 35.647C21.8675 34.702 21.92 33.5845 22.295 32.5195C22.4075 32.632 22.5725 32.7445 22.5725 32.842C22.5875 33.6595 23.06 34.357 23.21 35.137C23.3225 35.6695 23.6225 36.1795 23.6975 36.712C23.7725 37.3945 24.2225 37.9045 24.185 38.587L24.1775 38.5795Z" fill="#66C8FF"/>
<path d="M39.1903 34.9067C39.0628 35.1167 38.9503 35.3267 38.8003 35.5142C38.5378 35.8142 38.2003 35.9867 37.7728 35.9717C36.4678 35.9492 35.1628 35.9717 33.8203 35.9717V29.1467C35.1853 29.1467 36.5803 29.1242 37.9603 29.1467C38.6128 29.1692 39.1753 29.8517 39.1903 30.5717V34.9142V34.9067Z" fill="#66C8FF"/>
</svg>
